<svg xmlns="http://www.w3.org/2000/svg" xmlns:xlink="http://www.w3.org/1999/xlink" width="495" height="334" viewBox="0 0 495 334">
  <defs>
    <clipPath id="clip-Artboard_3">
      <rect width="495" height="334"/>
    </clipPath>
  </defs>
  <g id="Artboard_3" data-name="Artboard – 3" clip-path="url(#clip-Artboard_3)">
    <rect width="495" height="334" fill="#fff"/>
    <path id="Path_484" data-name="Path 484" d="M5122.383-352.463c-199.533-175.866-81.75-253.436,55.867-262.1s168.633,65.585,154.667,131.109S5321.915-176.6,5122.383-352.463Z" transform="translate(-2879.756 4347.211) rotate(-48)" fill="#fedf03" opacity="0.2"/>
    <g id="satisfaction" transform="translate(128.994 57)">
      <path id="Path_488" data-name="Path 488" d="M193.841,85.76H175.863a1.634,1.634,0,0,1-1.307-2.615,47.668,47.668,0,0,0,9.479-28.438V53.073a16.363,16.363,0,0,0-16.344-16.344,6.537,6.537,0,0,0-6.537,6.537v5.639a30.454,30.454,0,0,1-15.361,26.45L127.6,85.76h-8.937V79.223h-58.9A32.632,32.632,0,1,0,46.749,89.548V144.6h71.912V138.06h9.179l16.344,6.537h49.658a9.764,9.764,0,0,0,7.257-16.344,9.656,9.656,0,0,0,0-13.075,9.656,9.656,0,0,0,0-13.075,9.764,9.764,0,0,0-7.257-16.344ZM7.524,59.61a26.15,26.15,0,1,1,46.52,16.344,26.15,26.15,0,0,0-9.584-7.433,16.344,16.344,0,1,0-21.574,0A26.209,26.209,0,0,0,13.3,75.954,26,26,0,0,1,7.524,59.61Zm16.344-3.269a9.806,9.806,0,1,1,9.806,9.806A9.806,9.806,0,0,1,23.868,56.342ZM18.01,80.5a19.612,19.612,0,0,1,31.327,0,25.954,25.954,0,0,1-31.327,0ZM53.286,85.76H99.048v52.3H53.286Zm58.837,52.3h-6.537V85.76h6.537Zm81.718,0h-48.4l-16.344-6.537H118.661V92.3h10.676l19.71-11.264a37.005,37.005,0,0,0,18.645-32.128V43.267a9.806,9.806,0,0,1,9.806,9.806v1.634a41.111,41.111,0,0,1-8.172,24.515A8.172,8.172,0,0,0,175.863,92.3h17.978a3.269,3.269,0,1,1,0,6.537H177.5v6.537h16.344a3.269,3.269,0,0,1,0,6.537H177.5v6.537h16.344a3.269,3.269,0,0,1,0,6.537H177.5v6.537h16.344a3.269,3.269,0,0,1,0,6.537Z" transform="translate(0 59.064)" fill="#ff005d"/>
      <path id="Path_489" data-name="Path 489" d="M75.687,73.374A32.687,32.687,0,1,0,43,40.687,32.687,32.687,0,0,0,75.687,73.374Zm-15.664-11.8a19.612,19.612,0,0,1,31.327,0A25.954,25.954,0,0,1,60.024,61.578Zm5.858-24.159a9.806,9.806,0,1,1,9.806,9.806,9.806,9.806,0,0,1-9.806-9.806Zm9.806-22.881A26.12,26.12,0,0,1,96.058,57.031,26.15,26.15,0,0,0,86.474,49.6a16.344,16.344,0,1,0-21.574,0,26.209,26.209,0,0,0-9.584,7.433A26.12,26.12,0,0,1,75.687,14.537Z" transform="translate(95.273 15.881)" fill="#ff005d"/>
      <path id="Path_490" data-name="Path 490" d="M58.762,92.524A45.762,45.762,0,1,0,13,46.762,45.762,45.762,0,0,0,58.762,92.524Zm0-6.537A39.1,39.1,0,0,1,30.649,74.063a29.242,29.242,0,0,1,7.935-12.791l5.142,20.465L58.762,70.46,73.8,81.737l5.119-20.475a29.3,29.3,0,0,1,7.956,12.807A39.107,39.107,0,0,1,58.762,85.987Zm-13.075-52.3A13.075,13.075,0,1,1,58.762,46.762,13.075,13.075,0,0,1,45.687,33.687ZM58.762,61.269l-6.1-7.315a28.765,28.765,0,0,1,12.192,0ZM71.51,56.2c.592.281,1.173.575,1.742.9L69.876,70.624l-6.384-4.789Zm-25.47,0,8.021,9.626-6.4,4.8L44.285,57.1c.569-.333,1.151-.624,1.729-.905ZM58.762,7.537A39.169,39.169,0,0,1,91.623,68.11,35.786,35.786,0,0,0,71.075,48.929a19.612,19.612,0,1,0-24.63,0A35.776,35.776,0,0,0,25.9,68.11,39.172,39.172,0,0,1,58.762,7.537Z" transform="translate(27.211)" fill="#ff005d"/>
      <path id="Path_491" data-name="Path 491" d="M23,31h6.537v6.537H23Z" transform="translate(49.899 68.062)" fill="#ff005d"/>
      <path id="Path_492" data-name="Path 492" d="M27,31H79.3v6.537H27Z" transform="translate(58.973 68.062)" fill="#ff005d"/>
      <path id="Path_493" data-name="Path 493" d="M23,35H88.374v6.537H23Z" transform="translate(49.899 77.137)" fill="#ff005d"/>
      <path id="Path_494" data-name="Path 494" d="M23,39H81.837v6.537H23Z" transform="translate(49.899 86.212)" fill="#ff005d"/>
      <path id="Path_495" data-name="Path 495" d="M19,57h6.537v6.537H19Z" transform="translate(40.824 127.049)" fill="#ff005d"/>
      <path id="Path_496" data-name="Path 496" d="M23,57h6.537v6.537H23Z" transform="translate(49.899 127.049)" fill="#ff005d"/>
      <path id="Path_497" data-name="Path 497" d="M27,57h6.537v6.537H27Z" transform="translate(58.973 127.049)" fill="#ff005d"/>
    </g>
  </g>
</svg>
