<svg xmlns="http://www.w3.org/2000/svg" xmlns:xlink="http://www.w3.org/1999/xlink" width="495" height="334" viewBox="0 0 495 334">
  <defs>
    <clipPath id="clip-Artboard_4">
      <rect width="495" height="334"/>
    </clipPath>
  </defs>
  <g id="Artboard_4" data-name="Artboard – 4" clip-path="url(#clip-Artboard_4)">
    <rect width="495" height="334" fill="#fff"/>
    <path id="Path_484" data-name="Path 484" d="M5122.383-352.463c-199.533-175.866-81.75-253.436,55.867-262.1s168.633,65.585,154.667,131.109S5321.915-176.6,5122.383-352.463Z" transform="translate(-2879.756 4354.211) rotate(-48)" fill="#fedf03" opacity="0.2"/>
    <g id="specific-audience" transform="translate(138.566 50.229)">
      <path id="Path_485" data-name="Path 485" d="M208.427,102.317l-13.059-5.6a7.747,7.747,0,0,1-3.644-3.283,23.343,23.343,0,0,0,10.584-19.518V66.138a23.343,23.343,0,1,0-46.685,0v7.775a23.343,23.343,0,0,0,10.571,19.515,7.746,7.746,0,0,1-3.621,3.289l-13.082,5.6a15.862,15.862,0,0,0-1.649.968V73.843A15.564,15.564,0,0,0,138.4,59.525l-13.059-5.6a7.746,7.746,0,0,1-3.631-3.289A23.343,23.343,0,0,0,132.28,31.121V23.343a23.343,23.343,0,0,0-46.685,0v7.782A23.343,23.343,0,0,0,96.165,50.639a7.746,7.746,0,0,1-3.621,3.289l-13.069,5.6a15.564,15.564,0,0,0-9.434,14.315v29.443a14.745,14.745,0,0,0-1.662-.968l-13.059-5.6a7.746,7.746,0,0,1-3.631-3.289A23.343,23.343,0,0,0,62.249,73.914V66.138a23.343,23.343,0,0,0-46.685,0v7.775a23.343,23.343,0,0,0,10.58,19.521,7.746,7.746,0,0,1-3.621,3.289L9.441,102.317A15.561,15.561,0,0,0,0,116.639V163.4a3.889,3.889,0,0,0,3.889,3.889H39.1a69.931,69.931,0,0,0,139.668,0h35.208a3.889,3.889,0,0,0,3.889-3.889V116.639A15.564,15.564,0,0,0,208.427,102.317ZM163.4,66.135a15.562,15.562,0,0,1,31.125,0v7.779a15.562,15.562,0,1,1-31.124,0Zm-.2,93.377a54.467,54.467,0,0,0-50.381-50.381v-7.782a62.249,62.249,0,0,1,58.16,58.163Zm-15.377,7.779h7.582A46.711,46.711,0,0,1,112.8,209.9v-7.588a3.891,3.891,0,0,0-7.782,0v7.582a46.711,46.711,0,0,1-42.605-42.605h7.624a3.891,3.891,0,1,0,0-7.782H62.446A46.711,46.711,0,0,1,105.051,116.9v7.582a3.891,3.891,0,1,0,7.782,0v-7.566a46.711,46.711,0,0,1,42.605,42.605h-7.611a3.891,3.891,0,1,0,0,7.782ZM46.885,159.512a62.249,62.249,0,0,1,58.16-58.163v7.782a54.467,54.467,0,0,0-50.381,50.381ZM93.364,23.346a15.562,15.562,0,1,1,31.124,0v7.779a15.562,15.562,0,1,1-31.124,0ZM82.532,66.681l13.075-5.6a15.564,15.564,0,0,0,7.746-7.314,22.487,22.487,0,0,0,11.165,0,15.561,15.561,0,0,0,7.746,7.314l13.072,5.606a7.782,7.782,0,0,1,4.722,7.159v26.922a69.072,69.072,0,0,0-7.782-3.308V81.7a3.891,3.891,0,1,0-7.782,0V95.178a67.978,67.978,0,0,0-31.124,0V81.7a3.891,3.891,0,1,0-7.782,0V97.46a69.072,69.072,0,0,0-7.782,3.308V73.843a7.782,7.782,0,0,1,4.725-7.162Zm-59.189-.542a15.562,15.562,0,0,1,31.125,0v7.775a15.562,15.562,0,0,1-31.125,0Zm-15.561,50.5a7.782,7.782,0,0,1,4.722-7.162l13.075-5.6a15.564,15.564,0,0,0,7.746-7.314,22.487,22.487,0,0,0,11.165,0,15.561,15.561,0,0,0,7.746,7.314L64.663,109.2a69.889,69.889,0,0,0-25.56,50.31H23.343V124.495a3.891,3.891,0,1,0-7.782,0v35.017H7.782Zm39.1,50.652h7.782a54.467,54.467,0,0,0,50.378,50.381v7.782a62.249,62.249,0,0,1-58.16-58.163Zm65.941,58.16v-7.779A54.467,54.467,0,0,0,163.2,167.291h7.782a62.249,62.249,0,0,1-58.163,58.16Zm97.26-65.938h-7.779V124.495a3.891,3.891,0,1,0-7.782,0v35.017H178.765a69.889,69.889,0,0,0-25.56-50.313l12.449-5.326a15.564,15.564,0,0,0,7.746-7.314,22.487,22.487,0,0,0,11.165,0,15.561,15.561,0,0,0,7.746,7.314l13.069,5.606a7.782,7.782,0,0,1,4.706,7.159Z" transform="translate(0)" fill="#ff005d"/>
      <path id="Path_486" data-name="Path 486" d="M71.574,58.341h-.349a23.375,23.375,0,0,0-19.1-19.1v-.349a3.891,3.891,0,1,0-7.782,0v.349a23.375,23.375,0,0,0-19.1,19.1h-.349a3.891,3.891,0,0,0,0,7.782h.349a23.375,23.375,0,0,0,19.1,19.1v.349a3.891,3.891,0,0,0,7.782,0v-.349a23.375,23.375,0,0,0,19.1-19.1h.349a3.891,3.891,0,1,0,0-7.782Zm-19.56,18.94a3.812,3.812,0,0,0-7.572,0A15.535,15.535,0,0,1,33.188,66.027a3.812,3.812,0,0,0,0-7.572A15.535,15.535,0,0,1,44.443,47.2a3.812,3.812,0,0,0,7.572,0A15.535,15.535,0,0,1,63.279,58.448a3.812,3.812,0,0,0,0,7.572A15.535,15.535,0,0,1,52.015,77.281Z" transform="translate(60.702 101.17)" fill="#ff005d"/>
      <path id="Path_487" data-name="Path 487" d="M32.368,41.3a3.957,3.957,0,0,0-4.241.817A4.064,4.064,0,0,0,27,44.853a3.257,3.257,0,0,0,.323,1.478,4.554,4.554,0,0,0,.817,1.291,3.944,3.944,0,0,0,5.526,0,4.555,4.555,0,0,0,.817-1.291,3.893,3.893,0,0,0,.323-1.478,4.086,4.086,0,0,0-1.13-2.763A4.554,4.554,0,0,0,32.368,41.3Z" transform="translate(78.044 118.536)" fill="#ff005d"/>
    </g>
  </g>
</svg>
