<svg xmlns="http://www.w3.org/2000/svg" xmlns:xlink="http://www.w3.org/1999/xlink" width="1080" height="1080" viewBox="0 0 1080 1080">
  <defs>
    <clipPath id="clip-Audience_Persona_5">
      <rect width="1080" height="1080"/>
    </clipPath>
  </defs>
  <g id="Audience_Persona_5" data-name="Audience Persona – 5" clip-path="url(#clip-Audience_Persona_5)">
    <rect width="1080" height="1080" fill="#fff"/>
    <path id="Path_821" data-name="Path 821" d="M5145.617-295c-243.131-214.294-99.611-308.814,68.076-319.366s259.334,56.033,242.314,135.874S5388.75-80.706,5145.617-295Z" transform="matrix(-0.326, 0.946, -0.946, -0.326, 2080.596, -4706.044)" fill="#fedf03" opacity="0.2"/>
    <g id="undraw_email_campaign_re_m6k5" transform="translate(44.817 118.014)">
      <path id="Path_919" data-name="Path 919" d="M335.162,851.384c9.416-7.957,15.136-20.526,13.636-32.762s-10.79-23.485-22.841-26.083-25.788,4.594-29.448,16.366c-2.014-22.7-4.336-46.342-16.4-65.67-10.926-17.5-29.85-30.023-50.359-32.263s-42.1,6.221-54.894,22.409-15.923,39.721-6.964,58.306c6.6,13.691,18.758,23.88,31.5,32.169,40.641,26.445,91.057,35.38,139.028,28.32Z" transform="translate(-151.865 -20.728)" fill="#f2f2f2"/>
      <path id="Path_920" data-name="Path 920" d="M193.833,717.366a332.587,332.587,0,0,1,46.349,46.025,337.339,337.339,0,0,1,36.552,54.1,335.95,335.95,0,0,1,15.653,33.142c.94,2.3-2.8,3.306-3.73,1.028a330.131,330.131,0,0,0-30.165-57.074,332.207,332.207,0,0,0-40.456-49.978A331.416,331.416,0,0,0,191.1,720.1c-1.931-1.573.82-4.295,2.735-2.735Z" transform="translate(-150.562 -20.432)" fill="#fff"/>
      <path id="Path_921" data-name="Path 921" d="M977.3,382.663H848.493a7.338,7.338,0,0,1-7.33-7.33V359.879a7.338,7.338,0,0,1,7.33-7.33H977.3a7.338,7.338,0,0,1,7.33,7.33v15.455a7.338,7.338,0,0,1-7.33,7.329Z" transform="translate(-119.903 -37.598)" fill="#ff005d"/>
      <path id="Path_922" data-name="Path 922" d="M963.056,361.046l-54.9-49.5a6.8,6.8,0,0,0-8.709-.335L779.314,350.882a6.814,6.814,0,0,0-4.329,8.6l4.845,14.676a6.794,6.794,0,0,0,8.6,4.329L898.63,342.1l44.959,40.538a6.758,6.758,0,0,0,4.549,1.752q.179,0,.36-.01a6.761,6.761,0,0,0,4.7-2.239l10.349-11.478a6.814,6.814,0,0,0-.5-9.613Z" transform="translate(-123.037 -39.612)" fill="#ff005d"/>
      <path id="Path_923" data-name="Path 923" d="M374.344,712.208a6.29,6.29,0,0,0-6.283,6.283V847.3a6.29,6.29,0,0,0,6.283,6.283H389.8a6.289,6.289,0,0,0,6.283-6.283V718.491a6.29,6.29,0,0,0-6.283-6.283Z" transform="translate(-142.193 -20.653)" fill="#ff005d"/>
      <path id="Path_924" data-name="Path 924" d="M421.038,854.677H405.583a7.338,7.338,0,0,1-7.33-7.33V718.538a7.338,7.338,0,0,1,7.33-7.33h15.455a7.338,7.338,0,0,1,7.33,7.33v128.81a7.338,7.338,0,0,1-7.33,7.33Z" transform="translate(-140.771 -20.7)" fill="#ff005d"/>
      <path id="Path_925" data-name="Path 925" d="M448.386,728.062s5.839,52.506-53.109,50.723-36.013-53.377-36.013-53.377,12.319-9.681,43.458-.318S448.386,728.062,448.386,728.062Z" transform="translate(-142.815 -20.238)" fill="#ccc"/>
      <path id="Path_926" data-name="Path 926" d="M420.665,646.712a15.054,15.054,0,0,1-8.333-27.609L513.3,552.276a7.329,7.329,0,0,1,10.158,2.067l8.53,12.887a7.339,7.339,0,0,1-2.067,10.158L428.953,644.215A14.979,14.979,0,0,1,420.665,646.712Z" transform="translate(-140.426 -28.245)" fill="#ff005d"/>
      <circle id="Ellipse_91" data-name="Ellipse 91" cx="53.403" cy="53.403" r="53.403" transform="translate(208.503 449.798)" fill="#ff005d"/>
      <path id="Path_927" data-name="Path 927" d="M402.518,555.342c3.462-.1,7.77-.216,11.089-2.641a8.516,8.516,0,0,0,3.351-6.359,5.728,5.728,0,0,0-1.948-4.7c-1.734-1.465-4.265-1.808-6.993-1.007l2.826-20.655-2.075-.284-3.323,24.283,1.733-.8c2.009-.921,4.766-1.39,6.48.058a3.681,3.681,0,0,1,1.207,3.032,6.436,6.436,0,0,1-2.493,4.741c-2.583,1.887-6.017,2.13-9.912,2.239Z" transform="translate(-140.573 -29.723)" fill="#2f2e41"/>
      <rect id="Rectangle_113" data-name="Rectangle 113" width="11.279" height="2.094" transform="translate(280.532 492.034)" fill="#2f2e41"/>
      <rect id="Rectangle_114" data-name="Rectangle 114" width="11.279" height="2.094" transform="translate(244.93 492.034)" fill="#2f2e41"/>
      <path id="Path_928" data-name="Path 928" d="M350.964,744.9s-4.611-156.769,59.941-146.01S448.56,761.042,448.56,761.042s-13.832,27.665-47.645-3.074S350.964,744.9,350.964,744.9Z" transform="translate(-143.002 -26.017)" fill="#2f2e41"/>
      <path id="Path_929" data-name="Path 929" d="M376.032,490.815c10.391-7.055,23.505-2.262,33.6,2.773,9.806,4.89,20.855,11.112,31.95,6.4,4.333-1.839,7.855-5.437,8.467-10.251.729-5.735-2.739-11.1-6.6-15a48.039,48.039,0,0,0-14.414-9.5,67.365,67.365,0,0,0-16.406-4.989,71.4,71.4,0,0,0-62.388,19.614,79.107,79.107,0,0,0-22.435,60.808c.882,11.88,4.676,23.994,12.288,33.319,7.142,8.75,17.836,14.9,29.249,15.415a32.806,32.806,0,0,0,8.338-.677c1.972-.42,2.814,2.607.835,3.029-11.887,2.535-24.2-1.231-33.63-8.647-9.925-7.807-16.015-19.626-18.685-31.8-5.109-23.3,1.291-48.382,15.96-67.038a73.085,73.085,0,0,1,27.348-21.58,75.924,75.924,0,0,1,35.279-6.474A70.267,70.267,0,0,1,438.8,466.989c9.142,5.908,19.445,18.432,11.989,29.513-2.788,4.144-7.417,6.668-12.222,7.705a30,30,0,0,1-16.465-1.434c-11.944-4.218-22.99-13.642-36.359-12.214a17.73,17.73,0,0,0-8.13,2.968c-1.677,1.139-3.25-1.582-1.585-2.712Z" transform="translate(-144.247 -32.72)" fill="#2f2e41"/>
      <path id="Path_930" data-name="Path 930" d="M809.741,259.326a14.534,14.534,0,0,1,4.764-26.429l118.311-25.755a6.813,6.813,0,0,1,8.1,5.2l-.512.111.511-.111,3.287,15.1a6.806,6.806,0,0,1-5.2,8.1L820.689,261.3a14.761,14.761,0,0,1-1.553.253A14.424,14.424,0,0,1,809.741,259.326Z" transform="translate(-121.698 -44.456)" fill="#ff005d"/>
      <path id="Path_931" data-name="Path 931" d="M800.21,250.505h0q-.106-.421-.188-.851c-.973-5.124.8-10.519,5-15.191a32.152,32.152,0,0,1,17.041-9.493L876,213.169a6.807,6.807,0,0,1,8.142,5.379l4.706,24.789a6.771,6.771,0,0,1-5.232,7.918l-54.28,11.875a34.889,34.889,0,0,1-7.452.82C811.2,263.951,802.293,258.743,800.21,250.505Z" transform="translate(-121.854 -44.172)" fill="#2f2e41"/>
      <circle id="Ellipse_92" data-name="Ellipse 92" cx="53.403" cy="53.403" r="53.403" transform="translate(634.394 44.059)" fill="#ff005d"/>
      <path id="Path_932" data-name="Path 932" d="M852.246,164.859c3.462-.1,7.77-.216,11.089-2.641a8.516,8.516,0,0,0,3.351-6.359,5.728,5.728,0,0,0-1.948-4.7c-1.733-1.465-4.265-1.808-6.993-1.007l2.826-20.655-2.075-.284-3.323,24.282,1.733-.8c2.009-.921,4.766-1.39,6.479.058a3.681,3.681,0,0,1,1.207,3.032,6.436,6.436,0,0,1-2.493,4.741c-2.583,1.887-6.017,2.13-9.912,2.239Z" transform="translate(-119.384 -48.121)" fill="#2f2e41"/>
      <rect id="Rectangle_115" data-name="Rectangle 115" width="11.279" height="2.094" transform="translate(715.846 83.154)" fill="#2f2e41"/>
      <path id="Path_933" data-name="Path 933" d="M812.709,95.672a44.147,44.147,0,0,0-17.264-32.341,43,43,0,0,0-36.665-6.993,42.347,42.347,0,0,0-28.149,24.019,44.092,44.092,0,0,0-3.78,18.526,50.088,50.088,0,0,0,5.058,19.965c3.149,6.861,7.12,13.3,10.57,20a159.642,159.642,0,0,1,8.772,20.478,161.438,161.438,0,0,1,8.714,44.37c1.282,23.844-1,58.653-27.916,67.8-6.845,2.327-14.229,2.76-21.405,2.741a87.905,87.905,0,0,1-22.43-2.627c-12.707-3.393-24.77-11.361-30.185-23.74a33.043,33.043,0,0,1-2.485-8.973c-.113-.848.8-1.563,1.571-1.571a1.609,1.609,0,0,1,1.571,1.571c1.753,13.191,12.745,23.308,24.68,27.855a70.887,70.887,0,0,0,21.713,4.2c7.378.373,15.039.315,22.264-1.383a32.243,32.243,0,0,0,16.768-9.532,43.353,43.353,0,0,0,8.753-15.835c4.249-12.969,4.694-27.227,3.947-40.744a158.387,158.387,0,0,0-8.9-44.181,154.9,154.9,0,0,0-9.219-20.9c-3.5-6.582-7.386-12.979-10.335-19.84a51.774,51.774,0,0,1-4.654-20.056,47.377,47.377,0,0,1,3.744-18.631,45.414,45.414,0,0,1,27.026-25.509,46.744,46.744,0,0,1,37.713,3.089,47.524,47.524,0,0,1,22.257,29.04,45.461,45.461,0,0,1,1.4,9.189c.1,2.02-3.038,2.015-3.141,0Z" transform="translate(-128.649 -51.77)" fill="#2f2e41"/>
      <path id="Path_934" data-name="Path 934" d="M796.865,95.82a24.594,24.594,0,0,0-8.227-15.008,24.26,24.26,0,0,0-16.958-5.629c-2.021.1-2.015-3.041,0-3.141a27.333,27.333,0,0,1,28.214,22.943c.3,1.978-2.724,2.83-3.029.835Z" transform="translate(-123.248 -50.816)" fill="#2f2e41"/>
      <path id="Path_935" data-name="Path 935" d="M789.374,95.484a5.759,5.759,0,0,1,3.663-7.274l14.915-4.925a5.759,5.759,0,0,1,3.611,10.937l-14.915,4.925a5.757,5.757,0,0,1-7.275-3.663Z" transform="translate(-122.357 -50.298)" fill="#2f2e41"/>
      <path id="Path_936" data-name="Path 936" d="M900.778,165.617a5.241,5.241,0,0,0-2.266,9.16l23.049,19.15a3.407,3.407,0,0,1,.819,1.024,3.2,3.2,0,0,1,.314,1.263l1.439,35.121a5.124,5.124,0,0,0,4.031,4.89l.041.009a5.116,5.116,0,0,0,5.744-2.591l8.314-15.162a3.152,3.152,0,0,1,2.815-1.615,3.048,3.048,0,0,1,2.234.991l39.9,42.571a5.2,5.2,0,0,0,4.576,1.6,5.255,5.255,0,0,0,3.92-2.835l58.5-117.038a5.238,5.238,0,0,0-5.763-7.475l-1.894.4-145.767,30.54Zm-.934,7.552a3.148,3.148,0,0,1,1.369-5.5l145.722-30.529,1.939-.407a3.149,3.149,0,0,1,3.458,4.481l-58.5,117.038a3.142,3.142,0,0,1-5.1.741l-39.9-42.57a5.021,5.021,0,0,0-1.361-1.05l101.373-73.543a2.1,2.1,0,0,0-1.726-3.743,1.827,1.827,0,0,0-.338.116L923.7,193.148a5.167,5.167,0,0,0-.81-.829l-23.049-19.151Z" transform="translate(-117.29 -47.868)" fill="#ccc"/>
      <path id="Path_937" data-name="Path 937" d="M900.778,165.617a5.241,5.241,0,0,0-2.266,9.16l23.049,19.15a3.407,3.407,0,0,1,.819,1.024,3.2,3.2,0,0,1,.314,1.263l1.439,35.121a5.124,5.124,0,0,0,4.031,4.89l.041.009a5.116,5.116,0,0,0,5.744-2.591l8.314-15.162a3.152,3.152,0,0,1,2.815-1.615,3.048,3.048,0,0,1,2.234.991l39.9,42.571a5.2,5.2,0,0,0,4.576,1.6,5.255,5.255,0,0,0,3.92-2.835l58.5-117.038a5.238,5.238,0,0,0-5.763-7.475l-1.894.4-145.767,30.54Zm-.934,7.552a3.148,3.148,0,0,1,1.369-5.5l145.722-30.529,1.939-.407a3.149,3.149,0,0,1,3.458,4.481l-58.5,117.038a3.142,3.142,0,0,1-5.1.741l-39.9-42.571a5.02,5.02,0,0,0-1.361-1.05,5.1,5.1,0,0,0-2.376-.6c-.117-.005-.236,0-.356,0l-.01,0a5.225,5.225,0,0,0-4.309,2.7l-8.316,15.172a3.048,3.048,0,0,1-3.455,1.544l-.02,0a3.041,3.041,0,0,1-2.415-2.933l-1.438-35.121a4.954,4.954,0,0,0-.158-1.1l0-.01a5.024,5.024,0,0,0-.374-1,4.866,4.866,0,0,0-.552-.877,5.17,5.17,0,0,0-.81-.829l-23.049-19.15Z" transform="translate(-117.29 -47.868)" fill="#3f3d56"/>
      <path id="Path_938" data-name="Path 938" d="M922.5,192.992l123.087-54.943a1.827,1.827,0,0,1,.338-.116,2.1,2.1,0,0,1,1.726,3.743L946.282,215.219l-1.789,1.3-1.225-1.7.272-.206.01,0,102.87-74.641-122.989,54.89,0,.01-.536.233-.854-1.913Z" transform="translate(-116.093 -47.713)" fill="#3f3d56"/>
      <path id="Path_939" data-name="Path 939" d="M775.879,349.73a5.766,5.766,0,0,0-5.759,5.759v20.942a5.766,5.766,0,0,0,5.759,5.759h67.015a5.766,5.766,0,0,0,5.759-5.759V355.489a5.766,5.766,0,0,0-5.759-5.759Z" transform="translate(-123.25 -37.731)" fill="#2f2e41"/>
      <path id="Path_940" data-name="Path 940" d="M768.237,249.766a53.68,53.68,0,0,0-1.725,28.837c5.326,26.109,3.343,56.975-1.892,89.958,0,3.47,2.417,6.283,5.4,6.283h81.873c2.981,0,5.4-2.813,5.4-6.283V270.657c0-28.932-19.667-52.607-44.266-53.864-.684-.042-1.376-.063-2.069-.063C791.764,216.73,775.264,230.374,768.237,249.766Z" transform="translate(-123.51 -43.997)" fill="#2f2e41"/>
      <path id="Path_941" data-name="Path 941" d="M792.976,375.733V254.651a14.534,14.534,0,0,1,29.068,0V375.733a6.814,6.814,0,0,1-6.806,6.806H799.782a6.814,6.814,0,0,1-6.806-6.806Z" transform="translate(-122.174 -42.895)" fill="#ff005d"/>
      <path id="Path_942" data-name="Path 942" d="M818,289.513l-21.968-.967a6.814,6.814,0,0,1-6.5-7.1l1.543-35.045a17.8,17.8,0,1,1,35.567,1.566L825.1,283.014a6.807,6.807,0,0,1-6.792,6.506Q818.154,289.52,818,289.513Z" transform="translate(-122.336 -43.401)" fill="#2f2e41"/>
      <ellipse id="Ellipse_93" data-name="Ellipse 93" cx="4.712" cy="15.183" rx="4.712" ry="15.183" transform="translate(729.068 238.177)" fill="#2f2e41"/>
      <circle id="Ellipse_94" data-name="Ellipse 94" cx="26.178" cy="26.178" r="26.178" transform="translate(449.369 390.009)" fill="#ccc"/>
      <path id="Path_943" data-name="Path 943" d="M863.157,474.984H662.111a8.377,8.377,0,0,1,0-16.754H863.157a8.377,8.377,0,1,1,0,16.754Z" transform="translate(-128.734 -32.619)" fill="#ccc"/>
      <path id="Path_944" data-name="Path 944" d="M808.707,440.984h-146.6a8.377,8.377,0,0,1,0-16.754h146.6a8.377,8.377,0,0,1,0,16.754Z" transform="translate(-128.734 -34.221)" fill="#ccc"/>
      <circle id="Ellipse_95" data-name="Ellipse 95" cx="26.178" cy="26.178" r="26.178" transform="translate(449.369 489.485)" fill="#ccc"/>
      <path id="Path_945" data-name="Path 945" d="M863.157,569.984H662.111a8.377,8.377,0,0,1,0-16.754H863.157a8.377,8.377,0,1,1,0,16.754Z" transform="translate(-128.734 -28.143)" fill="#ccc"/>
      <path id="Path_946" data-name="Path 946" d="M808.707,535.984h-146.6a8.377,8.377,0,0,1,0-16.754h146.6a8.377,8.377,0,0,1,0,16.754Z" transform="translate(-128.734 -29.745)" fill="#ccc"/>
      <circle id="Ellipse_96" data-name="Ellipse 96" cx="26.178" cy="26.178" r="26.178" transform="translate(449.369 590.008)" fill="#ccc"/>
      <path id="Path_947" data-name="Path 947" d="M863.157,665.984H662.111a8.377,8.377,0,0,1,0-16.754H863.157a8.377,8.377,0,1,1,0,16.754Z" transform="translate(-128.734 -23.62)" fill="#ccc"/>
      <path id="Path_948" data-name="Path 948" d="M808.707,631.984h-146.6a8.377,8.377,0,0,1,0-16.754h146.6a8.377,8.377,0,0,1,0,16.754Z" transform="translate(-128.734 -25.222)" fill="#ccc"/>
      <path id="Path_949" data-name="Path 949" d="M940.173,725.825H523.421a17.821,17.821,0,0,1-17.8-17.8V397.031a17.821,17.821,0,0,1,17.8-17.8H940.173a17.821,17.821,0,0,1,17.8,17.8V708.024A17.821,17.821,0,0,1,940.173,725.825Zm-416.752-344.5a15.725,15.725,0,0,0-15.707,15.707V708.024a15.725,15.725,0,0,0,15.707,15.707H940.173a15.725,15.725,0,0,0,15.707-15.707V397.031a15.725,15.725,0,0,0-15.707-15.707Z" transform="translate(-135.712 -36.341)" fill="#3f3d56"/>
      <circle id="Ellipse_97" data-name="Ellipse 97" cx="58.638" cy="58.638" r="58.638" transform="translate(318.599 289.486)" fill="#ff005d"/>
      <path id="Path_950" data-name="Path 950" d="M507.965,407.6a6.081,6.081,0,0,1-3.659-1.215l-.065-.049-13.78-10.551a6.122,6.122,0,0,1,7.447-9.72l8.926,6.844L527.926,365.4a6.122,6.122,0,0,1,8.584-1.133l-.131.178.135-.175a6.129,6.129,0,0,1,1.133,8.584L512.836,405.21a6.125,6.125,0,0,1-4.871,2.39Z" transform="translate(-136.54 -37.106)" fill="#fff"/>
      <path id="Path_951" data-name="Path 951" d="M517.7,722.622a7.254,7.254,0,0,1-2.99-.642h0L404.231,672.42a15.057,15.057,0,1,1,12.326-27.476L527.033,694.5a7.329,7.329,0,0,1,3.688,9.687l-6.326,14.1a7.349,7.349,0,0,1-6.7,4.329Z" transform="translate(-140.908 -23.884)" fill="#ff005d"/>
      <path id="Path_952" data-name="Path 952" d="M552.354,848.324H153.4a1.047,1.047,0,0,1,0-2.094H552.354a1.047,1.047,0,0,1,0,2.094Z" transform="translate(-152.356 -14.338)" fill="#3f3d56"/>
    </g>
  </g>
</svg>
