<svg xmlns="http://www.w3.org/2000/svg" xmlns:xlink="http://www.w3.org/1999/xlink" width="1080" height="1080" viewBox="0 0 1080 1080">
  <defs>
    <clipPath id="clip-Audience_Persona_4">
      <rect width="1080" height="1080"/>
    </clipPath>
  </defs>
  <g id="Audience_Persona_4" data-name="Audience Persona – 4" clip-path="url(#clip-Audience_Persona_4)">
    <rect width="1080" height="1080" fill="#fff"/>
    <path id="Path_821" data-name="Path 821" d="M5153.854-274.625c-258.588-227.918-105.944-328.448,72.4-339.671s275.822,59.6,257.72,144.513S5412.446-46.707,5153.854-274.625Z" transform="translate(-1147.902 5285.224) rotate(-64)" fill="#fedf03" opacity="0.2"/>
    <g id="Group_30" data-name="Group 30" transform="translate(74 228.209)">
      <path id="Path_853" data-name="Path 853" d="M964.54,679.849a17.088,17.088,0,0,1-6.131-14.731c.674-5.5,4.852-10.56,10.27-11.728s11.6,2.066,13.241,7.359c.906-10.2,1.949-20.837,7.375-29.528a31.272,31.272,0,0,1,22.643-14.506,28.057,28.057,0,0,1,24.682,10.076,25.464,25.464,0,0,1,3.131,26.216c-2.967,6.156-8.434,10.737-14.162,14.464a91.4,91.4,0,0,1-62.512,13.675" transform="translate(-73.03 -92.386)" fill="#f2f2f2"/>
      <path id="Path_854" data-name="Path 854" d="M1024.872,619.409a150.814,150.814,0,0,0-44.313,59.92c-.423,1.036,1.259,1.487,1.677.462a149.136,149.136,0,0,1,43.866-59.153c.868-.707-.369-1.931-1.23-1.23Z" transform="translate(-70.404 -160.301)" fill="#fff"/>
      <path id="Path_864" data-name="Path 864" d="M860.015,522.072H185.968a19.169,19.169,0,0,1-19.148-19.148V242.065a19.169,19.169,0,0,1,19.148-19.148H860.015a19.17,19.17,0,0,1,19.147,19.148v260.86a19.17,19.17,0,0,1-19.148,19.148Z" transform="translate(-166.82 -222.917)" fill="#af0505"/>
      <path id="Path_865" data-name="Path 865" d="M859.6,226.417H185.553A15.253,15.253,0,0,0,170.32,241.65V502.51a15.253,15.253,0,0,0,15.233,15.233H859.6a15.253,15.253,0,0,0,15.233-15.233V241.65A15.253,15.253,0,0,0,859.6,226.417Z" transform="translate(-166.406 -222.502)" fill="#fff"/>
      <path id="Path_866" data-name="Path 866" d="M874.833,264.757V498.4A15.253,15.253,0,0,1,859.6,513.631H185.553A15.253,15.253,0,0,1,170.32,498.4V473.074c2.627-10.8,13.072-20.193,24.458-22.849,15.281-3.561,31.113,1.419,46.041,6.274s30.837,9.692,46.05,5.846c44.156-11.129,49.2-82.666,93.158-94.519,25.743-6.94,51.049,10.72,71.87,27.381s46.041,34.378,71.823,27.571c18.879-4.989,31.769-21.773,44.565-36.52s29.59-29.437,49.04-27.733c20.364,1.78,35.178,20.888,54.981,25.953,26.039,6.645,51.782-12.824,67.157-34.864s25.581-48.164,45.517-66.167C808.789,261.939,843.6,256.56,874.833,264.757Z" transform="translate(-166.406 -218.391)" fill="#af0505"/>
      <path id="Path_867" data-name="Path 867" d="M1180.632,676.409H843.317c-1.172,0-2.122-.382-2.122-.854s.95-.854,2.122-.854h337.314c1.172,0,2.122.382,2.122.854S1181.8,676.409,1180.632,676.409Z" transform="translate(-214.08 -85.018)" fill="#3f3d56"/>
      <g id="Group_29" data-name="Group 29" transform="translate(669.244 59.498)">
        <path id="Path_673" data-name="Path 673" d="M638.225,533.3a12.864,12.864,0,0,1,8.6-1.366L692.874,488.9l-7.644-38.373,30.236,1.64,2.7,46.576-60.925,47.447a12.913,12.913,0,1,1-19.02-12.888Z" transform="translate(-528.59 -345.932)" fill="#ffb8b8"/>
        <path id="Path_674" data-name="Path 674" d="M340.927,547.416h-19.8l-9.417-76.358H340.93Z" transform="translate(-282.142 -36.11)" fill="#ffb6b6"/>
        <path id="Path_675" data-name="Path 675" d="M631.606,724.052l-63.833,0v-.807A24.846,24.846,0,0,1,592.616,698.4h38.99Z" transform="translate(-567.773 -193.557)" fill="#2f2e41"/>
        <path id="Path_676" data-name="Path 676" d="M432.927,547.416h-19.8l-9.417-76.358H432.93Z" transform="translate(-225.585 -36.11)" fill="#ffb6b6"/>
        <path id="Path_677" data-name="Path 677" d="M723.606,724.052l-63.832,0v-.807A24.846,24.846,0,0,1,684.617,698.4h38.99Z" transform="translate(-511.216 -193.557)" fill="#2f2e41"/>
        <path id="Path_679" data-name="Path 679" d="M727.707,511.609a32.858,32.858,0,0,0-5.8-3.481l-72.364,11.133,1.59,45.327c-35,66.063-58.145,141.429-70.774,225.046l45.327,10.338C645.964,721.4,669,650.893,698.046,597.988L728.663,798.06l52.085-1.27C773.888,679.175,768.6,542.06,727.707,511.609Z" transform="translate(-560.039 -310.524)" fill="#2f2e41"/>
        <ellipse id="Ellipse_79" data-name="Ellipse 79" cx="28.206" cy="28.206" rx="28.206" ry="28.206" transform="translate(85.45 14.198)" fill="#ffb8b8"/>
        <path id="Path_680" data-name="Path 680" d="M710.245,471.727a36.623,36.623,0,0,0-20.18-38.947h0l-31.808,1.591h0a35.162,35.162,0,0,0-23.452,20.068c-13.787,32.268-15.751,73.524-9.947,120.685L700.2,557.2C689.867,533.937,698.173,503.553,710.245,471.727Z" transform="translate(-534.566 -356.844)" fill="#af0505"/>
        <path id="Path_681" data-name="Path 681" d="M616.5,421.278h0a29.065,29.065,0,0,1,29.065-29.065h1.667a29.72,29.72,0,0,1,18.517-6.459h0a29.873,29.873,0,0,1,29.873,29.873v37.947c-19.315-.481-41.19,3.326-64.59,9.688,5.9-16.338,9.818-31.357,7.14-41.984Z" transform="translate(-537.818 -385.754)" fill="#2f2e41"/>
        <path id="Path_682" data-name="Path 682" d="M584.419,507.79a12.864,12.864,0,0,1,8.2,2.934l61.066-15.611,11.736-37.326,25.728,15.968L671.134,515.9,594.9,528.233a12.913,12.913,0,1,1-10.486-20.442Z" transform="translate(-565.482 -341.471)" fill="#ffb8b8"/>
        <path id="Path_683" data-name="Path 683" d="M670.43,458.688a16.133,16.133,0,0,0-8.515-19.187h0a16.133,16.133,0,0,0-20.121,5.258l-16.53,23.412,35.173,23.918Z" transform="translate(-532.43 -353.679)" fill="#af0505"/>
      </g>
    </g>
    <g id="undraw_search_re_x5gq_1_" data-name="undraw_search_re_x5gq (1)" transform="translate(189.813 587.216)">
      <path id="Path_847" data-name="Path 847" d="M644.364,277.907H296.41a17.878,17.878,0,0,1-17.858-17.858V243.815a17.878,17.878,0,0,1,17.858-17.858H644.364a17.878,17.878,0,0,1,17.858,17.858v16.234A17.878,17.878,0,0,1,644.364,277.907ZM296.41,227.039a16.8,16.8,0,0,0-16.775,16.775v16.234a16.8,16.8,0,0,0,16.775,16.775H644.364a16.8,16.8,0,0,0,16.775-16.775V243.815a16.794,16.794,0,0,0-16.775-16.776Z" transform="translate(-278.552 -225.957)" fill="#3f3d56"/>
      <rect id="Rectangle_103" data-name="Rectangle 103" width="251.632" height="20.563" rx="10.282" transform="translate(34.092 15.693)" fill="#e6e6e6"/>
      <rect id="Rectangle_104" data-name="Rectangle 104" width="251.632" height="20.563" rx="10.282" transform="translate(64.396 105.87)" fill="#af0505"/>
      <rect id="Rectangle_105" data-name="Rectangle 105" width="251.632" height="20.563" rx="10.282" transform="translate(64.396 171.252)" fill="#e6e6e6"/>
      <rect id="Rectangle_106" data-name="Rectangle 106" width="251.632" height="20.563" rx="10.282" transform="translate(64.396 236.634)" fill="#e6e6e6"/>
      <path id="Path_848" data-name="Path 848" d="M856.9,282.226a1.62,1.62,0,0,1-2.256.4l-8.835-6.148a1.619,1.619,0,1,1,1.858-2.653l8.835,6.148A1.619,1.619,0,0,1,856.9,282.226Z" transform="translate(-507.056 -245.144)" fill="#af0505"/>
      <path id="Path_849" data-name="Path 849" d="M833.918,264.171a11.5,11.5,0,1,1-2.823-16.011A11.5,11.5,0,0,1,833.918,264.171Zm-16.48-11.539a8.622,8.622,0,1,0,12.008-2.118,8.622,8.622,0,0,0-12.008,2.118Z" transform="translate(-494.103 -234.073)" fill="#af0505"/>
      <path id="Path_850" data-name="Path 850" d="M652.824,453.558H324.891a.541.541,0,0,1,0-1.082H652.824a.541.541,0,1,1,0,1.082Z" transform="translate(-297.023 -317.314)" fill="#3f3d56"/>
      <path id="Path_851" data-name="Path 851" d="M652.824,563.178H324.891a.541.541,0,1,1,0-1.082H652.824a.541.541,0,1,1,0,1.082Z" transform="translate(-297.023 -361.526)" fill="#3f3d56"/>
      <path id="Path_852" data-name="Path 852" d="M652.824,672.8H324.891a.541.541,0,1,1,0-1.082H652.824a.541.541,0,1,1,0,1.082Z" transform="translate(-297.023 -405.736)" fill="#3f3d56"/>
    </g>
  </g>
</svg>
