<svg xmlns="http://www.w3.org/2000/svg" xmlns:xlink="http://www.w3.org/1999/xlink" width="1080" height="1080" viewBox="0 0 1080 1080">
  <defs>
    <clipPath id="clip-Audience_Persona_2">
      <rect width="1080" height="1080"/>
    </clipPath>
  </defs>
  <g id="Audience_Persona_2" data-name="Audience Persona – 2" clip-path="url(#clip-Audience_Persona_2)">
    <rect width="1080" height="1080" fill="#fff"/>
    <g id="Group_18" data-name="Group 18" transform="translate(2.881 0.63)">
      <path id="Path_699" data-name="Path 699" d="M235.211,612.2C-206.147,202.5,54.384,21.786,358.785,1.612S731.8,154.4,700.9,307.051,676.567,1021.91,235.211,612.2Z" transform="matrix(0.087, -0.996, 0.996, 0.087, 184.551, 900.561)" fill="#fedf03" opacity="0.2"/>
      <g id="undraw_asset_selection_re_k5fj" transform="translate(55.603 148.37)">
        <path id="Path_652" data-name="Path 652" d="M921.894,612.522a318.146,318.146,0,0,1-14.861,87.946c-.207.661-.424,1.311-.641,1.972H850.929c.059-.592.119-1.253.178-1.972,3.7-42.514,25.019-301.262-.473-345.512C852.863,358.544,926.193,477.437,921.894,612.522Z" transform="translate(-1.428 -103.108)" fill="#e6e6e6"/>
        <path id="Path_653" data-name="Path 653" d="M910,649.737c-.464.661-.947,1.321-1.44,1.972H866.955c.315-.562.68-1.223,1.1-1.972,6.873-12.406,27.218-49.5,46.1-87.946,20.3-41.32,38.914-84.209,37.346-99.731C951.992,465.561,966.034,572.284,910,649.737Z" transform="translate(6.302 -52.378)" fill="#f0f0f0"/>
        <path id="Path_654" data-name="Path 654" d="M372.33,240.955c-25.492,44.249-4.171,303-.473,345.512.059.72.118,1.381.178,1.972H316.571c-.217-.661-.434-1.312-.641-1.972a318.149,318.149,0,0,1-14.861-87.946C296.77,363.437,370.1,244.545,372.33,240.955Z" transform="translate(-261.815 -157.105)" fill="#f0f0f0"/>
        <path id="Path_655" data-name="Path 655" d="M276.281,348.061c-1.568,15.522,17.051,58.411,37.346,99.731,18.885,38.451,39.23,75.54,46.1,87.946.424.749.789,1.41,1.1,1.972H319.229c-.493-.651-.976-1.312-1.44-1.972C261.756,458.284,275.8,351.561,276.281,348.061Z" transform="translate(-274.373 -106.374)" fill="#f0f0f0"/>
        <path id="Path_656" data-name="Path 656" d="M1220.092,217.915h-930.5a1.351,1.351,0,1,1,0-2.7h930.5a1.351,1.351,0,1,1,0,2.7Z" transform="translate(-267.804 -169.297)" fill="#cacaca"/>
        <ellipse id="Ellipse_74" data-name="Ellipse 74" cx="14.856" cy="14.856" rx="14.856" ry="14.856" transform="translate(37.329 0)" fill="#3f3d56"/>
        <ellipse id="Ellipse_75" data-name="Ellipse 75" cx="14.856" cy="14.856" rx="14.856" ry="14.856" transform="translate(88.648 0)" fill="#3f3d56"/>
        <ellipse id="Ellipse_76" data-name="Ellipse 76" cx="14.856" cy="14.856" rx="14.856" ry="14.856" transform="translate(139.967 0)" fill="#3f3d56"/>
        <path id="Path_657" data-name="Path 657" d="M912.306,191.957H875.843a2.7,2.7,0,1,1,0-5.4h36.464a2.7,2.7,0,1,1,0,5.4Z" transform="translate(9.233 -182.871)" fill="#3f3d56"/>
        <path id="Path_658" data-name="Path 658" d="M912.306,198.831H875.843a2.7,2.7,0,1,1,0-5.4h36.464a2.7,2.7,0,1,1,0,5.4Z" transform="translate(9.233 -179.615)" fill="#3f3d56"/>
        <path id="Path_659" data-name="Path 659" d="M912.306,205.7H875.843a2.7,2.7,0,1,1,0-5.4h36.464a2.7,2.7,0,1,1,0,5.4Z" transform="translate(9.233 -176.36)" fill="#3f3d56"/>
        <path id="Path_660" data-name="Path 660" d="M1004.331,743.417H653.6A10.327,10.327,0,0,1,643.287,733.1V276.271A10.327,10.327,0,0,1,653.6,265.955h350.728a10.327,10.327,0,0,1,10.316,10.316V733.1a10.327,10.327,0,0,1-10.315,10.316ZM653.6,268.9a7.377,7.377,0,0,0-7.368,7.368V733.1a7.377,7.377,0,0,0,7.368,7.368h350.728a7.377,7.377,0,0,0,7.368-7.368V276.271a7.377,7.377,0,0,0-7.368-7.368Z" transform="translate(-99.637 -145.263)" fill="#e6e6e6"/>
        <path id="Path_661" data-name="Path 661" d="M866.654,445.8H717.815A10.328,10.328,0,0,1,707.5,435.488V319.07a10.327,10.327,0,0,1,10.315-10.316H866.654A10.327,10.327,0,0,1,876.97,319.07V435.488A10.328,10.328,0,0,1,866.654,445.8Z" transform="translate(-69.223 -124.992)" fill="#e6e6e6"/>
        <path id="Path_662" data-name="Path 662" d="M866.441,578H717.6a10.328,10.328,0,0,1-10.316-10.316V451.27A10.328,10.328,0,0,1,717.6,440.955H866.441a10.328,10.328,0,0,1,10.316,10.315V567.689A10.328,10.328,0,0,1,866.441,578ZM717.6,443.9a7.377,7.377,0,0,0-7.368,7.368V567.689a7.377,7.377,0,0,0,7.368,7.368H866.441a7.377,7.377,0,0,0,7.368-7.368V451.27a7.377,7.377,0,0,0-7.368-7.368Z" transform="translate(-69.324 -62.375)" fill="#3f3d56"/>
        <path id="Path_663" data-name="Path 663" d="M894.441,600H745.6a10.328,10.328,0,0,1-10.316-10.316V473.271A10.328,10.328,0,0,1,745.6,462.955H894.441a10.328,10.328,0,0,1,10.316,10.316V589.689A10.328,10.328,0,0,1,894.441,600Z" transform="translate(-56.062 -51.955)" fill="#af0505"/>
        <path id="Path_664" data-name="Path 664" d="M828.225,552.91H753.5a1.514,1.514,0,0,1-.279-.022l35.34-61.213a2.474,2.474,0,0,1,4.307,0l23.716,41.079,1.136,1.966Z" transform="translate(-47.566 -38.947)" fill="#fff"/>
        <path id="Path_665" data-name="Path 665" d="M537.944,355.248h-25.51l12.523-18.191.9-1.31.45-.656,1.136,1.966Z" transform="translate(242.714 158.715)" opacity="0.2"/>
        <path id="Path_666" data-name="Path 666" d="M853.123,547.111H788.495l12.524-18.191.9-1.31L818.239,503.9a3.3,3.3,0,0,1,4.9-.293,2.961,2.961,0,0,1,.235.293Z" transform="translate(-30.86 -33.149)" fill="#fff"/>
        <ellipse id="Ellipse_77" data-name="Ellipse 77" cx="11.069" cy="11.069" rx="11.069" ry="11.069" transform="translate(808.167 430.35)" fill="#fff"/>
        <path id="Path_667" data-name="Path 667" d="M662.965,633.913H312.237A10.328,10.328,0,0,1,301.921,623.6V507.179a10.327,10.327,0,0,1,10.316-10.315H662.965a10.328,10.328,0,0,1,10.316,10.315V623.6A10.328,10.328,0,0,1,662.965,633.913Z" transform="translate(-261.325 -35.894)" fill="#e6e6e6"/>
        <path id="Path_668" data-name="Path 668" d="M661.965,574.909H311.237a10.328,10.328,0,0,1-10.316-10.316V280.18a10.327,10.327,0,0,1,10.316-10.316H661.965a10.328,10.328,0,0,1,10.315,10.315V564.594a10.328,10.328,0,0,1-10.316,10.316Zm-350.728-302.1a7.377,7.377,0,0,0-7.368,7.368V564.594a7.377,7.377,0,0,0,7.368,7.368H661.965a7.377,7.377,0,0,0,7.368-7.368V280.18a7.377,7.377,0,0,0-7.368-7.368Z" transform="translate(-261.799 -143.412)" fill="#3f3d56"/>
        <path id="Path_669" data-name="Path 669" d="M700.965,609.909H350.237a10.328,10.328,0,0,1-10.316-10.315V315.18a10.328,10.328,0,0,1,10.316-10.316H700.965a10.328,10.328,0,0,1,10.316,10.315V599.594a10.328,10.328,0,0,1-10.316,10.316Z" transform="translate(-243.326 -126.834)" fill="#af0505"/>
        <path id="Path_670" data-name="Path 670" d="M550.84,512.5H371.784a3.65,3.65,0,0,1-.669-.053L455.8,365.755a5.929,5.929,0,0,1,10.322,0l56.834,98.439,2.723,4.71Z" transform="translate(-228.551 -99.419)" fill="#fff"/>
        <path id="Path_671" data-name="Path 671" d="M238.35,295.834H177.216l30.011-43.592,2.16-3.14,1.08-1.569,2.723,4.71Z" transform="translate(83.938 117.243)" opacity="0.2"/>
        <path id="Path_672" data-name="Path 672" d="M610.505,498.6H455.635l30.01-43.591,2.16-3.14,39.107-56.808a7.913,7.913,0,0,1,11.746-.7,7.071,7.071,0,0,1,.563.7Z" transform="translate(-188.519 -85.525)" fill="#fff"/>
        <ellipse id="Ellipse_78" data-name="Ellipse 78" cx="26.526" cy="26.526" rx="26.526" ry="26.526" transform="translate(384.84 209.713)" fill="#fff"/>
        <path id="Path_678" data-name="Path 678" d="M682.261,438.332a14.723,14.723,0,0,0-18.8-3.671h0a14.723,14.723,0,0,0-6.594,17.8l8.859,24.608,36.286-13.789Z" transform="translate(-93.62 -66.263)" fill="#af0505"/>
        <g id="Group_28" data-name="Group 28" transform="translate(432.369 297.233)">
          <path id="Path_673" data-name="Path 673" d="M637.638,526.072a11.74,11.74,0,0,1,7.846-1.246l42.028-39.274-6.976-35.02,27.594,1.5,2.467,42.506-55.6,43.3a11.785,11.785,0,1,1-17.358-11.762Z" transform="translate(-537.584 -355.072)" fill="#ffb8b8"/>
          <path id="Path_674" data-name="Path 674" d="M338.374,540.744H320.307l-8.594-69.686h26.664Z" transform="translate(-284.726 -74.117)" fill="#ffb6b6"/>
          <path id="Path_675" data-name="Path 675" d="M626.028,721.81l-58.255,0v-.737A22.675,22.675,0,0,1,590.446,698.4h35.583Z" transform="translate(-567.773 -237.671)" fill="#2f2e41"/>
          <path id="Path_676" data-name="Path 676" d="M430.374,540.744H412.307l-8.594-69.686h26.664Z" transform="translate(-241.15 -74.117)" fill="#ffb6b6"/>
          <path id="Path_677" data-name="Path 677" d="M718.028,721.81l-58.255,0v-.737A22.675,22.675,0,0,1,682.446,698.4h35.583Z" transform="translate(-524.197 -237.671)" fill="#2f2e41"/>
          <path id="Path_679" data-name="Path 679" d="M714.83,511.305a29.982,29.982,0,0,0-5.3-3.177l-66.041,10.16,1.451,41.366c-31.942,60.29-53.064,129.07-64.59,205.381l41.366,9.434c18.51-71.706,39.533-136.052,66.041-184.334L715.7,772.725l47.534-1.159C756.977,664.229,752.146,539.1,714.83,511.305Z" transform="translate(-561.814 -327.792)" fill="#2f2e41"/>
          <ellipse id="Ellipse_79" data-name="Ellipse 79" cx="25.741" cy="25.741" rx="25.741" ry="25.741" transform="translate(77.983 12.957)" fill="#ffb8b8"/>
          <path id="Path_680" data-name="Path 680" d="M702.516,468.324A33.423,33.423,0,0,0,684.1,432.781h0l-29.029,1.452h0a32.089,32.089,0,0,0-21.4,18.315c-12.583,29.448-14.375,67.1-9.078,110.139l68.758-16.356C683.918,525.1,691.5,497.368,702.516,468.324Z" transform="translate(-542.188 -363.48)" fill="#af0505"/>
          <path id="Path_681" data-name="Path 681" d="M616.5,418.174h0a26.526,26.526,0,0,1,26.526-26.526h1.521a27.123,27.123,0,0,1,16.9-5.895h0a27.263,27.263,0,0,1,27.263,27.262v34.631c-17.627-.439-37.591,3.035-58.946,8.842,5.383-14.91,8.96-28.617,6.516-38.315Z" transform="translate(-544.694 -385.754)" fill="#2f2e41"/>
          <path id="Path_682" data-name="Path 682" d="M583.29,503.421a11.74,11.74,0,0,1,7.48,2.678l55.73-14.246,10.711-34.064,23.48,14.572-18.262,38.462L592.86,522.077a11.785,11.785,0,1,1-9.57-18.656Z" transform="translate(-566.008 -351.635)" fill="#ffb8b8"/>
          <path id="Path_683" data-name="Path 683" d="M666.483,456.874a14.723,14.723,0,0,0-7.771-17.511h0a14.723,14.723,0,0,0-18.362,4.8l-15.086,21.366,32.1,21.828Z" transform="translate(-540.542 -361.041)" fill="#af0505"/>
        </g>
        <path id="Path_684" data-name="Path 684" d="M866.783,717.073h-360a1.755,1.755,0,0,1,0-3.509h360a1.755,1.755,0,1,1,0,3.509Z" transform="translate(-165.125 66.745)" fill="#cacaca"/>
      </g>
    </g>
  </g>
</svg>
