<svg xmlns="http://www.w3.org/2000/svg" xmlns:xlink="http://www.w3.org/1999/xlink" width="1080" height="1080" viewBox="0 0 1080 1080">
  <defs>
    <clipPath id="clip-Audience_Persona_1">
      <rect width="1080" height="1080"/>
    </clipPath>
  </defs>
  <g id="Audience_Persona_1" data-name="Audience Persona – 1" clip-path="url(#clip-Audience_Persona_1)">
    <rect width="1080" height="1080" fill="#fff"/>
    <path id="Path_481" data-name="Path 481" d="M5238.486-36.287c-417.394-387.46-171.008-558.36,116.865-577.439s352.759,144.495,323.542,288.855S5655.879,351.173,5238.486-36.287Z" transform="matrix(0.087, -0.996, 0.996, 0.087, 374.874, 5891.303)" fill="#fedf03" opacity="0.2"/>
    <g id="Group_11" data-name="Group 11" transform="translate(-7042.808 117.055)">
      <path id="Path_452" data-name="Path 452" d="M655.944,297.845H593.319c-2.784-5.183-6.992-9.6,0-20.017a26.683,26.683,0,0,1,25.731-26.666h0c13.546-4.049,23.3,4.173,25.954,17.343Z" transform="translate(7223.252 76.62)" fill="#2f2e41"/>
      <path id="Path_453" data-name="Path 453" d="M515.447,323.095a7.836,7.836,0,0,1,6.66,10l48.6,40.423-13.5,5.2-45.389-40.405a7.879,7.879,0,0,1,3.631-15.22Z" transform="translate(7239.582 62.246)" fill="#ffb6b6"/>
      <path id="Path_454" data-name="Path 454" d="M574.2,394.5c-10.77,0-52.788-44.027-54.621-45.955l-.466-.49,15.554-4.161,37.314,27.055,13.6-23.02A14.283,14.283,0,1,1,607.8,365.47l-25.727,24.836a17.063,17.063,0,0,1-7.02,4.08A3.03,3.03,0,0,1,574.2,394.5Z" transform="translate(7237.125 58.723)" fill="#af0505"/>
      <path id="Path_455" data-name="Path 455" d="M301.593,253.5l5.219,19.671,43.355,9.6-2.81-10,8.082-8.607-8.885-14.677Z" transform="translate(7510.563 193.626)" fill="#ffb8b8"/>
      <path id="Path_456" data-name="Path 456" d="M293.747,580.656h-8.47l-4.031-32.672h12.5Z" transform="translate(7514.573 134.786)" fill="#ffb8b8"/>
      <path id="Path_457" data-name="Path 457" d="M582.265,747.308H576.19l-1.084-5.735-2.777,5.735H556.218a3.622,3.622,0,0,1-2.058-6.6l12.866-8.886v-5.8l13.533.808Z" transform="translate(7230.526 -17.19)" fill="#2f2e41"/>
      <path id="Path_458" data-name="Path 458" d="M423.227,572.262l-7.871,3.133-15.829-28.864,11.615-4.624Z" transform="translate(7491.257 135.984)" fill="#ffb8b8"/>
      <path id="Path_459" data-name="Path 459" d="M720.985,735.7l-5.644,2.247-3.128-4.927-.459,6.355-14.969,5.958a3.622,3.622,0,0,1-4.354-5.373l8.668-13.014-2.144-5.387,12.872-4.255Z" transform="translate(7203.081 -15.471)" fill="#2f2e41"/>
      <path id="Path_460" data-name="Path 460" d="M640.4,395.673l-.8-.7c-.237-.2-24-20.252-53.642-1.534l-.961.606-6.07-26.709a17,17,0,0,1,5.72-16.9l21.4-17.8,7.505-3.753-.953-6.194a5.39,5.39,0,0,1,3.42-5.842l11.661-4.373a5.343,5.343,0,0,1,6.845,2.976l1.236,2.99,2.646-.931a12.951,12.951,0,0,1,9.943.445A12.317,12.317,0,0,1,654.8,325.6a65.9,65.9,0,0,1-3.43,46.453Z" transform="translate(7225.42 64.399)" fill="#af0505"/>
      <path id="Path_461" data-name="Path 461" d="M583.749,657.793H566.228l4.842-82.318-3.54-55.8.007-.045,13.2-79.983a33.778,33.778,0,0,1,8.093-16.966l.161-.181,44.185,10.913,4.443,10.13c15.169,9.022,19.96,59.9,20.157,62.066l6.422,63.423,15.709,77.731-11.063,5.957-.185-.369L633.737,582.9,611.68,509.665l-14.125,65.916Z" transform="translate(7227.838 42.64)" fill="#2f2e41"/>
      <path id="Path_462" data-name="Path 462" d="M673.28,480.618a7.836,7.836,0,0,1,1.09-11.967L661.893,406.68l13.779,4.424,9.987,59.942a7.879,7.879,0,0,1-12.378,9.572Z" transform="translate(7208.981 45.759)" fill="#ffb6b6"/>
      <path id="Path_463" data-name="Path 463" d="M651.673,333.88l8.549-6.453s7.541-.534,8.877,13.066,4.078,40.1,4.078,40.1l13.081,60.588-18.108,3.975-14.011-65.385-8.405-19.417Z" transform="translate(7212.167 61.382)" fill="#af0505"/>
      <circle id="Ellipse_42" data-name="Ellipse 42" cx="20.856" cy="20.856" r="20.856" transform="translate(7817.412 332.038)" fill="#ffb8b8"/>
      <path id="Path_464" data-name="Path 464" d="M627.075,256.117a19.2,19.2,0,0,0-13.534-5.556h-4.014a19.269,19.269,0,0,0-19.269,19.269h0c3.506,3.039,20.48,2.415,30.509,1.606-.719,10.448-9.595,20.715-7.226,26.5h40.144v-4.014C657.122,276.277,644.289,261.564,627.075,256.117Z" transform="translate(7223.102 76.534)" fill="#2f2e41"/>
    </g>
    <g id="undraw_content_creator_re_pt5b" transform="translate(135.725 245.895)">
      <path id="Path_403" data-name="Path 403" d="M882.612,512.393H597.791a3.762,3.762,0,0,1-3.758-3.758V195.258a3.762,3.762,0,0,1,3.758-3.758H882.612a3.762,3.762,0,0,1,3.757,3.758V508.636A3.762,3.762,0,0,1,882.612,512.393ZM597.791,193a2.257,2.257,0,0,0-2.254,2.255V508.636a2.257,2.257,0,0,0,2.254,2.255H882.612a2.257,2.257,0,0,0,2.255-2.255V195.258A2.257,2.257,0,0,0,882.612,193Z" transform="translate(-310.665 -191.5)" fill="#3f3d56"/>
      <path id="Path_404" data-name="Path 404" d="M737.932,324.657H667.291a3.762,3.762,0,0,1-3.758-3.758V250.258a3.762,3.762,0,0,1,3.758-3.757h70.641a3.762,3.762,0,0,1,3.758,3.758V320.9A3.762,3.762,0,0,1,737.932,324.657ZM667.291,248a2.257,2.257,0,0,0-2.254,2.255V320.9a2.257,2.257,0,0,0,2.255,2.255h70.641a2.257,2.257,0,0,0,2.255-2.255V250.258A2.257,2.257,0,0,0,737.932,248Z" transform="translate(-327.935 -205.167)" fill="#f2f2f2"/>
      <path id="Path_405" data-name="Path 405" d="M711.057,336.405H640.415a3.386,3.386,0,0,1-3.382-3.382V262.382A3.386,3.386,0,0,1,640.415,259h70.642a3.386,3.386,0,0,1,3.382,3.382v70.642a3.386,3.386,0,0,1-3.382,3.382Z" transform="translate(-321.35 -208.273)" fill="#af0505"/>
      <path id="Path_406" data-name="Path 406" d="M861.358,405.764H640.415a3.382,3.382,0,1,1,0-6.764H861.358a3.382,3.382,0,1,1,0,6.764Z" transform="translate(-321.35 -243.062)" fill="#ccc"/>
      <path id="Path_407" data-name="Path 407" d="M808,436.764H640.415a3.382,3.382,0,1,1,0-6.764H808a3.382,3.382,0,1,1,0,6.764Z" transform="translate(-321.35 -250.766)" fill="#ccc"/>
      <path id="Path_408" data-name="Path 408" d="M901.111,291.764h-97.7a3.382,3.382,0,1,1,0-6.764h97.7a3.382,3.382,0,1,1,0,6.764Z" transform="translate(-361.855 -214.734)" fill="#ccc"/>
      <path id="Path_409" data-name="Path 409" d="M876.73,322.764H803.416a3.382,3.382,0,1,1,0-6.764H876.73a3.382,3.382,0,0,1,0,6.764Z" transform="translate(-361.855 -222.438)" fill="#ccc"/>
      <path id="Path_410" data-name="Path 410" d="M861.358,467.764H640.415a3.382,3.382,0,1,1,0-6.764H861.358a3.382,3.382,0,1,1,0,6.764Z" transform="translate(-321.35 -258.469)" fill="#ccc"/>
      <path id="Path_411" data-name="Path 411" d="M808,498.764H640.415a3.382,3.382,0,1,1,0-6.764H808a3.382,3.382,0,1,1,0,6.764Z" transform="translate(-321.35 -266.172)" fill="#ccc"/>
      <path id="Path_412" data-name="Path 412" d="M861.358,529.764H640.415a3.382,3.382,0,1,1,0-6.764H861.358a3.382,3.382,0,1,1,0,6.764Z" transform="translate(-321.35 -273.876)" fill="#ccc"/>
      <path id="Path_413" data-name="Path 413" d="M861.358,560.764H640.415a3.382,3.382,0,1,1,0-6.764H861.358a3.382,3.382,0,1,1,0,6.764Z" transform="translate(-321.35 -281.579)" fill="#ccc"/>
      <path id="Path_414" data-name="Path 414" d="M643.794,544.276H482.221a3.762,3.762,0,0,1-3.758-3.758v-99.95a3.762,3.762,0,0,1,3.758-3.758H643.794a3.762,3.762,0,0,1,3.758,3.758v99.95A3.762,3.762,0,0,1,643.794,544.276Z" transform="translate(-281.947 -252.458)" fill="#fff"/>
      <path id="Path_415" data-name="Path 415" d="M643.794,544.276H482.221a3.762,3.762,0,0,1-3.758-3.758v-99.95a3.762,3.762,0,0,1,3.758-3.758H643.794a3.762,3.762,0,0,1,3.758,3.758v99.95A3.762,3.762,0,0,1,643.794,544.276ZM482.221,438.314a2.257,2.257,0,0,0-2.255,2.254v99.95a2.257,2.257,0,0,0,2.254,2.255H643.794a2.257,2.257,0,0,0,2.254-2.255v-99.95a2.257,2.257,0,0,0-2.254-2.254Z" transform="translate(-281.947 -252.458)" fill="#3f3d56"/>
      <path id="Path_416" data-name="Path 416" d="M622.541,495.075h-97.7a3.382,3.382,0,0,1,0-6.764h97.7a3.382,3.382,0,0,1,0,6.764Z" transform="translate(-292.632 -265.256)" fill="#ccc"/>
      <path id="Path_417" data-name="Path 417" d="M622.541,526.075h-97.7a3.382,3.382,0,0,1,0-6.764h97.7a3.382,3.382,0,0,1,0,6.764Z" transform="translate(-292.632 -272.959)" fill="#ccc"/>
      <path id="Path_418" data-name="Path 418" d="M230.335,493.14h9.213l4.383-35.537h-13.6Z" transform="translate(-57.236 -113.712)" fill="#ffb8b8"/>
      <path id="Path_419" data-name="Path 419" d="M444.174,692.389h18.145a11.563,11.563,0,0,1,11.563,11.562v.376H444.175Z" transform="translate(-273.426 -315.968)" fill="#2f2e41"/>
      <path id="Path_420" data-name="Path 420" d="M134.876,487.966l9.11,1.377,9.646-34.482-11.942-2.032Z" transform="translate(-33.516 -112.525)" fill="#ffb8b8"/>
      <path id="Path_421" data-name="Path 421" d="M348.759,686.659l17.941,2.712h0a11.564,11.564,0,0,1,9.7,13.161l-.056.372-29.374-4.44Z" transform="translate(-249.273 -314.544)" fill="#2f2e41"/>
      <path id="Path_422" data-name="Path 422" d="M389.085,462.043l10.23,2.68-.681,16.585-.084,30.2a6.052,6.052,0,1,1-8.009,1.006L387.4,482.2Z" transform="translate(-259.317 -258.728)" fill="#ffb8b8"/>
      <path id="Path_423" data-name="Path 423" d="M386.915,434.084a8.351,8.351,0,0,1,5.162-7.426,7.807,7.807,0,0,1,8.451,1.359,7.444,7.444,0,0,1,2.481,5.757c.027,9.716-2.166,23.878-2.189,24.02l-.035.225-14.953,5.035Z" transform="translate(-258.929 -249.766)" fill="#af0505"/>
      <path id="Path_424" data-name="Path 424" d="M404.213,471.508l22.87-5.92,10.572,35.6.376,132.641-17.489-.11-7.311-107.356-46.593,99.2-18.788-2.255,40.957-106.338s-2.255-18.788,4.885-28.181l-1.5-9.77Z" transform="translate(-249.49 -259.609)" fill="#2f2e41"/>
      <path id="Path_425" data-name="Path 425" d="M398.5,465.772a3.5,3.5,0,0,1-.748-2.819l-10.432-31.3a7.962,7.962,0,0,1,2.2-8.4l4.529-4.116,3.069-12.276,17.639,4.312-1.453,5.813,7.983-1.451,16.814,37.449-35.146,14.048-1.731.027A3.5,3.5,0,0,1,398.5,465.772Z" transform="translate(-259.196 -245.016)" fill="#af0505"/>
      <path id="Path_426" data-name="Path 426" d="M434.907,449.032l10.078-3.2,8.29,14.381,16.07,25.566a6.052,6.052,0,1,1-6.231,5.132l-18.857-23.934Z" transform="translate(-271.123 -254.699)" fill="#ffb8b8"/>
      <path id="Path_427" data-name="Path 427" d="M419.015,425.851a8.35,8.35,0,0,1,.393-9.035,7.811,7.811,0,0,1,7.869-3.369,7.444,7.444,0,0,1,5.174,3.539c5.216,8.2,10.932,21.339,10.99,21.47l.091.209-9.945,12.248Z" transform="translate(-266.891 -246.623)" fill="#af0505"/>
      <circle id="Ellipse_40" data-name="Ellipse 40" cx="14.015" cy="14.015" r="14.015" transform="translate(136.951 131.532)" fill="#a0616a"/>
      <circle id="Ellipse_41" data-name="Ellipse 41" cx="13.5" cy="13.5" r="13.5" transform="translate(112.699 112.635)" fill="#2f2e41"/>
      <path id="Path_428" data-name="Path 428" d="M367.4,370.044a13.5,13.5,0,0,0,20.847-7.089,13.5,13.5,0,1,1-26.334-5.536A13.5,13.5,0,0,0,367.4,370.044Z" transform="translate(-252.845 -232.73)" fill="#2f2e41"/>
      <path id="Path_429" data-name="Path 429" d="M427.974,370.719c-2.357-4.219-3.258-5.982-6.3-8.547-2.687-2.269-5.992-2.935-8.658-.785a16.058,16.058,0,1,0,9.525,12.85C424.86,373.91,425.656,371.044,427.974,370.719Z" transform="translate(-260.143 -233.39)" fill="#2f2e41"/>
      <path id="Path_430" data-name="Path 430" d="M504.042,708H217.719a.752.752,0,0,1,0-1.5H504.042a.752.752,0,0,1,0,1.5Z" transform="translate(-216.967 -319.474)" fill="#ccc"/>
    </g>
    <g id="Group_10" data-name="Group 10" transform="translate(-23.36 25.65)">
      <path id="Path_465" data-name="Path 465" d="M485.518,264.282c8.082-18.723,14.615-39.941,9.551-60.375-3.963-15.991-15.318-31.322-31.934-35.41a40.188,40.188,0,0,0-44.332,19.91,43.271,43.271,0,0,0-4.705,25.409c1.084,8.692,4.867,18.263,12.834,22.819,7.273,4.159,17.414,3,21.578-4.888,3.5-6.634,2.138-15.158-2.458-20.9-5.607-7-14.682-10.162-23.224-11.724a83.326,83.326,0,0,0-27.2-.484c-17.764,2.633-34.555,11.675-44.713,26.748-9.387,13.93-12.923,32.387-6.677,48.3,6.227,15.866,20.5,27.073,36.279,32.6,19.361,6.778,40.633,4.363,59.99-1.124,5.1-1.445,10.123-3.119,15.1-4.928,1.9-.69,1.078-3.747-.841-3.049-18.862,6.856-39.1,11.973-59.291,9.394-15.593-1.992-30.953-9.361-41.026-21.63a44.818,44.818,0,0,1-9.585-20.795,48.971,48.971,0,0,1,1.96-23.257A56.737,56.737,0,0,1,379.2,206.432a72.82,72.82,0,0,1,24.8-5.453,73.972,73.972,0,0,1,25.116,2.908c7.259,2.249,14.986,6.638,17.388,14.339,1.914,6.136.477,14.308-6.16,16.89a14.022,14.022,0,0,1-11.81-1.214,21.209,21.209,0,0,1-8.232-9.526,39.1,39.1,0,0,1,9.664-44.972,37.476,37.476,0,0,1,22.189-8.78,34.833,34.833,0,0,1,22.107,6.481,45.3,45.3,0,0,1,14.4,18.007c7.9,17.037,5.3,36.447-.5,53.7-1.581,4.7-3.4,9.321-5.369,13.876-.8,1.849,1.925,3.461,2.731,1.6Z" transform="translate(-181.405 -81.785)" fill="#f2f2f2"/>
      <ellipse id="Ellipse_46" data-name="Ellipse 46" cx="32.678" cy="32.678" rx="32.678" ry="32.678" transform="translate(273.706 178.543)" fill="#fff"/>
      <path id="Path_466" data-name="Path 466" d="M511.624,288.411a29.525,29.525,0,0,1-52.357,18.715,29.064,29.064,0,0,1-2.408-3.422,35.09,35.09,0,0,1-2.011-3.9,31.486,31.486,0,0,1-1.451-4.521,24.738,24.738,0,0,1-.7-4.3,29.534,29.534,0,0,1,58.621-7c.066.41.067.428.086.588q.075.631.124,1.265c.067.856.095,1.713.1,2.571.023,4.069,6.347,4.077,6.325,0a35.944,35.944,0,1,0-.507,5.928,39.741,39.741,0,0,0,.507-5.928C517.971,284.34,511.646,284.336,511.624,288.411Z" transform="translate(-175.725 -77.189)" fill="#f2f2f2"/>
      <path id="Path_467" data-name="Path 467" d="M495.206,278.224l0-.008a6.438,6.438,0,0,0,2.806-3.543,12.822,12.822,0,0,1-3.974,1.537,7.2,7.2,0,0,0-5.781-2.873,7.643,7.643,0,0,0-7.642,7.643v.107a17.021,17.021,0,0,1-10.9-6.126,1.222,1.222,0,0,0-1.314-.394,1.1,1.1,0,0,0-.79.511,7.051,7.051,0,0,0-.812,3.883,7.5,7.5,0,0,0,.841,3.461,1.1,1.1,0,0,0-.893,1.08v.083a7.5,7.5,0,0,0,2.554,5.648l-.027.03a1.1,1.1,0,0,0-.224,1.064,7.543,7.543,0,0,0,4.131,4.586,12.469,12.469,0,0,1-6.445.87,1.1,1.1,0,0,0-1.071.524,1.241,1.241,0,0,0-.105.141,1.222,1.222,0,0,0,.369,1.688,19.381,19.381,0,0,0,10.5,3.078c12.627,0,19.491-10.479,19.491-19.489a8.821,8.821,0,0,0-.1-1.3,13.049,13.049,0,0,0,3.049-3.21l0,0a12.855,12.855,0,0,1-3.666,1.008Z" transform="translate(-174.681 -76.055)" fill="#af0505"/>
      <ellipse id="Ellipse_47" data-name="Ellipse 47" cx="32.678" cy="32.678" rx="32.678" ry="32.678" transform="translate(274.76 65.753)" fill="#fff"/>
      <path id="Path_468" data-name="Path 468" d="M512.624,181.411a29.525,29.525,0,0,1-52.357,18.715,29.083,29.083,0,0,1-2.408-3.422,35.1,35.1,0,0,1-2.011-3.9,31.49,31.49,0,0,1-1.451-4.521,24.732,24.732,0,0,1-.7-4.3,29.534,29.534,0,0,1,58.621-7c.066.41.067.428.086.588q.075.631.124,1.265c.067.856.095,1.713.1,2.571.023,4.069,6.347,4.077,6.325,0a35.944,35.944,0,1,0-.507,5.928,39.725,39.725,0,0,0,.507-5.928C518.971,177.34,512.646,177.336,512.624,181.411Z" transform="translate(-175.671 -82.98)" fill="#f2f2f2"/>
      <path id="Path_469" data-name="Path 469" d="M489.118,183.878l1-6.514h-6.243c-.21-5.425-.421-8.467,6.507-7.739v-5.537c-10.376-2.284-14.7,2.975-13.539,13.276h-5.718v6.514h5.718V198.97a15.388,15.388,0,0,0,7.032.045V183.878Z" transform="translate(-174.369 -81.996)" fill="#af0505"/>
      <ellipse id="Ellipse_48" data-name="Ellipse 48" cx="32.678" cy="32.678" rx="32.678" ry="32.678" transform="translate(148.266 181.706)" fill="#fff"/>
      <path id="Path_470" data-name="Path 470" d="M392.624,291.411a29.525,29.525,0,0,1-52.357,18.715,29.077,29.077,0,0,1-2.408-3.422,35.1,35.1,0,0,1-2.011-3.9,31.487,31.487,0,0,1-1.451-4.521,24.732,24.732,0,0,1-.7-4.3,29.534,29.534,0,0,1,58.621-7c.066.41.067.428.086.588q.075.631.124,1.265c.067.856.095,1.713.1,2.571.023,4.069,6.347,4.077,6.325,0a35.943,35.943,0,1,0-.507,5.928,39.746,39.746,0,0,0,.507-5.928C398.971,287.34,392.646,287.336,392.624,291.411Z" transform="translate(-182.165 -77.027)" fill="#f2f2f2"/>
      <path id="Path_471" data-name="Path 471" d="M362.881,306.3c-1.236,0-2.454-.036-3.611-.07-1.4-.042-2.713-.08-3.833-.048a8.783,8.783,0,0,1-6.591-2.471c-3.47-3.577-3.274-10.209-3.116-15.539.041-1.4.08-2.714.048-3.834a8.783,8.783,0,0,1,2.471-6.59c3.577-3.47,10.211-3.272,15.539-3.116,1.4.041,2.714.081,3.833.048h.031a8.762,8.762,0,0,1,6.559,2.472c3.47,3.577,3.274,10.209,3.116,15.539-.041,1.4-.08,2.714-.048,3.834a8.785,8.785,0,0,1-2.471,6.591C372.009,305.83,367.336,306.3,362.881,306.3Z" transform="translate(-181.158 -75.989)" fill="#af0505"/>
      <path id="Path_472" data-name="Path 472" d="M368.358,283.994a1.834,1.834,0,1,1,1.787-1.829A1.834,1.834,0,0,1,368.358,283.994Z" transform="translate(-180.026 -75.677)" fill="#fff"/>
      <path id="Path_473" data-name="Path 473" d="M361.123,297.975a7.951,7.951,0,1,1,7.951-7.951,7.952,7.952,0,0,1-7.951,7.951Zm0-13.795a5.843,5.843,0,1,0,5.843,5.843,5.843,5.843,0,0,0-5.843-5.843Z" transform="translate(-180.752 -75.582)" fill="#fff"/>
    </g>
    <path id="Path_431" data-name="Path 431" d="M819.911,816.722c2.488,9.336,9.027,17.11,16.921,22.773,1.287.927,2.609,1.785,3.947,2.591.412.24.824.5,1.253.721q.7.412,1.39.772h37.12c.669-1.356,1.321-2.729,1.974-4.084,15.909-33.43,27.081-69.5,25.176-106.245a136.016,136.016,0,0,0-8.872-41.616c-10.194-26.548-28.8-49.527-54.384-61.094-.635-.292-1.3-.583-1.956-.858.206.738.412,1.459.618,2.2a190.133,190.133,0,0,1,5.8,30.187c.1.789.189,1.579.258,2.385a199.161,199.161,0,0,1-6.384,73.262c-.017.051-.034.12-.052.172q-2.188,7.9-5.08,15.565c-1.51,4.033-3.141,8.014-4.925,11.927C825.265,781.8,815.277,799.3,819.911,816.722Z" transform="translate(116.108 236.421)" fill="#e6e6e6"/>
    <path id="Path_432" data-name="Path 432" d="M832.387,630.821c.36.481.721.944,1.081,1.424a168.4,168.4,0,0,1,19.083,32.195c.275.566.532,1.133.755,1.716a167.86,167.86,0,0,1,13.42,50.18,2.566,2.566,0,0,1,.034.36c.429,4.05.687,8.134.79,12.219a72.9,72.9,0,0,1-2.454,22.722,40.791,40.791,0,0,1-9.37,16.166c-.429.463-.858.927-1.321,1.373-.343.36-.721.721-1.081,1.064-3.467,3.312-7.259,6.384-10.52,9.936a36.763,36.763,0,0,0-4.033,5.148,25.577,25.577,0,0,0-2.746,20.765c2.334,8.684,7.671,16.012,13.129,23,2.729,3.5,5.543,7.036,7.98,10.777.892,1.339,1.716,2.694,2.471,4.084h2.162c-.721-1.39-1.51-2.746-2.368-4.084-6.264-9.868-15.171-18.345-19.787-29.209-3.123-7.328-4.067-15.634-.12-22.824a30.349,30.349,0,0,1,4.17-5.8c3.141-3.552,6.9-6.59,10.314-9.8.858-.807,1.7-1.63,2.506-2.488a42.84,42.84,0,0,0,9.679-15.274,67.326,67.326,0,0,0,3.329-22.533c0-4.874-.257-9.782-.738-14.656-.052-.618-.12-1.253-.189-1.888a172.93,172.93,0,0,0-33.756-84.485c-.343-.481-.7-.944-1.064-1.407C833,628.539,831.649,629.877,832.387,630.821Z" transform="translate(125.736 236.053)" fill="#fff"/>
    <path id="Path_433" data-name="Path 433" d="M853.461,691.5a25.411,25.411,0,0,0,21.2-25.163.949.949,0,0,0-1.9-.042A23.53,23.53,0,0,1,853,689.658C851.794,689.854,852.264,691.691,853.461,691.5Z" transform="translate(140.146 261.998)" fill="#fff"/>
    <path id="Path_434" data-name="Path 434" d="M855.213,722.837a48.977,48.977,0,0,1-19.792-29.7c-.259-1.193-2.1-.728-1.838.464a50.943,50.943,0,0,0,20.658,30.867c1,.7,1.97-.934.972-1.628Z" transform="translate(126.727 281.363)" fill="#fff"/>
    <path id="Path_435" data-name="Path 435" d="M850.61,650.373a14.383,14.383,0,0,1-13.546-1.667c-.994-.71-1.96.922-.972,1.628a16.118,16.118,0,0,0,14.982,1.878.979.979,0,0,0,.687-1.151.952.952,0,0,0-1.151-.687Z" transform="translate(128.246 249.919)" fill="#fff"/>
    <path id="Path_436" data-name="Path 436" d="M757.278,669.927c.6.463,1.218.927,1.819,1.407A189.4,189.4,0,0,1,781.9,691.927c.549.566,1.1,1.15,1.63,1.733l.017.017A199.664,199.664,0,0,1,822.439,755.7l.052.154c.017.052.034.086.052.137a196.4,196.4,0,0,1,8.632,28.179c2.094,9.37,3.81,19.409,7.087,28.436.5,1.39,1.047,2.763,1.63,4.084h76.3c-.258-1.356-.532-2.729-.807-4.084A275.1,275.1,0,0,0,897.3,754.772c-.275-.618-.549-1.236-.858-1.853a185.872,185.872,0,0,0-14.776-26.343.017.017,0,0,0-.017-.017,162.962,162.962,0,0,0-9.953-13.2,135.764,135.764,0,0,0-32.126-27.87c-.069-.051-.154-.086-.223-.137-24.094-14.947-52.651-22.069-79.954-15.908h-.017C758.668,669.6,757.982,669.755,757.278,669.927Z" transform="translate(72.101 263.31)" fill="#e6e6e6"/>
    <path id="Path_437" data-name="Path 437" d="M757.64,670.133c.584.155,1.167.326,1.733.5a169.187,169.187,0,0,1,34.614,14.193c.549.292,1.1.6,1.648.91a168.62,168.62,0,0,1,40.826,31.9.059.059,0,0,1,.017.035c.137.137.292.292.412.429,2.746,2.952,5.389,6.024,7.894,9.181a73.393,73.393,0,0,1,11.7,19.615,40.627,40.627,0,0,1,2.248,18.551c-.052.635-.138,1.253-.223,1.888-.069.5-.137,1-.223,1.51-1.133,6.882-3.089,13.781-2.54,20.8a25.585,25.585,0,0,0,10.314,18.242,40.847,40.847,0,0,0,6.316,4.016,63.254,63.254,0,0,0,9.9,4.084h6.744c-.909-.257-1.8-.515-2.711-.772a82.69,82.69,0,0,1-9.49-3.312,46.187,46.187,0,0,1-5.148-2.54c-6.9-3.964-12.648-10.039-13.849-18.157-1.047-7.1.978-14.21,2.18-21.16.206-1.2.395-2.385.5-3.57a41.938,41.938,0,0,0-1.459-17.951,67.035,67.035,0,0,0-10.914-20.01,143.042,143.042,0,0,0-9.4-11.241q-.618-.695-1.287-1.39a173.16,173.16,0,0,0-41.548-32.143h-.017a170.389,170.389,0,0,0-36.21-15h-.017c-.566-.172-1.15-.343-1.716-.5C756.748,667.936,756.473,669.807,757.64,670.133Z" transform="translate(71.825 264.013)" fill="#fff"/>
    <path id="Path_438" data-name="Path 438" d="M804.945,711.047a25.411,25.411,0,0,0,1.778-32.856c-.742-.968-2.281.139-1.538,1.108a23.53,23.53,0,0,1-1.716,30.56c-.843.882.639,2.065,1.477,1.188Z" transform="translate(105 270.892)" fill="#fff"/>
    <path id="Path_440" data-name="Path 440" d="M783.969,677.749a14.383,14.383,0,0,1-11.82,6.824c-1.221.032-1.009,1.916.2,1.885a16.118,16.118,0,0,0,13.093-7.521.98.98,0,0,0-.144-1.332A.952.952,0,0,0,783.969,677.749Z" transform="translate(82.166 270.591)" fill="#fff"/>
    <path id="Path_441" data-name="Path 441" d="M459.719,862.895c-4.33,16.244-15.706,29.77-29.442,39.624-2.24,1.612-4.539,3.105-6.868,4.509-.717.418-1.433.866-2.18,1.254q-1.209.717-2.419,1.344H354.224c-1.165-2.359-2.3-4.748-3.434-7.107-27.68-58.167-47.119-120.932-43.8-184.861a236.651,236.651,0,0,1,15.437-72.41c17.737-46.193,50.1-86.175,94.625-106.3,1.1-.508,2.269-1.015,3.4-1.493-.358,1.284-.717,2.538-1.075,3.822A330.8,330.8,0,0,0,409.286,593.8c-.179,1.374-.329,2.747-.448,4.151a346.532,346.532,0,0,0,11.108,127.471c.03.089.06.209.09.3q3.807,13.75,8.839,27.083c2.628,7.017,5.464,13.945,8.57,20.752C450.4,802.13,467.781,832.586,459.719,862.895Z" transform="translate(-250.628 170.375)" fill="#e6e6e6"/>
    <path id="Path_442" data-name="Path 442" d="M400.36,539.437c-.627.836-1.254,1.642-1.881,2.478a293.01,293.01,0,0,0-33.2,56.017c-.478.985-.926,1.971-1.314,2.986a292.073,292.073,0,0,0-23.35,87.31,4.453,4.453,0,0,0-.06.627c-.746,7.047-1.194,14.154-1.373,21.26-.358,13.288.478,26.754,4.27,39.534a70.971,70.971,0,0,0,16.3,28.128c.746.806,1.493,1.612,2.3,2.389.6.627,1.254,1.254,1.881,1.851,6.032,5.763,12.631,11.108,18.3,17.289a63.989,63.989,0,0,1,7.017,8.958c6.957,10.9,8.122,23.768,4.778,36.13-4.061,15.109-13.347,27.859-22.843,40.012-4.748,6.091-9.645,12.242-13.885,18.752-1.553,2.329-2.986,4.688-4.3,7.107H349.24c1.254-2.419,2.628-4.778,4.121-7.107,10.9-17.169,26.4-31.92,34.428-50.821,5.434-12.75,7.077-27.2.209-39.713a52.8,52.8,0,0,0-7.256-10.093c-5.464-6.181-12-11.466-17.946-17.05-1.493-1.4-2.956-2.837-4.36-4.33A74.541,74.541,0,0,1,341.6,754.577c-4.449-12.511-5.793-26.008-5.793-39.206,0-8.48.448-17.02,1.284-25.5.09-1.075.209-2.18.328-3.284a300.885,300.885,0,0,1,58.734-147c.6-.836,1.224-1.642,1.851-2.449C399.286,535.466,401.644,537.795,400.36,539.437Z" transform="translate(-229.729 169.735)" fill="#fff"/>
    <path id="Path_443" data-name="Path 443" d="M352.839,645.01a44.213,44.213,0,0,1-36.889-43.783,1.65,1.65,0,0,1,3.3-.072,40.941,40.941,0,0,0,34.4,40.657C355.74,642.153,354.921,645.349,352.839,645.01Z" transform="translate(-243.946 214.878)" fill="#fff"/>
    <path id="Path_444" data-name="Path 444" d="M349.58,699.54a85.217,85.217,0,0,0,34.437-51.681c.451-2.076,3.649-1.266,3.2.807a88.638,88.638,0,0,1-35.945,53.706c-1.746,1.213-3.428-1.625-1.691-2.832Z" transform="translate(-220.386 248.572)" fill="#fff"/>
    <path id="Path_445" data-name="Path 445" d="M353.253,573.457a25.027,25.027,0,0,0,23.57-2.9c1.73-1.235,3.41,1.605,1.691,2.832a28.045,28.045,0,0,1-26.067,3.268,1.7,1.7,0,0,1-1.2-2,1.657,1.657,0,0,1,2-1.2Z" transform="translate(-218.694 193.861)" fill="#fff"/>
    <path id="Path_446" data-name="Path 446" d="M619.333,607.48c-1.045.806-2.12,1.612-3.165,2.448a329.553,329.553,0,0,0-39.683,35.832c-.956.985-1.911,2-2.837,3.016l-.03.03a347.407,347.407,0,0,0-67.662,107.913l-.09.269c-.03.09-.06.149-.089.239a341.735,341.735,0,0,0-15.02,49.03c-3.643,16.3-6.629,33.771-12.332,49.478-.866,2.419-1.821,4.807-2.837,7.106H342.832c.448-2.359.926-4.748,1.4-7.106,7.106-34.607,17.08-68.737,31.472-100.627.478-1.075.956-2.15,1.493-3.225a323.414,323.414,0,0,1,25.709-45.835.029.029,0,0,1,.008-.021.03.03,0,0,1,.021-.009,283.533,283.533,0,0,1,17.319-22.962,236.242,236.242,0,0,1,55.9-48.493c.119-.089.269-.149.388-.239,41.923-26.008,91.609-38.4,139.116-27.68h.03C616.915,606.912,618.109,607.181,619.333,607.48Z" transform="translate(-224.695 217.16)" fill="#e6e6e6"/>
    <path id="Path_447" data-name="Path 447" d="M599.259,607.839c-1.015.269-2.03.567-3.016.866A294.394,294.394,0,0,0,536.017,633.4c-.956.508-1.911,1.045-2.867,1.583a293.384,293.384,0,0,0-71.036,55.509.1.1,0,0,0-.03.06c-.239.239-.508.508-.717.747-4.777,5.136-9.376,10.481-13.735,15.975-8.241,10.391-15.706,21.648-20.364,34.13a70.688,70.688,0,0,0-3.912,32.278c.089,1.1.239,2.18.388,3.285.119.866.239,1.732.388,2.627,1.971,11.974,5.375,23.977,4.419,36.19-1.015,12.9-7.823,23.888-17.946,31.741a71.049,71.049,0,0,1-10.988,6.987,110.037,110.037,0,0,1-17.229,7.107H370.654c1.583-.448,3.135-.9,4.718-1.344a143.967,143.967,0,0,0,16.512-5.763,80.343,80.343,0,0,0,8.958-4.419c12-6.9,22.007-17.468,24.1-31.592,1.822-12.362-1.7-24.724-3.792-36.817-.358-2.09-.687-4.15-.866-6.211a72.973,72.973,0,0,1,2.538-31.233c3.971-12.69,11.018-24.246,18.991-34.816a248.885,248.885,0,0,1,16.363-19.558q1.075-1.209,2.239-2.419a301.289,301.289,0,0,1,72.29-55.927h.03a296.469,296.469,0,0,1,63-26.1h.03c.985-.3,2-.6,2.986-.866C600.813,604.017,601.291,607.271,599.259,607.839Z" transform="translate(-204.771 218.383)" fill="#fff"/>
    <path id="Path_448" data-name="Path 448" d="M427.324,679.026a44.213,44.213,0,0,1-3.094-57.168c1.29-1.685,3.969.241,2.677,1.928a40.94,40.94,0,0,0,2.987,53.172c1.467,1.534-1.111,3.593-2.57,2.068Z" transform="translate(-172.863 230.352)" fill="#fff"/>
    <path id="Path_449" data-name="Path 449" d="M401.5,711.8a85.218,85.218,0,0,0,58.612-20.531c1.61-1.386,3.676,1.186,2.068,2.57a88.639,88.639,0,0,1-61.035,21.24c-2.125-.083-1.758-3.361.355-3.279Z" transform="translate(-183.952 280.242)" fill="#fff"/>
    <path id="Path_450" data-name="Path 450" d="M467.9,621.09a25.027,25.027,0,0,0,20.566,11.874c2.125.056,1.756,3.334-.355,3.279a28.045,28.045,0,0,1-22.78-13.085,1.7,1.7,0,0,1,.251-2.318,1.658,1.658,0,0,1,2.318.251Z" transform="translate(-137.215 229.83)" fill="#fff"/>
    <circle id="Ellipse_43" data-name="Ellipse 43" cx="27.458" cy="27.458" r="27.458" transform="translate(183.688 787.018)" fill="#f2f2f2"/>
    <circle id="Ellipse_44" data-name="Ellipse 44" cx="22.31" cy="22.31" r="22.31" transform="translate(889.409 871.043)" fill="#e6e6e6"/>
    <circle id="Ellipse_45" data-name="Ellipse 45" cx="22.31" cy="22.31" r="22.31" transform="translate(550.784 117.973)" fill="#af0505"/>
    <path id="Path_451" data-name="Path 451" d="M687.165,752.543a.434.434,0,0,1-.222.354.994.994,0,0,1-.539.146H287.926c-.42,0-.761-.224-.761-.5s.341-.5.761-.5H686.4a.993.993,0,0,1,.539.146A.434.434,0,0,1,687.165,752.543Z" transform="translate(307.835 95.131)" fill="#ccc"/>
    <g id="undraw_search_re_x5gq" transform="matrix(0.978, 0.208, -0.208, 0.978, 817.501, 113.982)">
      <path id="Path_475" data-name="Path 475" d="M424.431,246.674H285.673a7.129,7.129,0,0,1-7.121-7.121v-6.474a7.129,7.129,0,0,1,7.121-7.121H424.431a7.129,7.129,0,0,1,7.121,7.121v6.474A7.129,7.129,0,0,1,424.431,246.674ZM285.673,226.389a6.7,6.7,0,0,0-6.69,6.69v6.474a6.7,6.7,0,0,0,6.69,6.69H424.431a6.7,6.7,0,0,0,6.69-6.69v-6.474a6.7,6.7,0,0,0-6.69-6.69Z" transform="translate(-278.552 -225.957)" fill="#3f3d56"/>
      <rect id="Rectangle_31" data-name="Rectangle 31" width="100.346" height="8.2" rx="4.1" transform="translate(13.596 6.258)" fill="#e6e6e6"/>
      <rect id="Rectangle_32" data-name="Rectangle 32" width="100.346" height="8.2" rx="4.1" transform="translate(25.68 42.219)" fill="#af0505"/>
      <rect id="Rectangle_33" data-name="Rectangle 33" width="100.346" height="8.2" rx="4.1" transform="translate(25.68 68.292)" fill="#e6e6e6"/>
      <rect id="Rectangle_34" data-name="Rectangle 34" width="100.346" height="8.2" rx="4.1" transform="translate(25.68 94.365)" fill="#e6e6e6"/>
      <path id="Path_476" data-name="Path 476" d="M849.818,277a.646.646,0,0,1-.9.159l-3.523-2.452a.646.646,0,0,1,.741-1.058l3.523,2.452A.646.646,0,0,1,849.818,277Z" transform="translate(-710.306 -262.211)" fill="#940d0d"/>
      <path id="Path_477" data-name="Path 477" d="M821.343,253.294a4.584,4.584,0,1,1-1.126-6.385A4.585,4.585,0,0,1,821.343,253.294Zm-6.572-4.6a3.438,3.438,0,1,0,4.789-.844,3.438,3.438,0,0,0-4.789.844Z" transform="translate(-685.831 -241.292)" fill="#940d0d"/>
      <path id="Path_478" data-name="Path 478" d="M455.339,452.907H324.566a.216.216,0,1,1,0-.432H455.339a.216.216,0,1,1,0,.432Z" transform="translate(-313.452 -398.576)" fill="#3f3d56"/>
      <path id="Path_479" data-name="Path 479" d="M455.339,562.527H324.566a.216.216,0,1,1,0-.432H455.339a.216.216,0,1,1,0,.432Z" transform="translate(-313.452 -482.112)" fill="#3f3d56"/>
      <path id="Path_480" data-name="Path 480" d="M455.339,672.145H324.566a.216.216,0,0,1,0-.432H455.339a.216.216,0,0,1,0,.432Z" transform="translate(-313.452 -565.647)" fill="#3f3d56"/>
    </g>
    <path id="Path_474" data-name="Path 474" d="M923.095,203.6c-89.807-3.122-175.341-32.11-257.017-63.831S503.5,72.9,415.791,56.1c-56.324-10.81-120.807-12.336-166.238,17.873-43.71,29.14-57.836,79.3-65.427,125.886-5.717,35.065-9.075,71.949,6.577,104.766,10.879,22.785,30.167,41.934,43.516,63.831,46.444,75.931,13.613,169.568-36.7,243.709-23.59,34.774-54.67,64.053-72.89,101.047s-42.185,120.008-21.3,170.642,55.089,117.669,95.871,137.456c82.828,40.158,186.148,67.07,281.353,73.578C691.23,1109.3,909.9,986.032,1121.137,979.787c78.179-2.317,156.691-4.662,233.594-16.749,42.711-6.716,86.8-17.373,117.8-43.016,39.367-32.651,49.122-87.948,22.743-128.883C1451.032,722.465,1328.754,705.4,1297.8,631.7c-17.012-40.56.458-85.755,25.2-123.374,53.063-80.718,142-151.515,146.672-243.779,3.219-63.359-39.534-126.815-105.64-156.8-69.284-31.43-165.378-27.475-216.47,24.547C1094.9,185.744,1002.4,206.35,923.095,203.6Z" transform="matrix(-0.695, -0.719, 0.719, -0.695, 945.05, 151.134)" fill="#ffc2c2" opacity="0.12"/>
  </g>
</svg>
