<svg xmlns="http://www.w3.org/2000/svg" xmlns:xlink="http://www.w3.org/1999/xlink" width="992" height="502" viewBox="0 0 992 502">
  <defs>
    <clipPath id="clip-ecommrece">
      <rect width="992" height="502"/>
    </clipPath>
  </defs>
  <g id="ecommrece" clip-path="url(#clip-ecommrece)">
    <rect width="992" height="502" fill="#fff"/>
    <path id="Path_807" data-name="Path 807" d="M5060.722-504.844c-83.831-73.888-34.346-106.478,23.473-110.117s70.849,27.555,64.981,55.084S5144.554-430.956,5060.722-504.844Z" transform="translate(-3759.436 2930.516) rotate(-23)" fill="#fedf03" opacity="0.2"/>
    <circle id="Ellipse_513" data-name="Ellipse 513" cx="3.028" cy="3.028" r="3.028" transform="translate(401.742 70.325)" fill="#fff"/>
    <circle id="Ellipse_514" data-name="Ellipse 514" cx="3.028" cy="3.028" r="3.028" transform="translate(413.235 70.325)" fill="#fff"/>
    <circle id="Ellipse_515" data-name="Ellipse 515" cx="3.028" cy="3.028" r="3.028" transform="translate(424.729 70.325)" fill="#fff"/>
    <g id="Group_25" data-name="Group 25" transform="translate(79.564 -20.386)">
      <path id="Path_764" data-name="Path 764" d="M479.563,503.168l1.133,53.826,34.845,18.414L579,564.077l1.558-55.951-40.228-14.165Z" transform="translate(96.439 -68.004)" fill="#af0505"/>
      <path id="Path_765" data-name="Path 765" d="M675.5,709.861,640.2,691.2l-1.15-54.642,61.387-9.3.131.046,40.61,14.3L739.6,698.416ZM641.3,690.526,675.686,708.7,738.51,697.48l1.534-55.092L700.33,628.4l-60.146,9.113Z" transform="translate(-63.615 -201.876)" fill="#3f3d56"/>
      <path id="Path_766" data-name="Path 766" d="M514.624,523.641l-.136-.054-35.27-14.023.411-1.034L514.763,522.5l65.579-9.045.152,1.1Z" transform="translate(96.578 -73.883)" fill="#3f3d56"/>
      <rect id="Rectangle_88" data-name="Rectangle 88" width="1.113" height="58.221" transform="translate(610.716 449.197) rotate(-0.697)" fill="#3f3d56"/>
      <path id="Path_767" data-name="Path 767" d="M519.988,517.867l-10.2-3.912,61.2-9.753,10.2,3.912Z" transform="translate(84.241 -72.137)" fill="#3f3d56"/>
      <rect id="Rectangle_89" data-name="Rectangle 89" width="1.113" height="16.054" transform="translate(575.781 451.804) rotate(-66.705)" fill="#3f3d56"/>
      <rect id="Rectangle_90" data-name="Rectangle 90" width="1.113" height="16.054" transform="translate(582.458 470.166) rotate(-66.705)" fill="#fff"/>
    </g>
    <g id="undraw_add_to_cart_re_wrdo_2_" data-name="undraw_add_to_cart_re_wrdo (2)" transform="translate(165.849 7.746)">
      <path id="Path_768" data-name="Path 768" d="M855.12,183.142H202.131a3.662,3.662,0,0,1-3.658-3.658V157.97a3.662,3.662,0,0,1,3.658-3.658H855.12a3.662,3.662,0,0,1,3.658,3.658v21.515A3.662,3.662,0,0,1,855.12,183.142Z" transform="translate(-198.474 -154.312)" fill="#e4e4e4"/>
      <circle id="a7a88a4d-66b2-4c09-a29b-e65e87e57a01" cx="5.193" cy="5.193" r="5.193" transform="translate(16.034 8.173)" fill="#fff"/>
      <circle id="ecd091ab-fa27-42b2-b94f-bd1073aab054" cx="5.193" cy="5.193" r="5.193" transform="translate(35.744 8.173)" fill="#fff"/>
      <circle id="a332723e-32dc-4e13-8ae5-d2643a7feb7f" cx="5.193" cy="5.193" r="5.193" transform="translate(55.455 8.173)" fill="#fff"/>
      <path id="Path_769" data-name="Path 769" d="M968.321,165.494h-22.7a1.681,1.681,0,0,1,0-3.363h22.7a1.681,1.681,0,1,1,.006,3.363Z" transform="translate(-330.987 -155.702)" fill="#fff"/>
      <path id="Path_770" data-name="Path 770" d="M968.321,173.162h-22.7a1.681,1.681,0,0,1,0-3.363h22.7a1.681,1.681,0,1,1,.006,3.363Z" transform="translate(-330.987 -157.065)" fill="#fff"/>
      <path id="Path_771" data-name="Path 771" d="M968.321,180.829h-22.7a1.681,1.681,0,1,1,0-3.363h22.7a1.681,1.681,0,1,1,.006,3.363Z" transform="translate(-330.987 -158.428)" fill="#fff"/>
      <path id="Path_772" data-name="Path 772" d="M424.8,664.624c2.4-19.321,14.377-38.358,32.8-44.646a89.705,89.705,0,0,0,0,61.589c2.831,7.659,6.778,15.883,4.115,23.6-1.657,4.8-5.711,8.478-10.242,10.775s-9.561,3.393-14.527,4.466l-.977.808C428.088,703.418,422.394,683.946,424.8,664.624Z" transform="translate(-238.606 -237.088)" fill="#f0f0f0"/>
      <path id="Path_773" data-name="Path 773" d="M460.224,620.256a76.674,76.674,0,0,0-19.061,43.152,33.017,33.017,0,0,0,.376,10.338,18.938,18.938,0,0,0,4.71,8.784c2.123,2.332,4.565,4.473,6.083,7.28a11.6,11.6,0,0,1,.567,9.466c-1.341,3.846-3.984,6.982-6.676,9.958-2.988,3.3-6.144,6.689-7.415,11.07-.154.531-.969.261-.815-.269,2.21-7.622,9.609-11.951,13.137-18.816,1.646-3.2,2.338-6.922.794-10.3-1.35-2.957-3.866-5.166-6.036-7.509a20.208,20.208,0,0,1-4.925-8.417,30.524,30.524,0,0,1-.772-10.286,74.388,74.388,0,0,1,5.433-22.606,78.034,78.034,0,0,1,14.032-22.486c.367-.411.932.235.568.644Z" transform="translate(-241.047 -237)" fill="#fff"/>
      <path id="Path_774" data-name="Path 774" d="M440.234,663.9a11.5,11.5,0,0,1-8.757-12.051.429.429,0,0,1,.857.043,10.652,10.652,0,0,0,8.168,11.193C441.039,663.211,440.767,664.025,440.234,663.9Z" transform="translate(-239.886 -242.684)" fill="#fff"/>
      <path id="Path_775" data-name="Path 775" d="M446.492,692.072a22.172,22.172,0,0,0,9.9-12.77c.156-.53.97-.26.815.269a23.062,23.062,0,0,1-10.33,13.267C446.4,693.121,446.02,692.353,446.492,692.072Z" transform="translate(-242.523 -247.583)" fill="#fff"/>
      <path id="Path_776" data-name="Path 776" d="M452.213,637.872a6.511,6.511,0,0,0,6.171-.313c.472-.288.855.48.386.766a7.3,7.3,0,0,1-6.826.362.443.443,0,0,1-.273-.542A.431.431,0,0,1,452.213,637.872Z" transform="translate(-243.478 -240.202)" fill="#fff"/>
      <path id="Path_777" data-name="Path 777" d="M516.211,661.5c-.29.188-.579.377-.869.572a85.758,85.758,0,0,0-10.965,8.56c-.268.239-.536.485-.8.732a90.4,90.4,0,0,0-19.634,26.876,87.792,87.792,0,0,0-4.809,12.442c-1.775,5.888-3.23,12.413-6.743,17.229a15.065,15.065,0,0,1-1.173,1.448H439.479c-.072-.036-.145-.065-.217-.1l-1.267.058c.051-.224.109-.456.16-.681.029-.13.065-.261.094-.391.022-.087.043-.174.058-.254.007-.029.015-.058.022-.08.015-.08.036-.152.051-.224q.478-1.945.985-3.889c0-.007,0-.007.007-.015a129.087,129.087,0,0,1,10.863-28.52c.145-.268.29-.543.449-.811a83.769,83.769,0,0,1,7.525-11.414,74.039,74.039,0,0,1,4.932-5.642,61.585,61.585,0,0,1,15.411-11.544c11.385-6.011,24.566-8.314,36.733-4.642C515.6,661.31,515.9,661.4,516.211,661.5Z" transform="translate(-241.051 -244.105)" fill="#f0f0f0"/>
      <path id="Path_778" data-name="Path 778" d="M516.173,662.252a76.674,76.674,0,0,0-41.2,22.979,33.018,33.018,0,0,0-5.925,8.481,18.937,18.937,0,0,0-1.528,9.849c.291,3.141.952,6.319.474,9.476a11.6,11.6,0,0,1-5.247,7.9c-3.387,2.264-7.385,3.176-11.325,3.932-4.375.839-8.933,1.642-12.585,4.375-.442.331-.93-.375-.489-.705,6.353-4.755,14.868-3.757,21.818-7.114,3.243-1.566,6.034-4.12,6.837-7.749.7-3.174.024-6.452-.3-9.629a20.208,20.208,0,0,1,1.135-9.686,30.527,30.527,0,0,1,5.577-8.677A74.393,74.393,0,0,1,491.365,670.9a78.033,78.033,0,0,1,24.742-9.506c.54-.107.6.749.066.856Z" transform="translate(-241.083 -244.449)" fill="#fff"/>
      <path id="Path_779" data-name="Path 779" d="M486.392,682.26a11.5,11.5,0,0,1,.264-14.894c.366-.413,1.025.137.659.55a10.652,10.652,0,0,0-.217,13.855C487.449,682.2,486.741,682.683,486.392,682.26Z" transform="translate(-249.19 -245.486)" fill="#fff"/>
      <path id="Path_780" data-name="Path 780" d="M473.323,709.831a22.173,22.173,0,0,0,15.594-4.235c.444-.33.932.376.489.705a23.063,23.063,0,0,1-16.236,4.373C472.62,710.615,472.776,709.77,473.323,709.831Z" transform="translate(-247.242 -252.293)" fill="#fff"/>
      <path id="Path_781" data-name="Path 781" d="M512.171,668.751a6.512,6.512,0,0,0,5.116,3.465c.55.054.393.9-.153.844a7.3,7.3,0,0,1-5.668-3.821.444.444,0,0,1,.108-.6.431.431,0,0,1,.6.108Z" transform="translate(-254.098 -245.726)" fill="#fff"/>
      <path id="Path_782" data-name="Path 782" d="M433.416,319.1H328.395a12.255,12.255,0,0,1-12.241-12.241v-57.2a12.254,12.254,0,0,1,12.241-12.241H433.416a12.254,12.254,0,0,1,12.241,12.241v57.2A12.255,12.255,0,0,1,433.416,319.1Z" transform="translate(-219.392 -169.085)" fill="#e6e6e6"/>
      <path id="Path_783" data-name="Path 783" d="M628.416,319.1H523.395a12.255,12.255,0,0,1-12.241-12.241v-57.2a12.254,12.254,0,0,1,12.241-12.241H628.416a12.254,12.254,0,0,1,12.241,12.241v57.2A12.255,12.255,0,0,1,628.416,319.1Z" transform="translate(-254.055 -169.085)" fill="#af0505"/>
      <path id="Path_784" data-name="Path 784" d="M823.416,319.1H718.395a12.255,12.255,0,0,1-12.241-12.241v-57.2a12.254,12.254,0,0,1,12.241-12.241H823.416a12.254,12.254,0,0,1,12.241,12.241v57.2A12.255,12.255,0,0,1,823.416,319.1Z" transform="translate(-288.718 -169.085)" fill="#e6e6e6"/>
      <path id="Path_785" data-name="Path 785" d="M433.416,474.1H328.395a12.255,12.255,0,0,1-12.241-12.241v-57.2a12.254,12.254,0,0,1,12.241-12.241H433.416a12.254,12.254,0,0,1,12.241,12.24v57.2A12.255,12.255,0,0,1,433.416,474.1Z" transform="translate(-219.392 -196.637)" fill="#f2f2f2"/>
      <path id="Path_786" data-name="Path 786" d="M628.416,474.1H523.395a12.255,12.255,0,0,1-12.241-12.241v-57.2a12.254,12.254,0,0,1,12.241-12.241H628.416a12.254,12.254,0,0,1,12.241,12.24v57.2A12.255,12.255,0,0,1,628.416,474.1Z" transform="translate(-254.055 -196.637)" fill="#e6e6e6"/>
      <g id="aa405d94-515b-444f-88dd-2c52df39214d" transform="translate(363.02 250.472)">
        <circle id="ede3a9f0-5e02-4455-ac7e-751a5f8c3692" cx="18.757" cy="18.757" r="18.757" fill="#af0505"/>
        <path id="ba039ca8-d148-45ed-9781-bacb7304e881" d="M668.527,478.127H662.15v-6.377a1.5,1.5,0,0,0-1.5-1.5h0a1.5,1.5,0,0,0-1.5,1.5v6.377h-6.377a1.5,1.5,0,0,0-1.5,1.5h0a1.5,1.5,0,0,0,1.5,1.5h6.378v6.377a1.5,1.5,0,0,0,1.5,1.5h0a1.5,1.5,0,0,0,1.5-1.5v-6.378h6.377a1.5,1.5,0,0,0,1.5-1.5h0a1.5,1.5,0,0,0-1.5-1.5h0Z" transform="translate(-641.982 -460.945)" fill="#fff"/>
      </g>
      <g id="bbf41f8a-587e-4352-8304-6d86282586e3" transform="translate(525.823 126.313)">
        <circle id="e4c91425-bc08-43ed-9b2d-9a6452dd6ab0" cx="18.757" cy="18.757" r="18.757" fill="#af0505"/>
        <path id="b08e8960-896e-4763-a2dc-6c3da3e5d175" d="M866.527,327.127H860.15v-6.377a1.5,1.5,0,0,0-1.5-1.5h0a1.5,1.5,0,0,0-1.5,1.5v6.377h-6.377a1.5,1.5,0,0,0-1.5,1.5h0a1.5,1.5,0,0,0,1.5,1.5h6.377v6.377a1.5,1.5,0,0,0,1.5,1.5h0a1.5,1.5,0,0,0,1.5-1.5v-6.378h6.377a1.5,1.5,0,0,0,1.5-1.5h0a1.5,1.5,0,0,0-1.5-1.5h0Z" transform="translate(-839.982 -309.945)" fill="#fff"/>
      </g>
      <g id="b77ad267-181d-433f-b31f-af61e58bf4a6" transform="translate(202.682 124.669)">
        <circle id="e8aef769-5476-47e9-8295-ae809767f9aa" cx="18.757" cy="18.757" r="18.757" fill="#af0505"/>
        <path id="efbebd4e-dbd2-4103-8d2c-f0ca8346a3bf" d="M473.527,325.127H467.15v-6.377a1.5,1.5,0,0,0-1.5-1.5h0a1.5,1.5,0,0,0-1.5,1.5h0v6.377h-6.377a1.5,1.5,0,0,0-1.5,1.5h0a1.5,1.5,0,0,0,1.5,1.5h6.377v6.377a1.5,1.5,0,0,0,1.5,1.5h0a1.5,1.5,0,0,0,1.5-1.5v-6.378h6.377a1.5,1.5,0,0,0,1.5-1.5h0a1.5,1.5,0,0,0-1.5-1.5h0Z" transform="translate(-446.982 -307.945)" fill="#fff"/>
      </g>
      <path id="Path_787" data-name="Path 787" d="M632.324,296.11a7.458,7.458,0,0,1-6.02,9.723l-8.673,59.2L603.4,358.086l14.31-59.095a7.5,7.5,0,0,1,14.61-2.881Z" transform="translate(-270.453 -178.595)" fill="#ffb8b8"/>
      <path id="Path_788" data-name="Path 788" d="M509.642,511.825a7.458,7.458,0,0,0-2.871-11.069l5.851-62.972-12.255,6.282-3.827,60.682a7.5,7.5,0,0,0,13.1,7.077Z" transform="translate(-251.364 -204.702)" fill="#ffb8b8"/>
      <path id="Path_789" data-name="Path 789" d="M323.2,322.54l52.591-2.023L378.83,265.9H318.148Z" transform="translate(-56.553 -47.266)" fill="#ffb8b8"/>
      <path id="Path_790" data-name="Path 790" d="M312.427,561.861h8.987l4.275-34.663H312.425Z" transform="translate(-55.536 -93.714)" fill="#ffb8b8"/>
      <path id="Path_791" data-name="Path 791" d="M507.8,718.093l14.206-.848v6.087l13.507,9.328a3.8,3.8,0,0,1-2.16,6.931H516.442l-2.915-6.021-1.138,6.021h-6.377Z" transform="translate(-253.141 -254.378)" fill="#2f2e41"/>
      <path id="Path_792" data-name="Path 792" d="M361.041,561.861h8.987L374.3,527.2H361.039Z" transform="translate(-64.178 -93.714)" fill="#ffb8b8"/>
      <path id="Path_793" data-name="Path 793" d="M519.564,472.8s-15.736,12.7-7.205,58.074c-1.3.155.172,2.715.172,2.715l1.231,36.968.951,4.237-3.162,6.837,1.3,7.428-4.019,67.417,14.847,1.92,14.209-70.009,2.706-7.871,2.714-6.9-1.464-7.357,1.2-11.419,8.191-38.5,2.005,66.781-2.8,6.376,1.557,7-3.469,3.715-1.371,62.482,15.832.74,13.1-62.986-1.016-8.038,1.743-5.943V572.575l2.985-6.552,6.507-35.724s1.963-27.922-12.36-60.779Z" transform="translate(-253.643 -210.343)" fill="#2f2e41"/>
      <path id="Path_794" data-name="Path 794" d="M523.43,365.013s-19.875,3.931-23.3,20.881S494.5,441.2,494.5,441.2l.75,5.341L514.478,451l12.271-53.744Z" transform="translate(-251.095 -191.766)" fill="#af0505"/>
      <path id="Path_795" data-name="Path 795" d="M584.847,365.33s2.015-2.823,13.3-3.259c.464-.018-.111-.939-.111-.939l5.426-26.52,18.082,10.011-3.052,27.8-29.712,33.795Z" transform="translate(-267.155 -186.362)" fill="#af0505"/>
      <path id="Path_796" data-name="Path 796" d="M559.638,447.758c-8.512,0-21.326-.939-40.615-3.8a5.891,5.891,0,0,1-4.945-4.933,4.46,4.46,0,0,1-.749-5.065l.018-.035-.437-.515a4.77,4.77,0,0,1-.318-5.765l-5.974-42.736a18,18,0,0,1,12.521-19.751l2.205-.687,8.34-10.908.164,0,26.773.356,8.688,11.033,14.045,3.312.036.214,3.261,18.841c1.7,9.8-2.194,13.654-7.158,22.271l1.457,24.2.661,1.2a3.255,3.255,0,0,1-.779,4.085,6.341,6.341,0,0,1,.086,3.924l-.344,1.135c0,.033-.091.494-.833,1.057C574.4,446.209,570.566,447.758,559.638,447.758Z" transform="translate(-253.217 -189.73)" fill="#af0505"/>
      <path id="Path_797" data-name="Path 797" d="M556.417,718.093l14.206-.848v6.087l13.506,9.328a3.8,3.8,0,0,1-2.16,6.931H565.056l-2.915-6.021L561,739.59h-6.377Z" transform="translate(-261.783 -254.378)" fill="#2f2e41"/>
      <circle id="Ellipse_88" data-name="Ellipse 88" cx="20.989" cy="20.989" r="20.989" transform="translate(264.757 154.052) rotate(-80.783)" fill="#ffb8b8"/>
      <path id="Path_798" data-name="Path 798" d="M547.412,290.794c-7.693-5.291-14.467-6.1-20.032-4.6a7.315,7.315,0,0,0-2.926-2.6c-4.34-10.936-17.548-17.5-28.883-14.311-11.408,3.213-19.28,15.85-17.133,27.506,1.33,7.225,5.877,13.481,7.706,20.6,3.54,13.774-5.1,29.552-18.607,33.991,12.792,2.569,26.873-5.245,31.462-17.459,2.229-5.932,2.363-12.41,2.647-18.741a62.134,62.134,0,0,1,1.6-12.977,27.726,27.726,0,0,1,2.065-5.526,18.909,18.909,0,0,1,9.05-8.78,7.218,7.218,0,0,0,1.054,6.5c-3,3.758-4.633,7.822-4.633,10.256-6.232,11.39,2.68,21.174,14.07,27.406a23.336,23.336,0,0,0,14.909,2.6l.477-2.034.646,1.832,2.155,6.143q3.729,1.8,7.394,3.955c-.928-4.359-1.679-8.71-2.2-12.964-.715-5.79,1.778-14.41,3.577-19.652a30.942,30.942,0,0,0,1.694-10.042v-.149l1.752,5.626,6.377-2.72C560.45,297.85,561.636,290.124,547.412,290.794Z" transform="translate(-246.302 -174.607)" fill="#2f2e41"/>
      <path id="Path_799" data-name="Path 799" d="M782.594,745.265H316.141a.979.979,0,1,1,0-1.958H782.594a.979.979,0,1,1,0,1.958Z" transform="translate(-219.216 -259.011)" fill="#ccc"/>
      <circle id="e4c91425-bc08-43ed-9b2d-9a6452dd6ab0-2" data-name="e4c91425-bc08-43ed-9b2d-9a6452dd6ab0" cx="18.757" cy="18.757" r="18.757" transform="translate(200.538 252.937)" fill="#e6e6e6"/>
      <path id="Path_800" data-name="Path 800" d="M792.532,460.571h-65.79a7.677,7.677,0,0,1-7.668-7.668V417.07a7.677,7.677,0,0,1,7.668-7.668h65.79a7.677,7.677,0,0,1,7.668,7.668V452.9a7.677,7.677,0,0,1-7.668,7.668Z" transform="translate(-291.015 -199.657)" fill="#f2f2f2"/>
      <g id="bc9af32e-f7cd-4c85-a4cc-5543d455b8de" transform="translate(492.526 226.437)">
        <circle id="b56288f5-6382-4006-aaf1-aded98dde780" cx="9.961" cy="9.961" r="9.961" fill="#af0505"/>
        <path id="b9aaef6b-2cfc-46ac-8dc0-30fdc28925de" d="M812.641,439.895h-3.387v-3.387a.8.8,0,0,0-.8-.8h0a.8.8,0,0,0-.8.8v3.387h-3.386a.8.8,0,0,0-.8.8h0a.8.8,0,0,0,.8.8h3.387v3.387a.8.8,0,0,0,.8.8h0a.8.8,0,0,0,.8-.8v-3.387h3.387a.8.8,0,0,0,.8-.8h0a.8.8,0,0,0-.8-.8Z" transform="translate(-798.544 -430.77)" fill="#fff"/>
      </g>
      <path id="Path_801" data-name="Path 801" d="M827.414,450.047H773.2a8.689,8.689,0,0,1-8.68-8.679V409a1.6,1.6,0,1,1,3.2,0v8.667l62.976,5.725a4.8,4.8,0,0,1,4.718,4.8,1.607,1.607,0,0,1-.027.295l-3.174,16.926a4.8,4.8,0,0,1-4.794,4.634Zm-59.7-29.164v20.485a5.488,5.488,0,0,0,5.481,5.481h54.217a1.6,1.6,0,0,0,1.6-1.6,1.6,1.6,0,0,1,.027-.295l3.166-16.885a1.6,1.6,0,0,0-1.594-1.476c-.048,0-.1,0-.145-.007Z" transform="translate(-299.093 -199.302)" fill="#af0505"/>
      <circle id="Ellipse_89" data-name="Ellipse 89" cx="2.665" cy="2.665" r="2.665" transform="translate(457.032 260.34)" fill="#af0505"/>
      <circle id="Ellipse_90" data-name="Ellipse 90" cx="2.665" cy="2.665" r="2.665" transform="translate(523.524 260.34)" fill="#af0505"/>
      <path id="Path_802" data-name="Path 802" d="M825.9,470.243H754.612a1.6,1.6,0,1,1,0-3.2H825.9a1.6,1.6,0,0,1,0,3.2Z" transform="translate(-297.048 -209.903)" fill="#af0505"/>
      <path id="Path_803" data-name="Path 803" d="M768.306,409.956H754.447a1.6,1.6,0,1,1,0-3.2h13.859a1.6,1.6,0,0,1,0,3.2Z" transform="translate(-297.018 -199.187)" fill="#af0505"/>
      <path id="Path_804" data-name="Path 804" d="M782.551,467.3a1.592,1.592,0,0,1-1.041-.386L771,457.881a1.6,1.6,0,1,1,2.084-2.426l10.51,9.032a1.6,1.6,0,0,1-1.043,2.812Z" transform="translate(-300.146 -207.775)" fill="#af0505"/>
      <path id="Path_805" data-name="Path 805" d="M787.516,451.83a1.6,1.6,0,0,1-1.6-1.6V424.562a1.6,1.6,0,1,1,3.2,0v25.669a1.6,1.6,0,0,1-1.6,1.6Z" transform="translate(-302.897 -202.067)" fill="#af0505"/>
      <path id="Path_806" data-name="Path 806" d="M828.6,452.291a1.6,1.6,0,0,1-1.6-1.6V427.155a1.6,1.6,0,1,1,3.2,0v23.537a1.6,1.6,0,0,1-1.6,1.6Z" transform="translate(-310.199 -202.528)" fill="#af0505"/>
    </g>
  </g>
</svg>
