<svg xmlns="http://www.w3.org/2000/svg" xmlns:xlink="http://www.w3.org/1999/xlink" width="992" height="620" viewBox="0 0 992 620">
  <defs>
    <clipPath id="clip-EMAIL_5">
      <rect width="992" height="620"/>
    </clipPath>
  </defs>
  <g id="EMAIL_5" data-name="EMAIL – 5" clip-path="url(#clip-EMAIL_5)">
    <rect width="992" height="620" fill="#fff"/>
    <path id="Path_1034" data-name="Path 1034" d="M5130.125-333.315c-214.062-188.673-87.7-271.892,59.938-281.183s228.328,49.334,213.343,119.629S5344.19-144.642,5130.125-333.315Z" transform="translate(-2123.333 5115.577) rotate(-58)" fill="#fedf03" opacity="0.2"/>
    <g id="undraw_message_sent_re_q2kl" transform="translate(362.016 117)">
      <path id="Path_953" data-name="Path 953" d="M289.6,343.2l-27-15.205a99.967,99.967,0,0,1,10.524-46.934c6.224,28.249,38.979,41.689,54.091,66.354a60.131,60.131,0,0,1,4.882,51.891l1.776,21.9a100.76,100.76,0,0,1-63.262-55.818,97.329,97.329,0,0,1-6.752-23.465C276.454,343.266,289.6,343.2,289.6,343.2Z" transform="translate(-262.591 -176.224)" fill="#f2f2f2"/>
      <path id="Path_954" data-name="Path 954" d="M873.758,684.092l.828-18.613a60.116,60.116,0,0,1,28.039-7.1c-13.467,11.01-11.784,32.234-20.914,47.039A36.159,36.159,0,0,1,855.2,722.131l-11.27,6.9a60.591,60.591,0,0,1,12.771-49.1,58.522,58.522,0,0,1,10.756-9.994C870.152,677.055,873.758,684.092,873.758,684.092Z" transform="translate(-361.451 -240.494)" fill="#f2f2f2"/>
      <path id="Path_955" data-name="Path 955" d="M579.4,569.208h-10.2l-4.854-39.359H579.4Z" transform="translate(-96.127 -90.251)" fill="#ffb6b6"/>
      <path id="Path_956" data-name="Path 956" d="M841.461,740.261h-32.9v-.416a12.807,12.807,0,0,1,12.806-12.806h0l6.01-4.56,11.214,4.56h2.872Z" transform="translate(-355.589 -251.412)" fill="#2f2e41"/>
      <path id="Path_957" data-name="Path 957" d="M522.256,569.208h-10.2L507.2,529.848h15.061Z" transform="translate(-86.394 -90.251)" fill="#ffb6b6"/>
      <path id="Path_958" data-name="Path 958" d="M784.321,740.261h-32.9v-.416a12.807,12.807,0,0,1,12.806-12.806h0l6.01-4.56,11.214,4.56h2.872Z" transform="translate(-345.856 -251.412)" fill="#2f2e41"/>
      <path id="Path_959" data-name="Path 959" d="M779.216,472.631l66.373,1.659c12.606,6.847,12.8,21.666,8.667,39.26,0,0,1.394,10.458-1.394,13.246s-4.183,2.789-2.789,7.669S844.1,547.316,845,548.211s2.986,5.775,2.986,5.775l-6.972,39.739s-4.88,69.02-6.275,70.414-2.789,0-1.394,3.486,2.789,2.091,1.394,3.486a51.342,51.342,0,0,0-3.486,4.183H814.394s-1.271-6.972-1.271-7.669-1.394-4.88-1.394-5.577,1.232-1.93,1.232-1.93a22.931,22.931,0,0,0,.859-4.345c0-1.394,4.183-55.076,4.183-55.076l-8.366-69.717L789.419,599.3s0,59.956-1.394,61.351-1.394.7-.7,3.486,3.486,2.091,1.394,4.183-2.789-1.394-2.091,2.091l.7,3.486-20.915.3s-2.789-5.877-1.394-7.968,1.311-1.521-.391-4.943-2.4-4.12-1.7-4.817.7-4.405.7-4.405l3.486-66.706s.7-70.414.7-72.505a6.954,6.954,0,0,0-.579-3.136v-2.839l2.671-10.059Z" transform="translate(-347.77 -208.855)" fill="#2f2e41"/>
      <circle id="Ellipse_98" data-name="Ellipse 98" cx="20.623" cy="20.623" r="20.623" transform="translate(450.695 84.518)" fill="#ffb6b6"/>
      <path id="Path_960" data-name="Path 960" d="M811.005,320.654c-4.443,2.641-7.1,7.494-8.626,12.433a117.818,117.818,0,0,0-5.063,28.15l-1.611,28.6-19.957,60.9c17.3,14.635,82.311,3.326,82.311,3.326s2-.665,0-2.661-3.939-.228-1.943-2.223.62.228-.045-1.768,0-.665.665-1.331-5.15-6.652-5.15-6.652l5.322-34.96,6.652-70.516c-7.983-9.979-24.038-15.861-24.038-15.861l-4.148-7.467-20.742,1.659Z" transform="translate(-350 -181.261)" fill="#e6e6e6"/>
      <path id="Path_961" data-name="Path 961" d="M813.307,263.311a9.744,9.744,0,0,1,2.365.31,33.65,33.65,0,0,0,4.629.776,21.449,21.449,0,0,1,19.205,18.193c1.2-1.045,3.925-2.967,6.16-1.181h0c.034.028.054.043.133.006,1.484-.7,4.119-9.371,4.2-17,.042-4.05-.6-9.222-3.871-10.86l-.173-.086-.045-.188c-.219-.911-2.664-2.466-6.914-3.677-7.723-2.2-19.235-6.485-25.718-.179-.491,2.126-2.087,6.676-3.7,7.191-1.785.571-3.327,1.063-3.57,3.253a67.132,67.132,0,0,0,.044,9.358,9.557,9.557,0,0,1,3.4-4.769A6.729,6.729,0,0,1,813.307,263.311Z" transform="translate(-355.13 -170.273)" fill="#2f2e41"/>
      <path id="Path_962" data-name="Path 962" d="M754.367,395.122l33.687-21.574-16.967-22.555L754.333,371.6l-52.2,3.2a9.949,9.949,0,1,0-.557,14.661Z" transform="translate(-334.575 -188.136)" fill="#ffb6b6"/>
      <path id="Path_963" data-name="Path 963" d="M833.107,338.725c1.955,11.832-34.967,34.427-34.967,34.427,0-2.777-22.038,18.189-23.032,15.886-2.827-6.546-4.815-22.052-8.765-24.533-2.259-1.419,13.606-14.752,13.606-14.752s8.3-8.366,19.2-18.919a25.425,25.425,0,0,1,23.548-6.883S831.151,326.893,833.107,338.725Z" transform="translate(-348.36 -183.426)" fill="#e6e6e6"/>
      <path id="Path_964" data-name="Path 964" d="M921.417,404.187l-22.283-33.223-22.19,17.441L897.9,404.719l4.306,52.122a9.949,9.949,0,1,0,14.669.246Z" transform="translate(-367.237 -191.538)" fill="#ffb6b6"/>
      <path id="Path_965" data-name="Path 965" d="M863.516,334.036c11.788-2.205,35.16,34.23,35.16,34.23-2.777.059,18.652,21.647,16.37,22.691-6.485,2.965-21.945,5.28-24.342,9.282-1.371,2.289-15.037-13.29-15.037-13.29s-8.54-8.126-19.321-18.8a25.425,25.425,0,0,1-7.38-23.4S851.728,336.241,863.516,334.036Z" transform="translate(-362.387 -185.231)" fill="#e6e6e6"/>
      <path id="Path_966" data-name="Path 966" d="M889.261,743.906a.984.984,0,0,1-.987.987H655.726a.987.987,0,0,1,0-1.975H888.273a.984.984,0,0,1,.987.987Z" transform="translate(-329.388 -254.894)" fill="#ccc"/>
      <path id="Path_967" data-name="Path 967" d="M616.4,383.493H334.169a16.65,16.65,0,0,0-16.631,16.631V575.838a16.65,16.65,0,0,0,16.631,16.631H616.4a16.65,16.65,0,0,0,16.632-16.631V400.124A16.65,16.65,0,0,0,616.4,383.493Z" transform="translate(-271.951 -193.672)" fill="#af0505"/>
      <path id="Path_968" data-name="Path 968" d="M616.4,383.493H334.169a16.65,16.65,0,0,0-16.631,16.631V575.838a16.65,16.65,0,0,0,16.631,16.631H616.4a16.65,16.65,0,0,0,16.632-16.631V400.124A16.65,16.65,0,0,0,616.4,383.493Zm5.458,126.217a68.37,68.37,0,0,1-67.218,68.1c-28.637.373,15.845.518-18.694.518-78.978,0-161.33-.755-192.057-1.244a15.494,15.494,0,0,1-15.175-15.431V400.137a5.476,5.476,0,0,1,5.457-5.47H616.385a5.476,5.476,0,0,1,5.469,5.456Z" transform="translate(-271.951 -193.672)" fill="#2f2e41"/>
      <path id="Path_969" data-name="Path 969" d="M583.02,261.538H367.992a9.242,9.242,0,0,0-8.687,6.126L326.1,360.836a9.223,9.223,0,0,0,8.674,12.319l288.388.512h.013a9.223,9.223,0,0,0,8.477-12.856l-.5.215.5-.215L591.5,267.128A9.212,9.212,0,0,0,583.02,261.538Z" transform="translate(-273.318 -172.899)" fill="#2f2e41"/>
      <path id="Path_970" data-name="Path 970" d="M632.395,381.737a9.246,9.246,0,0,1-.747,3.634L591.5,457.485a9.248,9.248,0,0,1-8.479,5.584H368a9.248,9.248,0,0,1-8.7-6.123l-33.2-71.6a9.217,9.217,0,0,1,5.592-11.781,9.073,9.073,0,0,1,3.078-.539L370,372.959l14.378-.025,189.2-.332,14.386-.025,35.2-.066h.008a9.227,9.227,0,0,1,9.226,9.224Z" transform="translate(-273.318 -191.801)" fill="#2f2e41"/>
      <path id="Path_971" data-name="Path 971" d="M361.5,542.358c4.264,0,62.817,3.578,62.817,7.842s-58.553,7.6-62.817,7.6a7.721,7.721,0,1,1,0-15.441Z" transform="translate(-278.124 -220.732)" fill="#2f2e41"/>
      <path id="Path_972" data-name="Path 972" d="M578.753,193.221H397.446a18.349,18.349,0,0,0-18.327,18.327V432.53H592.144a9.108,9.108,0,0,0,4.937-1.435V211.548a18.349,18.349,0,0,0-18.327-18.327Z" transform="translate(-282.441 -161.262)" fill="#e6e6e6"/>
      <path id="Path_973" data-name="Path 973" d="M512.5,211.131H413.142a16.709,16.709,0,0,0-16.693,16.685V435.581h189.2V284.274A73.228,73.228,0,0,0,512.5,211.131Z" transform="translate(-285.393 -164.313)" fill="#fff"/>
      <path id="Path_974" data-name="Path 974" d="M559.2,459.421H434.464a4.065,4.065,0,1,0,0,8.131H559.2a4.065,4.065,0,1,0,0-8.131Z" transform="translate(-291.175 -206.605)" fill="#e4e4e4"/>
      <path id="Path_975" data-name="Path 975" d="M559.2,440.041H434.463a4.069,4.069,0,1,0,0,8.139H559.2a4.069,4.069,0,1,0,0-8.139Z" transform="translate(-291.175 -203.304)" fill="#e4e4e4"/>
      <path id="Path_976" data-name="Path 976" d="M488.533,420.671H434.463a4.065,4.065,0,0,0,0,8.131h54.069a4.065,4.065,0,1,0,0-8.131Z" transform="translate(-291.175 -200.004)" fill="#e4e4e4"/>
      <path id="Path_977" data-name="Path 977" d="M559.2,380.091H434.463a4.07,4.07,0,1,0,0,8.139H559.2a4.07,4.07,0,0,0,0-8.139Z" transform="translate(-291.175 -193.092)" fill="#e4e4e4"/>
      <path id="Path_978" data-name="Path 978" d="M559.2,360.721H434.464a4.065,4.065,0,1,0,0,8.131H559.2a4.065,4.065,0,1,0,0-8.131Z" transform="translate(-291.175 -189.793)" fill="#e4e4e4"/>
      <path id="Path_979" data-name="Path 979" d="M488.532,341.341H434.462a4.07,4.07,0,1,0,0,8.139h54.069a4.07,4.07,0,0,0,0-8.139Z" transform="translate(-291.174 -186.492)" fill="#e4e4e4"/>
      <path id="Path_980" data-name="Path 980" d="M559.2,300.761H434.463a4.07,4.07,0,1,0,0,8.139H559.2a4.07,4.07,0,1,0,0-8.139Z" transform="translate(-291.175 -179.58)" fill="#af0505"/>
      <path id="Path_981" data-name="Path 981" d="M559.2,281.391H434.463a4.07,4.07,0,1,0,0,8.139H559.2a4.07,4.07,0,1,0,0-8.139Z" transform="translate(-291.175 -176.28)" fill="#af0505"/>
      <path id="Path_982" data-name="Path 982" d="M488.532,262.011H434.462a4.07,4.07,0,1,0,0,8.139h54.069a4.07,4.07,0,0,0,0-8.139Z" transform="translate(-291.174 -172.979)" fill="#af0505"/>
      <path id="Path_1134" data-name="Path 1134" d="M31.662,0A31.662,31.662,0,1,1,0,31.662,31.662,31.662,0,0,1,31.662,0Z" transform="translate(276.18 0)" fill="#af0505"/>
      <path id="Path_983" data-name="Path 983" d="M625.934,205.958a3.521,3.521,0,0,1-2.817-1.409l-8.638-11.517a3.522,3.522,0,0,1,5.635-4.226l5.651,7.535,14.515-21.772a3.522,3.522,0,1,1,5.861,3.907L628.864,204.39a3.523,3.523,0,0,1-2.833,1.567Z" transform="translate(-322.41 -157.818)" fill="#fff"/>
    </g>
    <path id="Path_1025" data-name="Path 1025" d="M755.5,266.934l10.406,1.153,4.6.51,6.943.768a5.019,5.019,0,0,0,1.1-9.977l-21.941-2.428a5.018,5.018,0,0,0-1.109,9.974Z" transform="translate(-533.043 74.375)" fill="#fff"/>
    <g id="Group_33" data-name="Group 33" transform="translate(-26.1 107.766)">
      <path id="Path_1018" data-name="Path 1018" d="M630.852,278.25h0a47.726,47.726,0,0,1,47.826,47.625V463.738h93.973a14.234,14.234,0,0,1,14.264,14.2H583.027V325.875A47.726,47.726,0,0,1,630.852,278.25Z" transform="translate(-493.928 21.291)" fill="#2f2e41"/>
      <path id="Path_1019" data-name="Path 1019" d="M626.332,351.185l9.9,40.909,193.72-46.9-9.9-40.909a3.053,3.053,0,0,0-1.978-2.177,3.016,3.016,0,0,0-1.119-.168l-111.979-57.98a3.089,3.089,0,0,0-3.907.939L647.1,320.159l-20.345,28.379a.431.431,0,0,0-.075.351A3.056,3.056,0,0,0,626.332,351.185Z" transform="translate(-500.884 26.864)" fill="#fff"/>
      <path id="Path_1020" data-name="Path 1020" d="M626.764,348.889a.411.411,0,0,0,.17.265.469.469,0,0,0,.364.072.45.45,0,0,0,.251-.174l.07-.1,1.059-1.481,19.238-26.819,53.951-75.24a2.2,2.2,0,0,1,2.787-.668l111.11,57.531,1,.517a1.082,1.082,0,0,0,.124.043,1.348,1.348,0,0,1,.228-.022.431.431,0,0,0,.243-.205.44.44,0,0,0-.184-.595l-.138-.073-111.978-57.98a3.089,3.089,0,0,0-3.907.939l-53.967,75.257-20.345,28.379a.431.431,0,0,0-.075.351Z" transform="translate(-500.965 26.864)" fill="#3f3d56"/>
      <path id="Path_1021" data-name="Path 1021" d="M695.469,349.942l4.312.478,32,3.545L753,356.315l1.253.139,26.474-20.678,1.014-.792,6.253-4.883,22.246-17.374.134-1.22,7.913-71.414a3.737,3.737,0,0,0-3.3-4.121l-105.6-11.7a3.739,3.739,0,0,0-4.121,3.3l-5.58,50.374-3.1,27.928-2.769,24.986-1.284,11.6-.374,3.361A3.739,3.739,0,0,0,695.469,349.942Z" transform="translate(-511.49 29.982)" fill="#e6e6e6"/>
      <path id="Path_1022" data-name="Path 1022" d="M729.755,297.348l45.742,5.066,16.222,1.8a5.487,5.487,0,1,0,1.208-10.907l-20.176-2.235-41.784-4.633a5.49,5.49,0,1,0-1.211,10.913Z" transform="translate(-516.758 19.979)" fill="#fff"/>
      <path id="Path_1023" data-name="Path 1023" d="M726.719,321.475c.118.021.236.042.356.054l53.1,5.882,8.866.984a5.489,5.489,0,0,0,1.207-10.912l-12.819-1.418L735.366,311.4l-7.078-.784a5.487,5.487,0,0,0-1.569,10.855Z" transform="translate(-516.327 16.087)" fill="#fff"/>
      <path id="Path_1024" data-name="Path 1024" d="M720.275,343.351a5.486,5.486,0,0,0,4.1,2.622l21.764,2.41,38.761,4.294.009,0,1.239.138,6.253-4.883a5.429,5.429,0,0,0,0-1.116,5.5,5.5,0,0,0-4.856-4.886l-5.384-.6L760.8,338.967l-15.369-1.7-19.852-2.2a5.487,5.487,0,0,0-5.3,8.289Z" transform="translate(-515.891 12.152)" fill="#fff"/>
      <path id="Path_1026" data-name="Path 1026" d="M645.924,300.5,659.8,357.821l23.159,4.4L704.38,366.3l22.984,4.373,7.344,1.4a3.082,3.082,0,0,0,2.466-.6l5.892-4.6,3.73-2.913,26.474-20.678-16.833-69.535a3.7,3.7,0,0,0-1.044-1.812,3.732,3.732,0,0,0-3.461-.937L648.672,296A3.734,3.734,0,0,0,645.924,300.5Z" transform="translate(-504.035 22.475)" fill="#af0505"/>
      <path id="Path_1027" data-name="Path 1027" d="M683.834,356.414a5.493,5.493,0,0,0,6.625,4.042l60.591-14.668a5.5,5.5,0,0,0,4.043-6.625,1.765,1.765,0,0,0-.059-.207,5.486,5.486,0,0,0-6.566-3.836l-60.591,14.668A5.492,5.492,0,0,0,683.834,356.414Z" transform="translate(-510.128 12.162)" fill="#fff"/>
      <path id="Path_1028" data-name="Path 1028" d="M690.082,376.343l21.423,4.079,45.38-10.986a5.488,5.488,0,1,0-2.582-10.667l-60.591,14.668a5.449,5.449,0,0,0-3.144,2.107A5.528,5.528,0,0,0,690.082,376.343Z" transform="translate(-511.158 8.356)" fill="#fff"/>
      <path id="Path_1029" data-name="Path 1029" d="M743.008,389.088l7.344,1.4a3.082,3.082,0,0,0,2.466-.6l5.892-4.6Z" transform="translate(-519.677 4.063)" fill="#fff"/>
      <path id="Path_1030" data-name="Path 1030" d="M698.385,321.507a5.492,5.492,0,0,0,6.625,4.042l23.469-5.681a5.5,5.5,0,0,0,4.042-6.625,5.424,5.424,0,0,0-1.011-2.086A5.492,5.492,0,0,0,725.9,309.2l-23.468,5.681a5.489,5.489,0,0,0-4.043,6.625Z" transform="translate(-512.469 16.334)" fill="#fff"/>
      <path id="Path_1031" data-name="Path 1031" d="M701.228,373.1l22.988,4.374,7.342,1.4a3.1,3.1,0,0,0,2.465-.6l5.9-4.6-2.069.5-4.368,3.407a2.212,2.212,0,0,1-1.761.426l-5.436-1.034L703.3,372.6Zm68.665-23.945.224.924,1.02-.793ZM701.228,373.1l22.988,4.374,7.342,1.4a3.1,3.1,0,0,0,2.465-.6l5.9-4.6-2.069.5-4.368,3.407a2.212,2.212,0,0,1-1.761.426l-5.436-1.034L703.3,372.6Zm0,0,22.988,4.374,7.342,1.4a3.1,3.1,0,0,0,2.465-.6l5.9-4.6-2.069.5-4.368,3.407a2.212,2.212,0,0,1-1.761.426l-5.436-1.034L703.3,372.6Zm-74.9-10.729,25.94,107.154a3.076,3.076,0,0,0,3.71,2.264L843.728,426.34a3.076,3.076,0,0,0,2.264-3.71l-25.94-107.154a3.053,3.053,0,0,0-1.978-2.177,3.016,3.016,0,0,0-1.119-.168,2.9,2.9,0,0,0-1.27.334,2.674,2.674,0,0,0-.51.316l-15.408,12.032-22.378,17.48-7.5,5.856,0,.006-.006,0L742.4,370.617l-4.545,3.557-4.368,3.407a2.212,2.212,0,0,1-1.761.426l-5.436-1.034L703.3,372.6l-23.008-4.376-50.394-9.59a3.013,3.013,0,0,0-1.3.028,3.079,3.079,0,0,0-1.5.869,3.441,3.441,0,0,0-.414.546,3.055,3.055,0,0,0-.35,2.3Zm74.9,10.729,22.988,4.374,7.342,1.4a3.1,3.1,0,0,0,2.465-.6l5.9-4.6-2.069.5-4.368,3.407a2.212,2.212,0,0,1-1.761.426l-5.436-1.034L703.3,372.6Zm0,0,22.988,4.374,7.342,1.4a3.1,3.1,0,0,0,2.465-.6l5.9-4.6-2.069.5-4.368,3.407a2.212,2.212,0,0,1-1.761.426l-5.436-1.034L703.3,372.6Zm0,0,22.988,4.374,7.342,1.4a3.1,3.1,0,0,0,2.465-.6l5.9-4.6-2.069.5-4.368,3.407a2.212,2.212,0,0,1-1.761.426l-5.436-1.034L703.3,372.6Z" transform="translate(-500.884 15.677)" fill="#fff"/>
      <path id="Path_1032" data-name="Path 1032" d="M701.228,373.1l22.988,4.374,7.342,1.4a3.1,3.1,0,0,0,2.465-.6l5.9-4.6-2.069.5-4.368,3.407a2.212,2.212,0,0,1-1.761.426l-5.436-1.034L703.3,372.6Zm68.665-23.945.224.924,1.02-.793ZM701.228,373.1l22.988,4.374,7.342,1.4a3.1,3.1,0,0,0,2.465-.6l5.9-4.6-2.069.5-4.368,3.407a2.212,2.212,0,0,1-1.761.426l-5.436-1.034L703.3,372.6Zm0,0,22.988,4.374,7.342,1.4a3.1,3.1,0,0,0,2.465-.6l5.9-4.6-2.069.5-4.368,3.407a2.212,2.212,0,0,1-1.761.426l-5.436-1.034L703.3,372.6Zm-73.691-12.957.114.086c.019-.031.052-.059.078-.092a2.217,2.217,0,0,1,2-.644l50.079,9.527,21.419,4.082,22.988,4.374,7.342,1.4a3.1,3.1,0,0,0,2.465-.6l5.9-4.6-2.069.5-4.368,3.407a2.211,2.211,0,0,1-1.761.426l-5.436-1.034L703.3,372.6l-23.008-4.376-50.394-9.59a3.013,3.013,0,0,0-1.3.028Zm-1.2,2.229,25.94,107.154a3.077,3.077,0,0,0,3.71,2.264L843.728,426.34a3.076,3.076,0,0,0,2.264-3.71l-25.94-107.154a3.053,3.053,0,0,0-1.978-2.177,3.014,3.014,0,0,0-1.119-.168,2.9,2.9,0,0,0-1.27.334,2.669,2.669,0,0,0-.51.316l-15.408,12.032-22.378,17.48-7.5,5.856,0,.006-.006,0L742.4,370.617l-4.545,3.557-4.368,3.407a2.212,2.212,0,0,1-1.761.426l-5.436-1.034L703.3,372.6l-23.009-4.376-50.394-9.59a3.013,3.013,0,0,0-1.3.028,3.079,3.079,0,0,0-1.5.869,3.441,3.441,0,0,0-.414.546,3.055,3.055,0,0,0-.35,2.3Zm.856-.207a2.179,2.179,0,0,1,.387-1.838.287.287,0,0,1,.076-.1c.019-.031.052-.059.078-.092a2.217,2.217,0,0,1,2-.644l50.079,9.526,21.419,4.082,22.988,4.374,7.342,1.4a3.1,3.1,0,0,0,2.465-.6l5.9-4.6,3.729-2.913,26.469-20.681,1.02-.793,6.248-4.881,22.25-17.376,16.086-12.562a2.183,2.183,0,0,1,.828-.4,1.674,1.674,0,0,1,.256-.042,1.346,1.346,0,0,1,.228-.022,2.248,2.248,0,0,1,.756.123,2.2,2.2,0,0,1,1.415,1.555l25.94,107.154a2.2,2.2,0,0,1-1.621,2.656L655.777,470.94a2.2,2.2,0,0,1-2.649-1.622Zm74.04,10.936,22.988,4.374,7.342,1.4a3.1,3.1,0,0,0,2.465-.6l5.9-4.6-2.069.5-4.368,3.407a2.211,2.211,0,0,1-1.761.426l-5.436-1.034L703.3,372.6Zm0,0,22.988,4.374,7.342,1.4a3.1,3.1,0,0,0,2.465-.6l5.9-4.6-2.069.5-4.368,3.407a2.211,2.211,0,0,1-1.761.426l-5.436-1.034L703.3,372.6Zm0,0,22.988,4.374,7.342,1.4a3.1,3.1,0,0,0,2.465-.6l5.9-4.6-2.069.5-4.368,3.407a2.211,2.211,0,0,1-1.761.426l-5.436-1.034L703.3,372.6Z" transform="translate(-500.884 15.677)" fill="#3f3d56"/>
      <path id="Path_1033" data-name="Path 1033" d="M827.092,420.252a6.82,6.82,0,0,1,5.018-8.224l23.7-5.736a6.812,6.812,0,0,1,3.206,13.242l-23.7,5.736a6.82,6.82,0,0,1-8.224-5.018Z" transform="translate(-533.18 0.713)" fill="#af0505"/>
    </g>
    <circle id="Ellipse_100" data-name="Ellipse 100" cx="54.135" cy="54.135" r="54.135" transform="matrix(0.951, -0.309, 0.309, 0.951, 97.561, 192.252)" fill="#af0505"/>
    <path id="Path_987" data-name="Path 987" d="M249.1,699.586H205.73a7.236,7.236,0,0,0-7.228,7.228v30.978a7.236,7.236,0,0,0,7.228,7.228H249.1a7.236,7.236,0,0,0,7.228-7.228V706.814a7.236,7.236,0,0,0-7.228-7.228Zm0,4.13a3.082,3.082,0,0,1,.767.1L227.42,721.722,205.1,703.78a3.1,3.1,0,0,1,.626-.064Zm0,37.173H205.73a3.1,3.1,0,0,1-3.1-3.1v-30.7l23.488,18.885a2.065,2.065,0,0,0,2.582,0L252.2,707.241v30.551a3.1,3.1,0,0,1-3.1,3.1Z" transform="matrix(0.951, -0.309, 0.309, 0.951, -273.713, -389.667)" fill="#fff"/>
    <text id="Email_Marketing" data-name="Email Marketing" transform="translate(323 83)" font-size="42" font-family="Poppins-SemiBold, Poppins" font-weight="600"><tspan x="0" y="0">Email Marketing</tspan></text>
  </g>
</svg>
