<svg xmlns="http://www.w3.org/2000/svg" xmlns:xlink="http://www.w3.org/1999/xlink" width="992" height="668" viewBox="0 0 992 668">
  <defs>
    <clipPath id="clip-social-media-txt">
      <rect width="992" height="668"/>
    </clipPath>
  </defs>
  <g id="social-media-txt" clip-path="url(#clip-social-media-txt)">
    <rect width="992" height="668" fill="#fff"/>
    <g id="Group_1" data-name="Group 1" transform="translate(815.994 147.935)">
      <rect id="Rectangle_13" data-name="Rectangle 13" width="43.176" height="73.737" transform="translate(25.768 50.333)" fill="#2f2e41"/>
      <path id="Path_40" data-name="Path 40" d="M923.97,177.147c-4.665,13.812-11.818,26.4-26.4,26.4s-25.575-11.841-26.4-26.4c-1.05-18.6,11.482-26.473,26.4-26.4C915.192,150.842,929.506,160.756,923.97,177.147Z" transform="translate(-846.398 -129.912)" fill="#2f2e41"/>
      <path id="Path_41" data-name="Path 41" d="M860.908,381.009l-15.245,57.353s-20.327,5.082-18.149,10.164,23.957-3.63,23.957-3.63l19.6-47.915Z" transform="translate(-827.35 -230.128)" fill="#ffb9b9"/>
      <path id="Path_42" data-name="Path 42" d="M908.622,710.75s13.794,13.794,5.082,23.231h18.149l-11.616-29.039Z" transform="translate(-862.722 -371.115)" fill="#ffb9b9"/>
      <path id="Path_43" data-name="Path 43" d="M907.055,752.823s0-5.962-5.815-2.385-24.552,13.116-24.552,13.116-12.922,7.154,5.815,8.347,36.828-2.981,36.828-5.366-1.938-13.8-1.938-13.8S913.516,757,907.055,752.823Z" transform="translate(-846.933 -390.419)" fill="#2f2e41"/>
      <path id="Path_44" data-name="Path 44" d="M798.613,649.166l-.726,23.957L811.68,675.3V652.07Z" transform="translate(-736.016 -297.916)" fill="#ffb9b9"/>
      <ellipse id="Ellipse_15" data-name="Ellipse 15" cx="19.601" cy="19.601" rx="19.601" ry="19.601" transform="translate(29.928 39.806)" fill="#ffb9b9"/>
      <path id="Path_45" data-name="Path 45" d="M902.837,241.644s9.438,21.779,2.178,29.039,10.89,0,10.89,0,9.438-13.794,16.7-14.52c0,0-10.89-5.808-10.164-21.053Z" transform="translate(-860.204 -166.628)" fill="#ffb9b9"/>
      <path id="Path_46" data-name="Path 46" d="M865.106,427.558l-1.452,34.121s-26.135,68.242-15.971,84.214S881.8,590.9,881.8,590.9,895.6,584.37,895.6,580.74c0,0-13.794-34.121-25.409-42.107,0,0,.726-13.794,11.616-28.313l10.164,35.573,4.356,54.448s12.342,4.356,16.7,2.178c0,0,9.438-34.847,2.9-55.174l-1.452-55.9s18.875-27.587-5.082-60.256l-3.63-11.616S868.736,423.2,865.106,427.558Z" transform="translate(-835.178 -246.913)" fill="#2f2e41"/>
      <path id="Path_47" data-name="Path 47" d="M910.7,768.476s0-7.26-6.534-2.9-27.587,15.972-27.587,15.972-14.519,8.712,6.534,10.164,41.381-3.63,41.381-6.534-2.178-16.809-2.178-16.809S917.963,773.557,910.7,768.476Z" transform="translate(-846.653 -396.898)" fill="#2f2e41"/>
      <path id="Path_48" data-name="Path 48" d="M894.416,284.16l22.814-13.081s33.812.739,31.635,18.163c0,0-6.534,22.505-8.712,20.327l-4.356-4.356s-15.972,32.669-15.972,39.2a39.555,39.555,0,0,1-2.178,12.342l-39.2,5.808s4.356-24.683-2.178-29.039-8.712-15.971-2.178-26.135a84.363,84.363,0,0,0,6.455-12.26,21.768,21.768,0,0,1,12.056-11.64h0Z" transform="translate(-845.975 -182.283)" fill="#940d0d"/>
      <path id="Path_49" data-name="Path 49" d="M984.649,299.383s38.477,31.217,31.943,37.751S974.485,369.8,974.485,369.8s-3.63,21.779-10.89,21.053S965.047,364,965.047,364l30.491-29.039-16.7-17.423Z" transform="translate(-885.391 -194.602)" fill="#ffb9b9"/>
      <ellipse id="Ellipse_16" data-name="Ellipse 16" cx="10.42" cy="10.42" rx="10.42" ry="10.42" transform="translate(40.756 5.557)" fill="#2f2e41"/>
      <path id="Path_50" data-name="Path 50" d="M894.217,124.272a10.42,10.42,0,0,1,9.377-10.367c-.342-.034-.689-.053-1.041-.053a10.42,10.42,0,0,0,0,20.839c.352,0,.7-.019,1.042-.053A10.42,10.42,0,0,1,894.217,124.272Z" transform="translate(-855.546 -113.852)" fill="#2f2e41"/>
      <path id="Path_51" data-name="Path 51" d="M877.586,180.549s-.218-1.211-8.727,1.98-13.61,26.739-9.355,40.566c1.715,5.572.32,9.59-1.957,12.4-8.543,10.549-5.18,26.393,7.263,31.818q.527.23,1.075.454l5.318,3.191s-6.78-8.921-3.387-20.332a58.5,58.5,0,0,0,1.056-29.951c-.389-1.671-.831-3.394-1.334-5.152-4.255-14.891-2.185-13.171,12.706-28.062,0,0,8.509,6.382,15.955,9.573s13.827,6.382,8.509,17.018-18.082,20.209-9.573,34.037,9.573,8.509,8.509,13.827h0l-1.064,5.318,6.382-6.382-4.255,8.509s13.827,0,18.082-10.637l2.127,2.127s8.509-14.891-7.445-28.719c0,0-5.318-3.191,2.127-13.827s1.727-33.5-7.846-37.76S877.586,180.549,877.586,180.549Z" transform="translate(-838.431 -142.058)" fill="#2f2e41"/>
    </g>
    <path id="Path_278" data-name="Path 278" d="M859.037,198a19.868,19.868,0,0,0-7.973,38.07,17.513,17.513,0,0,1,.346-4.551l2.557-10.83a7.584,7.584,0,0,1-.637-3.14c0-2.949,1.7-5.142,3.832-5.142,1.82,0,2.676,1.356,2.676,2.976,0,1.82-1.165,4.551-1.756,7.053a3.067,3.067,0,0,0,3.14,3.823c3.759,0,6.3-4.833,6.3-10.566,0-4.35-2.94-7.609-8.264-7.609a9.411,9.411,0,0,0-9.784,9.52,5.732,5.732,0,0,0,1.311,3.9.91.91,0,0,1,.282,1.1c-.1.364-.309,1.247-.41,1.6a.674.674,0,0,1-.992.491c-2.776-1.129-4.068-4.168-4.068-7.59,0-5.643,4.76-12.4,14.2-12.4,7.581,0,12.578,5.461,12.578,11.377,0,7.8-4.341,13.652-10.721,13.652a5.706,5.706,0,0,1-4.851-2.476s-1.156,4.551-1.4,5.461a16.378,16.378,0,0,1-2,4.259A19.868,19.868,0,1,0,859.037,198Z" transform="translate(69.224 -57.432)" fill="#be000f"/>
    <g id="undraw_online_ad_re_ol62" transform="translate(518.445 316.528)">
      <path id="Path_765" data-name="Path 765" d="M474.35,269.073H382.065v-1.9H340.219v1.9H247.553a6.243,6.243,0,0,0-6.243,6.243h0V401.682a6.243,6.243,0,0,0,6.243,6.243h226.8a6.243,6.243,0,0,0,6.243-6.243V275.315a6.243,6.243,0,0,0-6.242-6.242Z" transform="translate(-180.367 -242.033)" fill="#3f3d56"/>
      <rect id="Rectangle_125" data-name="Rectangle 125" width="222.544" height="125.538" transform="translate(69.313 38.072)" fill="#e6e6e6"/>
      <rect id="Rectangle_130" data-name="Rectangle 130" width="203.744" height="108.511" transform="translate(78.751 44.711)" fill="#fff"/>
      <ellipse id="Ellipse_120" data-name="Ellipse 120" cx="2.283" cy="2.283" rx="2.283" ry="2.283" transform="translate(178.112 30.084)" fill="#940d0d"/>
      <path id="Path_766" data-name="Path 766" d="M469.541,647.7H447.822v-1.565a.31.31,0,0,0-.31-.31h-7.447a.31.31,0,0,0-.31.31h0V647.7H435.1v-1.565a.31.31,0,0,0-.31-.31h-7.447a.31.31,0,0,0-.31.31h0V647.7H422.38v-1.565a.31.31,0,0,0-.31-.31h-7.447a.31.31,0,0,0-.31.31h0V647.7h-4.654v-1.565a.31.31,0,0,0-.31-.31H401.9a.31.31,0,0,0-.31.31h0V647.7h-4.654v-1.565a.31.31,0,0,0-.31-.31h-7.446a.31.31,0,0,0-.31.31h0V647.7h-4.654v-1.565a.31.31,0,0,0-.31-.31h-7.445a.31.31,0,0,0-.31.31h0V647.7H371.5v-1.565a.31.31,0,0,0-.31-.31h-58.33a.31.31,0,0,0-.31.31h0V647.7h-4.654v-1.565a.31.31,0,0,0-.31-.31h-7.447a.31.31,0,0,0-.31.31h0V647.7H295.17v-1.565a.31.31,0,0,0-.31-.31h-7.446a.31.31,0,0,0-.31.31h0V647.7h-4.654v-1.565a.31.31,0,0,0-.31-.31h-7.446a.31.31,0,0,0-.31.31h0V647.7h-4.653v-1.565a.31.31,0,0,0-.31-.31h-7.447a.31.31,0,0,0-.31.31h0V647.7h-4.654v-1.565a.31.31,0,0,0-.31-.31H249.25a.31.31,0,0,0-.31.31h0V647.7h-4.654v-1.565a.31.31,0,0,0-.31-.31h-7.448a.31.31,0,0,0-.31.31h0V647.7H221.947a7.447,7.447,0,0,0-7.447,7.446v3.367a7.446,7.446,0,0,0,7.447,7.446H469.541a7.447,7.447,0,0,0,7.446-7.446v-3.367a7.447,7.447,0,0,0-7.446-7.447Z" transform="translate(-163.067 -486.373)" fill="#3f3d56"/>
      <rect id="Rectangle_126" data-name="Rectangle 126" width="90.097" height="94.708" transform="translate(135.574 52.322)" fill="#e6e6e6"/>
      <rect id="Rectangle_128" data-name="Rectangle 128" width="40.753" height="0.077" transform="translate(0 179.587)" fill="#e6e6e6"/>
      <path id="Path_776" data-name="Path 776" d="M1003.622,620.371c5.1,5.472,5.363,13.515,5.363,13.515s-8-.829-13.1-6.3-5.363-13.515-5.363-13.515S998.522,614.9,1003.622,620.371Z" transform="translate(-982.342 -465.78)" fill="#940d0d"/>
      <path id="Path_777" data-name="Path 777" d="M1048.125,632.076c-5.472,5.1-13.515,5.363-13.515,5.363s.829-8,6.3-13.1,13.515-5.363,13.515-5.363S1053.6,626.976,1048.125,632.076Z" transform="translate(-1010.793 -468.943)" fill="#940d0d"/>
      <path id="Path_778" data-name="Path 778" d="M1020.55,677.822h-20.126a2.057,2.057,0,0,1-1.851-1.158l-4.382-9.007a2.057,2.057,0,0,1,1.851-2.959h28.89a2.057,2.057,0,0,1,1.851,2.959l-4.382,9.008a2.057,2.057,0,0,1-1.851,1.158Z" transform="translate(-984.577 -498.45)" fill="#e5e5e5"/>
      <ellipse id="Ellipse_127" data-name="Ellipse 127" cx="11.974" cy="11.974" rx="11.974" ry="11.974" transform="translate(179.52 55.184)" fill="#a0616a"/>
      <path id="Path_803" data-name="Path 803" d="M531.686,494.491l7.733-48.68a18.456,18.456,0,0,1,23.4-14.82h0a18.4,18.4,0,0,1,12.969,21.091L567.7,495.555Z" transform="translate(-367.743 -347.265)" fill="#940d0d"/>
      <path id="Path_804" data-name="Path 804" d="M604.734,594.164a4.9,4.9,0,0,0,.851-7.469l7.993-15.479-9,.961-6.211,14.553a4.931,4.931,0,0,0,6.368,7.435Z" transform="translate(-409.934 -438.229)" fill="#a0616a"/>
      <path id="Path_805" data-name="Path 805" d="M614.507,506.959a2.2,2.2,0,0,1-1.183-.561l-3.058-2.826a2.2,2.2,0,0,1-.532-2.464l6.112-14.488-.867-28.627a7.067,7.067,0,0,1,14.005,1.91h0l1.483,18a22.608,22.608,0,0,1-4.357,15.306l-9.532,12.886a2.2,2.2,0,0,1-1.558.879A2.166,2.166,0,0,1,614.507,506.959Z" transform="translate(-417.995 -361.223)" fill="#940d0d"/>
      <path id="Path_806" data-name="Path 806" d="M414.8,356.606a4.9,4.9,0,0,0,6.546,3.7l11.138,13.4,2.625-8.664-10.979-11.393a4.931,4.931,0,0,0-9.329,2.965Z" transform="translate(-292.264 -295.972)" fill="#a0616a"/>
      <path id="Path_807" data-name="Path 807" d="M438.989,377.84a2.2,2.2,0,0,1,.978-.87l3.8-1.714a2.2,2.2,0,0,1,2.477.471L457.2,387l26.7,10.363a7.067,7.067,0,0,1-7.22,12.152h0l-17.149-5.651a22.608,22.608,0,0,1-12.4-9.981l-8.15-13.8a2.2,2.2,0,0,1-.2-1.777,2.17,2.17,0,0,1,.211-.467Z" transform="translate(-307.726 -311.654)" fill="#940d0d"/>
      <path id="Path_808" data-name="Path 808" d="M619.512,502.685l-.487,15.6-8.981,15.607,7.5-17.392Z" transform="translate(-418.306 -394.007)" opacity="0.1"/>
      <path id="Path_696" data-name="Path 696" d="M576.9,348.341c1.235,1.462,3.325,1.874,5.253,2.043a49.446,49.446,0,0,0,13.436-1.1c.273,2.647-.471,5.5,1.088,7.679a35.655,35.655,0,0,0,1.267-8.081,7.742,7.742,0,0,0-.448-3.461,3.183,3.183,0,0,0-2.712-2,6.8,6.8,0,0,1,3.032-1.3l-3.788-1.9.973-1-6.859-.42,1.986-1.262a43.077,43.077,0,0,0-9.024-.284,7.745,7.745,0,0,0-3.991,1.11,2.882,2.882,0,0,0-1.084,3.608,5.239,5.239,0,0,0-3.993,3.168,8.458,8.458,0,0,0-.3,4.065,28.815,28.815,0,0,0,1.511,6.392" transform="translate(-393.519 -287.185)" fill="#2f2e41"/>
      <path id="Path_138" data-name="Path 138" d="M516.328,227.461l-109.109,25.19a2.076,2.076,0,0,1-2.487-1.554l-6.249-27.065a2.076,2.076,0,0,1,1.554-2.487l109.109-25.19a2.076,2.076,0,0,1,2.487,1.554l6.248,27.065A2.076,2.076,0,0,1,516.328,227.461Z" transform="translate(-281.754 -196.301)" fill="#fff"/>
      <path id="Path_138-2" data-name="Path 138" d="M516.328,227.461l-109.109,25.19a2.076,2.076,0,0,1-2.487-1.554l-6.249-27.065a2.076,2.076,0,0,1,1.554-2.487l109.109-25.19a2.076,2.076,0,0,1,2.487,1.554l6.248,27.065A2.076,2.076,0,0,1,516.328,227.461Zm-116.1-5.108a1.246,1.246,0,0,0-.933,1.492l6.249,27.065a1.245,1.245,0,0,0,1.492.933l109.109-25.19a1.245,1.245,0,0,0,.933-1.492L510.825,198.1a1.245,1.245,0,0,0-1.492-.933Z" transform="translate(-281.754 -196.301)" fill="#e6e6e6"/>
      <path id="Path_139" data-name="Path 139" d="M508.231,242.283a1.408,1.408,0,0,0,.629,2.745h0l64.668-14.93a1.408,1.408,0,0,0-.633-2.744Z" transform="translate(-351.902 -216.315)" fill="#e6e6e6"/>
      <path id="Path_140" data-name="Path 140" d="M513.588,280.959a1.408,1.408,0,1,0,.629,2.745h0l27.827-6.424a1.408,1.408,0,0,0-.629-2.745h0Z" transform="translate(-355.358 -246.76)" fill="#e6e6e6"/>
      <g id="Group_45" data-name="Group 45" transform="translate(130.203 27.316)">
        <ellipse id="Ellipse_18" data-name="Ellipse 18" cx="8.447" cy="8.447" rx="8.447" ry="8.447" fill="#940d0d"/>
        <path id="Path_395" data-name="Path 395" d="M450.59,291.6a1.309,1.309,0,0,1-.826-.078l-.016-.007-3.4-1.543a1.318,1.318,0,0,1,1.091-2.4l2.2,1,3.09-6.789a1.317,1.317,0,0,1,1.744-.653h0l-.019.044.02-.045a1.318,1.318,0,0,1,.653,1.745l-3.634,7.987a1.318,1.318,0,0,1-.905.736Z" transform="translate(-442.381 -278.284)" fill="#fff"/>
      </g>
    </g>
    <path id="Path_99" data-name="Path 99" d="M593.317,161.482l-.151-.685H577.789v6.348h8.9c-.917,4.413-4.746,6.247-8.253,6.247a9.421,9.421,0,0,1-6.711-2.489,9.9,9.9,0,0,1-.121-13.744,9.23,9.23,0,0,1,6.741-2.5,8.5,8.5,0,0,1,5.7,2.076l4.716-4.686a15.94,15.94,0,0,0-10.57-4.031,15.78,15.78,0,0,0-16.122,16,16.123,16.123,0,0,0,4.373,11.084,16.727,16.727,0,0,0,12.092,4.877,14.873,14.873,0,0,0,10.832-4.544,15.971,15.971,0,0,0,4.161-11.084,18.143,18.143,0,0,0-.2-2.862Zm19.034-.675h-5.6v-5.592h-4.03v5.592h-5.6v4.031h5.6v5.592h4.03v-5.592h5.633Z" transform="translate(169.7 111.456)" fill="#dd4b39"/>
    <path id="Path_284" data-name="Path 284" d="M741.063,288H709.6a3.073,3.073,0,0,0-3.224,2.942v31.529A3.315,3.315,0,0,0,709.6,325.7h31.448a3.154,3.154,0,0,0,3.023-3.225V290.963A2.892,2.892,0,0,0,741.063,288Zm-22.974,31.448h-5.4v-16.8h5.4ZM715.57,300.1h0a2.9,2.9,0,1,1,2.963-2.9,2.771,2.771,0,0,1-3.023,2.892Zm22.248,19.347H732.4v-9.19c0-2.2-.786-3.7-2.741-3.7a2.942,2.942,0,0,0-2.761,2.015,3.544,3.544,0,0,0-.191,1.32v9.573h-5.4V302.651h5.4v2.338a5.472,5.472,0,0,1,4.877-2.731c3.537,0,6.217,2.338,6.217,7.376Z" transform="translate(-108.532 -127.56)" fill="#007bb6"/>
    <path id="Path_279" data-name="Path 279" d="M802.281,89.584A19.334,19.334,0,0,1,796.83,91.1a9.643,9.643,0,0,0,4.182-5.27,19,19,0,0,1-6.046,2.307,9.5,9.5,0,0,0-16.445,6.5,9.74,9.74,0,0,0,.242,2.176,26.954,26.954,0,0,1-19.6-9.945,9.532,9.532,0,0,0,2.962,12.7A9.2,9.2,0,0,1,757.8,98.38v.111a9.512,9.512,0,0,0,7.628,9.331,9.774,9.774,0,0,1-2.5.333,9.584,9.584,0,0,1-1.793-.171,9.512,9.512,0,0,0,8.887,6.6,19.014,19.014,0,0,1-11.809,4.031,18.762,18.762,0,0,1-2.267-.141,26.561,26.561,0,0,0,14.55,4.3c17.5,0,27.075-14.5,27.075-27.085V94.471a19.352,19.352,0,0,0,4.706-4.887Z" transform="translate(-98.56 126.827)" fill="#55acee"/>
    <path id="Path_280" data-name="Path 280" d="M484.94,65.12H451.4a2.086,2.086,0,0,0-2.086,2.086V100.74a2.086,2.086,0,0,0,2.086,2.086h16.747V87.9h-4.5V82.4h4.5V78.37c0-4.877,3.376-7.527,7.728-7.527,2.086,0,4.323.161,4.837.232v5.038h-3.466c-2.358,0-2.811,1.129-2.811,2.771v3.507h5.633l-.736,5.5h-4.9v14.923H484.92A2.086,2.086,0,0,0,487,100.73V67.206a2.086,2.086,0,0,0-2.056-2.086Z" transform="translate(295.085 103.234)" fill="#3b5998"/>
    <g id="Group_5" data-name="Group 5" transform="translate(576.187 272.577)">
      <path id="Path_100" data-name="Path 100" d="M305.4,195.164a7.88,7.88,0,0,1,7.849,7.86v15.709a7.839,7.839,0,0,1-2.307,5.542,7.738,7.738,0,0,1-5.542,2.307H289.683a7.88,7.88,0,0,1-7.849-7.849V203.024a7.88,7.88,0,0,1,7.849-7.86H305.4m0-3.144H289.683a11.023,11.023,0,0,0-10.993,11v15.709a11.023,11.023,0,0,0,10.993,10.993H305.4A11.024,11.024,0,0,0,316.4,218.733V203.024A11.024,11.024,0,0,0,305.4,192Z" transform="translate(-278.69 -192)" fill="#e53c5f"/>
      <path id="Path_101" data-name="Path 101" d="M307.679,202.976a2.348,2.348,0,1,1,1.67-.688A2.358,2.358,0,0,1,307.679,202.976Zm-10.207,1.572a6.288,6.288,0,1,1-6.288,6.277,6.288,6.288,0,0,1,6.288-6.277m0-3.144a9.421,9.421,0,1,0,6.668,2.756A9.431,9.431,0,0,0,297.471,201.4Z" transform="translate(-278.619 -191.952)" fill="#e53c5f"/>
      <path id="Path_275" data-name="Path 275" d="M305.4,195.164a7.88,7.88,0,0,1,7.849,7.86v15.709a7.839,7.839,0,0,1-2.307,5.542,7.738,7.738,0,0,1-5.542,2.307H289.683a7.88,7.88,0,0,1-7.849-7.849V203.024a7.88,7.88,0,0,1,7.849-7.86H305.4m0-3.144H289.683a11.023,11.023,0,0,0-10.993,11v15.709a11.023,11.023,0,0,0,10.993,10.993H305.4A11.024,11.024,0,0,0,316.4,218.733V203.024A11.024,11.024,0,0,0,305.4,192Z" transform="translate(-278.69 -192)" fill="#e53c5f"/>
      <path id="Path_276" data-name="Path 276" d="M307.679,202.976a2.348,2.348,0,1,1,1.67-.688A2.358,2.358,0,0,1,307.679,202.976Zm-10.207,1.572a6.288,6.288,0,1,1-6.288,6.277,6.288,6.288,0,0,1,6.288-6.277m0-3.144a9.421,9.421,0,1,0,6.668,2.756A9.431,9.431,0,0,0,297.471,201.4Z" transform="translate(-278.619 -191.952)" fill="#e53c5f"/>
      <path id="Path_282" data-name="Path 282" d="M305.4,195.164a7.88,7.88,0,0,1,7.849,7.86v15.709a7.839,7.839,0,0,1-2.307,5.542,7.738,7.738,0,0,1-5.542,2.307H289.683a7.88,7.88,0,0,1-7.849-7.849V203.024a7.88,7.88,0,0,1,7.849-7.86H305.4m0-3.144H289.683a11.023,11.023,0,0,0-10.993,11v15.709a11.023,11.023,0,0,0,10.993,10.993H305.4A11.024,11.024,0,0,0,316.4,218.733V203.024A11.024,11.024,0,0,0,305.4,192Z" transform="translate(-278.69 -192)" fill="#e53c5f"/>
      <path id="Path_283" data-name="Path 283" d="M307.679,202.976a2.348,2.348,0,1,1,1.67-.688A2.358,2.358,0,0,1,307.679,202.976Zm-10.207,1.572a6.288,6.288,0,1,1-6.288,6.277,6.288,6.288,0,0,1,6.288-6.277m0-3.144a9.421,9.421,0,1,0,6.668,2.756A9.431,9.431,0,0,0,297.471,201.4Z" transform="translate(-278.619 -191.952)" fill="#e53c5f"/>
    </g>
  </g>
</svg>
