<svg xmlns="http://www.w3.org/2000/svg" xmlns:xlink="http://www.w3.org/1999/xlink" width="992" height="668" viewBox="0 0 992 668">
  <defs>
    <clipPath id="clip-social-media-txt">
      <rect width="992" height="668"/>
    </clipPath>
  </defs>
  <g id="social-media-txt" clip-path="url(#clip-social-media-txt)">
    <rect width="992" height="668" fill="#fff"/>
    <g id="Group_1" data-name="Group 1" transform="translate(771.057 124.429)">
      <rect id="Rectangle_13" data-name="Rectangle 13" width="44.926" height="76.726" transform="translate(26.812 52.373)" fill="#2f2e41"/>
      <path id="Path_40" data-name="Path 40" d="M926.113,178.217c-4.854,14.372-12.3,27.467-27.467,27.467s-26.612-12.321-27.467-27.467c-1.092-19.353,11.947-27.547,27.467-27.467C916.979,150.845,931.873,161.162,926.113,178.217Z" transform="translate(-845.396 -129.067)" fill="#2f2e41"/>
      <path id="Path_41" data-name="Path 41" d="M862.268,381.009,846.4,440.687s-21.151,5.288-18.885,10.576,24.929-3.777,24.929-3.777l20.4-49.857Z" transform="translate(-827.349 -224.011)" fill="#ffb9b9"/>
      <path id="Path_42" data-name="Path 42" d="M908.622,710.986s14.353,14.353,5.288,24.173H932.8l-12.087-30.216Z" transform="translate(-860.861 -357.581)" fill="#ffb9b9"/>
      <path id="Path_43" data-name="Path 43" d="M908.462,752.966s0-6.2-6.051-2.482-25.548,13.648-25.548,13.648-13.446,7.445,6.051,8.685,38.322-3.1,38.322-5.583-2.017-14.364-2.017-14.364S915.185,757.309,908.462,752.966Z" transform="translate(-845.903 -375.869)" fill="#2f2e41"/>
      <path id="Path_44" data-name="Path 44" d="M798.642,649.166l-.755,24.929,14.352,2.266V652.188Z" transform="translate(-733.507 -283.675)" fill="#ffb9b9"/>
      <ellipse id="Ellipse_15" data-name="Ellipse 15" cx="20.396" cy="20.396" rx="20.396" ry="20.396" transform="translate(31.142 41.42)" fill="#ffb9b9"/>
      <path id="Path_45" data-name="Path 45" d="M902.837,241.909s9.82,22.662,2.266,30.216,11.331,0,11.331,0,9.82-14.353,17.375-15.108c0,0-11.331-6.043-10.576-21.907Z" transform="translate(-858.476 -163.851)" fill="#ffb9b9"/>
      <path id="Path_46" data-name="Path 46" d="M865.907,427.882l-1.511,35.5S837.2,534.4,847.777,551.014s35.5,46.836,35.5,46.836,14.353-6.8,14.353-10.576c0,0-14.353-35.5-26.439-43.814,0,0,.755-14.353,12.087-29.461l10.576,37.015,4.532,56.656s12.842,4.532,17.375,2.266c0,0,9.82-36.26,3.022-57.411l-1.511-58.167s19.641-28.706-5.288-62.7l-3.777-12.087S869.684,423.35,865.907,427.882Z" transform="translate(-834.766 -239.912)" fill="#2f2e41"/>
      <path id="Path_47" data-name="Path 47" d="M912.284,768.65s0-7.554-6.8-3.022-28.706,16.619-28.706,16.619-15.108,9.065,6.8,10.576,43.058-3.777,43.058-6.8-2.266-17.49-2.266-17.49S919.838,773.938,912.284,768.65Z" transform="translate(-845.638 -382.007)" fill="#2f2e41"/>
      <path id="Path_48" data-name="Path 48" d="M895.4,284.691l23.739-13.611s35.183.769,32.917,18.9c0,0-6.8,23.418-9.065,21.152l-4.533-4.532s-16.619,33.994-16.619,40.792a41.161,41.161,0,0,1-2.266,12.842l-40.792,6.043s4.532-25.684-2.266-30.216-9.065-16.619-2.266-27.195a87.794,87.794,0,0,0,6.716-12.757,22.65,22.65,0,0,1,12.545-12.112h0Z" transform="translate(-844.995 -178.683)" fill="#940d0d"/>
      <path id="Path_49" data-name="Path 49" d="M985.62,299.383s40.037,32.483,33.238,39.281-43.814,33.994-43.814,33.994-3.777,22.662-11.331,21.907,1.511-27.95,1.511-27.95L996.951,336.4l-17.375-18.13Z" transform="translate(-882.338 -190.354)" fill="#ffb9b9"/>
      <ellipse id="Ellipse_16" data-name="Ellipse 16" cx="10.842" cy="10.842" rx="10.842" ry="10.842" transform="translate(42.408 5.782)" fill="#2f2e41"/>
      <path id="Path_50" data-name="Path 50" d="M894.3,124.695a10.842,10.842,0,0,1,9.757-10.787c-.356-.035-.717-.055-1.083-.055a10.842,10.842,0,0,0,0,21.684c.366,0,.728-.019,1.084-.055A10.843,10.843,0,0,1,894.3,124.695Z" transform="translate(-854.062 -113.852)" fill="#2f2e41"/>
      <path id="Path_51" data-name="Path 51" d="M878.59,180.625s-.226-1.26-9.081,2.06-14.162,27.823-9.735,42.211c1.784,5.8.333,9.979-2.036,12.9-8.889,10.977-5.39,27.463,7.558,33.108q.548.239,1.119.472l5.534,3.32s-7.055-9.282-3.524-21.156a60.878,60.878,0,0,0,1.1-31.165c-.405-1.739-.865-3.531-1.388-5.36-4.427-15.495-2.274-13.705,13.221-29.2,0,0,8.854,6.641,16.6,9.961s14.388,6.641,8.854,17.708S888,236.517,896.852,250.905s9.961,8.854,8.854,14.388h0l-1.107,5.534,6.641-6.641-4.427,8.854s14.388,0,18.815-11.068l2.214,2.214s8.854-15.495-7.747-29.883c0,0-5.534-3.32,2.214-14.388s1.8-34.863-8.164-39.29S878.59,180.625,878.59,180.625Z" transform="translate(-837.848 -140.574)" fill="#2f2e41"/>
    </g>
    <path id="Path_278" data-name="Path 278" d="M859.843,198a20.673,20.673,0,0,0-8.3,39.614,18.217,18.217,0,0,1,.36-4.735l2.661-11.27a7.889,7.889,0,0,1-.663-3.267c0-3.068,1.771-5.351,3.987-5.351,1.894,0,2.784,1.411,2.784,3.1,0,1.894-1.212,4.735-1.828,7.339a3.191,3.191,0,0,0,3.267,3.977c3.911,0,6.553-5.029,6.553-10.995,0-4.527-3.059-7.917-8.6-7.917a9.792,9.792,0,0,0-10.18,9.906,5.966,5.966,0,0,0,1.364,4.053.947.947,0,0,1,.294,1.146c-.1.379-.322,1.3-.426,1.667a.7.7,0,0,1-1.032.511c-2.888-1.174-4.233-4.337-4.233-7.9,0-5.872,4.953-12.908,14.773-12.908,7.889,0,13.088,5.682,13.088,11.838,0,8.116-4.517,14.205-11.156,14.205a5.938,5.938,0,0,1-5.048-2.576s-1.2,4.735-1.458,5.682a17.045,17.045,0,0,1-2.083,4.432A20.673,20.673,0,1,0,859.843,198Z" transform="translate(28.033 -81.236)" fill="#be000f"/>
    <g id="undraw_online_ad_re_ol62" transform="translate(461.445 299.857)">
      <path id="Path_765" data-name="Path 765" d="M483.8,269.15H387.771v-1.979H344.229v1.979H247.806a6.5,6.5,0,0,0-6.5,6.5h0v131.49a6.5,6.5,0,0,0,6.5,6.5H483.8a6.5,6.5,0,0,0,6.5-6.5V275.645a6.5,6.5,0,0,0-6.5-6.5Z" transform="translate(-177.896 -241.014)" fill="#3f3d56"/>
      <rect id="Rectangle_125" data-name="Rectangle 125" width="231.566" height="130.627" transform="translate(72.123 39.616)" fill="#e6e6e6"/>
      <rect id="Rectangle_130" data-name="Rectangle 130" width="212.004" height="112.911" transform="translate(81.944 46.524)" fill="#fff"/>
      <ellipse id="Ellipse_120" data-name="Ellipse 120" cx="2.375" cy="2.375" rx="2.375" ry="2.375" transform="translate(185.333 31.303)" fill="#940d0d"/>
      <path id="Path_766" data-name="Path 766" d="M479.881,647.776h-22.6v-1.628a.323.323,0,0,0-.323-.323h-7.748a.323.323,0,0,0-.323.323h0v1.628h-4.843v-1.628a.323.323,0,0,0-.323-.323h-7.748a.323.323,0,0,0-.323.323h0v1.628h-4.843v-1.628a.323.323,0,0,0-.323-.323h-7.748a.323.323,0,0,0-.323.323h0v1.628h-4.843v-1.628a.323.323,0,0,0-.323-.323H409.5a.323.323,0,0,0-.323.323h0v1.628h-4.843v-1.628a.323.323,0,0,0-.323-.323h-7.748a.323.323,0,0,0-.323.323h0v1.628H391.1v-1.628a.323.323,0,0,0-.323-.323h-7.747a.323.323,0,0,0-.323.323h0v1.628h-4.844v-1.628a.323.323,0,0,0-.323-.323h-60.7a.323.323,0,0,0-.323.323h0v1.628h-4.843v-1.628a.323.323,0,0,0-.323-.323h-7.748a.323.323,0,0,0-.323.323h0v1.628H298.44v-1.628a.323.323,0,0,0-.323-.323H290.37a.323.323,0,0,0-.323.323h0v1.628H285.2v-1.628a.323.323,0,0,0-.323-.323h-7.748a.323.323,0,0,0-.323.323h0v1.628h-4.842v-1.628a.323.323,0,0,0-.323-.323H263.9a.323.323,0,0,0-.323.323h0v1.628H258.73v-1.628a.323.323,0,0,0-.323-.323h-7.748a.323.323,0,0,0-.323.323h0v1.628h-4.843v-1.628a.323.323,0,0,0-.323-.323h-7.75a.323.323,0,0,0-.323.323h0v1.628H222.248a7.748,7.748,0,0,0-7.748,7.748v3.5a7.748,7.748,0,0,0,7.748,7.748H479.881a7.748,7.748,0,0,0,7.748-7.748v-3.5a7.748,7.748,0,0,0-7.748-7.748Z" transform="translate(-160.981 -479.909)" fill="#3f3d56"/>
      <rect id="Rectangle_126" data-name="Rectangle 126" width="93.75" height="98.548" transform="translate(141.071 54.443)" fill="#e6e6e6"/>
      <rect id="Rectangle_128" data-name="Rectangle 128" width="42.405" height="0.08" transform="translate(0 186.868)" fill="#e6e6e6"/>
      <path id="Path_776" data-name="Path 776" d="M1004.154,620.627c5.306,5.694,5.58,14.062,5.58,14.062s-8.329-.863-13.635-6.557-5.58-14.062-5.58-14.062S998.846,614.933,1004.154,620.627Z" transform="translate(-982.011 -459.768)" fill="#940d0d"/>
      <path id="Path_777" data-name="Path 777" d="M1048.672,632.607c-5.694,5.306-14.062,5.58-14.062,5.58s.863-8.329,6.557-13.635,14.063-5.58,14.063-5.58S1054.368,627.3,1048.672,632.607Z" transform="translate(-1009.828 -462.861)" fill="#940d0d"/>
      <path id="Path_778" data-name="Path 778" d="M1021.627,678.354h-20.942a2.141,2.141,0,0,1-1.926-1.205l-4.559-9.372a2.141,2.141,0,0,1,1.926-3.079h30.061a2.141,2.141,0,0,1,1.926,3.079l-4.559,9.373a2.141,2.141,0,0,1-1.926,1.205Z" transform="translate(-984.196 -491.71)" fill="#e5e5e5"/>
      <ellipse id="Ellipse_127" data-name="Ellipse 127" cx="12.46" cy="12.46" rx="12.46" ry="12.46" transform="translate(186.798 57.421)" fill="#a0616a"/>
      <path id="Path_803" data-name="Path 803" d="M531.686,497.1l8.046-50.653a19.2,19.2,0,0,1,24.352-15.421h0a19.147,19.147,0,0,1,13.494,21.946L569.164,498.2Z" transform="translate(-361.096 -343.901)" fill="#940d0d"/>
      <path id="Path_804" data-name="Path 804" d="M605.045,595.095a5.1,5.1,0,0,0,.886-7.772l8.318-16.107-9.367,1-6.463,15.143a5.13,5.13,0,0,0,6.626,7.737Z" transform="translate(-402.347 -432.837)" fill="#a0616a"/>
      <path id="Path_805" data-name="Path 805" d="M614.707,509.192a2.286,2.286,0,0,1-1.231-.584l-3.182-2.94a2.29,2.29,0,0,1-.554-2.564l6.36-15.076-.9-29.788a7.354,7.354,0,0,1,14.573,1.988h0l1.543,18.725a23.524,23.524,0,0,1-4.534,15.927l-9.919,13.409a2.286,2.286,0,0,1-1.621.915A2.258,2.258,0,0,1,614.707,509.192Z" transform="translate(-410.228 -357.547)" fill="#940d0d"/>
      <path id="Path_806" data-name="Path 806" d="M414.806,356.843a5.1,5.1,0,0,0,6.811,3.846l11.59,13.939,2.731-9.016-11.424-11.855a5.13,5.13,0,0,0-9.707,3.085Z" transform="translate(-287.3 -293.75)" fill="#a0616a"/>
      <path id="Path_807" data-name="Path 807" d="M439,377.953a2.287,2.287,0,0,1,1.018-.906l3.949-1.784a2.29,2.29,0,0,1,2.577.49l11.4,11.735,27.782,10.783a7.354,7.354,0,0,1-7.513,12.644h0l-17.845-5.88a23.525,23.525,0,0,1-12.9-10.385l-8.48-14.361a2.285,2.285,0,0,1-.211-1.849,2.259,2.259,0,0,1,.219-.486Z" transform="translate(-302.416 -309.083)" fill="#940d0d"/>
      <path id="Path_808" data-name="Path 808" d="M619.9,502.685l-.507,16.233-9.345,16.24,7.8-18.1Z" transform="translate(-410.532 -389.601)" opacity="0.1"/>
      <path id="Path_696" data-name="Path 696" d="M577.117,348.8c1.285,1.521,3.46,1.95,5.466,2.126a51.451,51.451,0,0,0,13.981-1.142c.284,2.755-.49,5.724,1.132,7.99a37.1,37.1,0,0,0,1.318-8.409,8.054,8.054,0,0,0-.466-3.6,3.312,3.312,0,0,0-2.822-2.08,7.073,7.073,0,0,1,3.155-1.349l-3.942-1.981,1.013-1.039-7.137-.437,2.067-1.313a44.823,44.823,0,0,0-9.39-.3,8.059,8.059,0,0,0-4.153,1.155,3,3,0,0,0-1.128,3.754,5.452,5.452,0,0,0-4.154,3.3,8.8,8.8,0,0,0-.315,4.23,29.989,29.989,0,0,0,1.572,6.651" transform="translate(-386.297 -285.16)" fill="#2f2e41"/>
      <path id="Path_138" data-name="Path 138" d="M521.108,228.724,407.575,254.935a2.16,2.16,0,0,1-2.588-1.617l-6.5-28.163a2.16,2.16,0,0,1,1.617-2.588l113.533-26.211a2.16,2.16,0,0,1,2.588,1.617l6.5,28.163A2.16,2.16,0,0,1,521.108,228.724Z" transform="translate(-277.024 -196.301)" fill="#fff"/>
      <path id="Path_138-2" data-name="Path 138" d="M521.108,228.724,407.575,254.935a2.16,2.16,0,0,1-2.588-1.617l-6.5-28.163a2.16,2.16,0,0,1,1.617-2.588l113.533-26.211a2.16,2.16,0,0,1,2.588,1.617l6.5,28.163A2.16,2.16,0,0,1,521.108,228.724ZM400.3,223.409a1.3,1.3,0,0,0-.97,1.553l6.5,28.163a1.3,1.3,0,0,0,1.553.97l113.533-26.211a1.3,1.3,0,0,0,.97-1.553l-6.5-28.163a1.3,1.3,0,0,0-1.553-.97Z" transform="translate(-277.024 -196.301)" fill="#e6e6e6"/>
      <path id="Path_139" data-name="Path 139" d="M508.275,242.889a1.465,1.465,0,0,0,.654,2.856h.005l67.29-15.535a1.465,1.465,0,0,0-.659-2.855Z" transform="translate(-345.608 -215.869)" fill="#e6e6e6"/>
      <path id="Path_140" data-name="Path 140" d="M513.632,281.221a1.465,1.465,0,1,0,.654,2.856h.005l28.955-6.685a1.465,1.465,0,1,0-.654-2.856h-.005Z" transform="translate(-348.988 -245.636)" fill="#e6e6e6"/>
      <g id="Group_45" data-name="Group 45" transform="translate(135.482 28.424)">
        <ellipse id="Ellipse_18" data-name="Ellipse 18" cx="8.79" cy="8.79" rx="8.79" ry="8.79" fill="#940d0d"/>
        <path id="Path_395" data-name="Path 395" d="M450.793,292.033a1.362,1.362,0,0,1-.859-.081l-.017-.007-3.537-1.606a1.372,1.372,0,0,1,1.136-2.5l2.292,1.043,3.215-7.064a1.37,1.37,0,0,1,1.815-.68h0l-.019.046.02-.046a1.372,1.372,0,0,1,.679,1.815l-3.781,8.31a1.371,1.371,0,0,1-.942.766Z" transform="translate(-442.251 -278.173)" fill="#fff"/>
      </g>
    </g>
    <path id="Path_99" data-name="Path 99" d="M594.584,162.028l-.157-.713h-16v6.605h9.258c-.954,4.592-4.938,6.5-8.587,6.5a9.8,9.8,0,0,1-6.983-2.59,10.307,10.307,0,0,1-.126-14.3,9.6,9.6,0,0,1,7.014-2.6,8.85,8.85,0,0,1,5.934,2.16l4.907-4.876a16.587,16.587,0,0,0-11-4.194,16.419,16.419,0,0,0-16.776,16.65,16.776,16.776,0,0,0,4.55,11.533,17.405,17.405,0,0,0,12.582,5.075,15.476,15.476,0,0,0,11.271-4.729,16.619,16.619,0,0,0,4.33-11.533,18.889,18.889,0,0,0-.21-2.978Zm19.806-.7h-5.83v-5.819h-4.194v5.819h-5.83v4.194h5.83v5.819h4.194v-5.819h5.861Z" transform="translate(121.349 92.471)" fill="#dd4b39"/>
    <path id="Path_284" data-name="Path 284" d="M742.469,288H709.735a3.2,3.2,0,0,0-3.355,3.062v32.807a3.45,3.45,0,0,0,3.355,3.355h32.723a3.282,3.282,0,0,0,3.146-3.355V291.083A3.009,3.009,0,0,0,742.469,288Zm-23.905,32.723h-5.62V303.245h5.62Zm-2.621-20.131h0a3.02,3.02,0,1,1,3.083-3.02,2.883,2.883,0,0,1-3.146,3.009Zm23.151,20.131h-5.641v-9.562c0-2.286-.818-3.848-2.852-3.848a3.062,3.062,0,0,0-2.873,2.1,3.685,3.685,0,0,0-.2,1.374v9.961h-5.62v-17.5h5.62v2.433a5.694,5.694,0,0,1,5.075-2.841c3.68,0,6.469,2.433,6.469,7.675Z" transform="translate(-162.313 -150.559)" fill="#007bb6"/>
    <path id="Path_279" data-name="Path 279" d="M804.159,89.765a20.117,20.117,0,0,1-5.672,1.573,10.034,10.034,0,0,0,4.351-5.484,19.773,19.773,0,0,1-6.291,2.4,9.887,9.887,0,0,0-17.111,6.763,10.133,10.133,0,0,0,.252,2.265,28.047,28.047,0,0,1-20.393-10.349,9.919,9.919,0,0,0,3.083,13.211,9.573,9.573,0,0,1-4.5-1.227v.115a9.9,9.9,0,0,0,7.937,9.709,10.17,10.17,0,0,1-2.6.346,9.971,9.971,0,0,1-1.866-.178,9.9,9.9,0,0,0,9.247,6.868,19.785,19.785,0,0,1-12.288,4.194,19.521,19.521,0,0,1-2.359-.147,27.638,27.638,0,0,0,15.14,4.477c18.212,0,28.173-15.088,28.173-28.183V94.85a20.137,20.137,0,0,0,4.9-5.085Z" transform="translate(-149.927 105.916)" fill="#55acee"/>
    <path id="Path_280" data-name="Path 280" d="M486.384,65.12h-34.9a2.17,2.17,0,0,0-2.17,2.17v34.894a2.17,2.17,0,0,0,2.17,2.17h17.426V88.826h-4.687V83.1h4.687V78.908c0-5.075,3.512-7.832,8.042-7.832,2.17,0,4.5.168,5.033.241v5.242h-3.607c-2.453,0-2.925,1.174-2.925,2.883v3.649h5.861l-.765,5.725h-5.1v15.528h10.915a2.17,2.17,0,0,0,2.16-2.17V67.29a2.17,2.17,0,0,0-2.139-2.17Z" transform="translate(247.246 80.556)" fill="#3b5998"/>
    <g id="Group_5" data-name="Group 5" transform="translate(521.528 254.124)">
      <path id="Path_100" data-name="Path 100" d="M306.485,195.292a8.2,8.2,0,0,1,8.168,8.178v16.346a8.157,8.157,0,0,1-2.4,5.767,8.052,8.052,0,0,1-5.767,2.4H290.129a8.2,8.2,0,0,1-8.168-8.168V203.47a8.2,8.2,0,0,1,8.168-8.178h16.356m0-3.271H290.129A11.47,11.47,0,0,0,278.69,203.47v16.346a11.47,11.47,0,0,0,11.439,11.439h16.356a11.47,11.47,0,0,0,11.439-11.439V203.47A11.47,11.47,0,0,0,306.485,192Z" transform="translate(-278.69 -192)" fill="#e53c5f"/>
      <path id="Path_101" data-name="Path 101" d="M308.475,203.167a2.443,2.443,0,1,1,1.738-.716A2.453,2.453,0,0,1,308.475,203.167ZM297.854,204.8a6.543,6.543,0,1,1-6.543,6.532,6.543,6.543,0,0,1,6.543-6.532m0-3.271a9.8,9.8,0,1,0,6.939,2.868A9.814,9.814,0,0,0,297.854,201.531Z" transform="translate(-278.237 -191.696)" fill="#e53c5f"/>
      <path id="Path_275" data-name="Path 275" d="M306.485,195.292a8.2,8.2,0,0,1,8.168,8.178v16.346a8.157,8.157,0,0,1-2.4,5.767,8.052,8.052,0,0,1-5.767,2.4H290.129a8.2,8.2,0,0,1-8.168-8.168V203.47a8.2,8.2,0,0,1,8.168-8.178h16.356m0-3.271H290.129A11.47,11.47,0,0,0,278.69,203.47v16.346a11.47,11.47,0,0,0,11.439,11.439h16.356a11.47,11.47,0,0,0,11.439-11.439V203.47A11.47,11.47,0,0,0,306.485,192Z" transform="translate(-278.69 -192)" fill="#e53c5f"/>
      <path id="Path_276" data-name="Path 276" d="M308.475,203.167a2.443,2.443,0,1,1,1.738-.716A2.453,2.453,0,0,1,308.475,203.167ZM297.854,204.8a6.543,6.543,0,1,1-6.543,6.532,6.543,6.543,0,0,1,6.543-6.532m0-3.271a9.8,9.8,0,1,0,6.939,2.868A9.814,9.814,0,0,0,297.854,201.531Z" transform="translate(-278.237 -191.696)" fill="#e53c5f"/>
      <path id="Path_282" data-name="Path 282" d="M306.485,195.292a8.2,8.2,0,0,1,8.168,8.178v16.346a8.157,8.157,0,0,1-2.4,5.767,8.052,8.052,0,0,1-5.767,2.4H290.129a8.2,8.2,0,0,1-8.168-8.168V203.47a8.2,8.2,0,0,1,8.168-8.178h16.356m0-3.271H290.129A11.47,11.47,0,0,0,278.69,203.47v16.346a11.47,11.47,0,0,0,11.439,11.439h16.356a11.47,11.47,0,0,0,11.439-11.439V203.47A11.47,11.47,0,0,0,306.485,192Z" transform="translate(-278.69 -192)" fill="#e53c5f"/>
      <path id="Path_283" data-name="Path 283" d="M308.475,203.167a2.443,2.443,0,1,1,1.738-.716A2.453,2.453,0,0,1,308.475,203.167ZM297.854,204.8a6.543,6.543,0,1,1-6.543,6.532,6.543,6.543,0,0,1,6.543-6.532m0-3.271a9.8,9.8,0,1,0,6.939,2.868A9.814,9.814,0,0,0,297.854,201.531Z" transform="translate(-278.237 -191.696)" fill="#e53c5f"/>
    </g>
  </g>
</svg>
