<svg xmlns="http://www.w3.org/2000/svg" xmlns:xlink="http://www.w3.org/1999/xlink" width="992" height="668" viewBox="0 0 992 668">
  <defs>
    <clipPath id="clip-social-media-txt">
      <rect width="992" height="668"/>
    </clipPath>
  </defs>
  <g id="social-media-txt" clip-path="url(#clip-social-media-txt)">
    <rect width="992" height="668" fill="#fff"/>
    <g id="Group_1" data-name="Group 1" transform="translate(788.758 184.096)">
      <rect id="Rectangle_13" data-name="Rectangle 13" width="39.224" height="66.988" transform="translate(23.409 45.726)" fill="#2f2e41"/>
      <path id="Path_40" data-name="Path 40" d="M919.132,174.731c-4.238,12.548-10.736,23.98-23.98,23.98s-23.234-10.757-23.98-23.98c-.953-16.9,10.431-24.05,23.98-23.98C911.158,150.833,924.161,159.84,919.132,174.731Z" transform="translate(-848.66 -131.819)" fill="#2f2e41"/>
      <path id="Path_41" data-name="Path 41" d="M857.836,381.009l-13.85,52.1s-18.467,4.617-16.488,9.233,21.764-3.3,21.764-3.3l17.807-43.529Z" transform="translate(-827.349 -243.939)" fill="#ffb9b9"/>
      <path id="Path_42" data-name="Path 42" d="M908.622,710.219s12.531,12.531,4.617,21.1h16.488l-10.552-26.381Z" transform="translate(-866.923 -401.671)" fill="#ffb9b9"/>
      <path id="Path_43" data-name="Path 43" d="M903.878,752.5s0-5.416-5.283-2.167-22.3,11.916-22.3,11.916-11.739,6.5,5.283,7.583,33.458-2.708,33.458-4.875-1.761-12.541-1.761-12.541S909.747,756.292,903.878,752.5Z" transform="translate(-849.259 -423.268)" fill="#2f2e41"/>
      <path id="Path_44" data-name="Path 44" d="M798.546,649.166l-.659,21.764,12.531,1.979V651.8Z" transform="translate(-741.679 -330.066)" fill="#ffb9b9"/>
      <ellipse id="Ellipse_15" data-name="Ellipse 15" cx="17.807" cy="17.807" rx="17.807" ry="17.807" transform="translate(27.189 36.163)" fill="#ffb9b9"/>
      <path id="Path_45" data-name="Path 45" d="M902.837,241.046s8.574,19.786,1.979,26.381,9.893,0,9.893,0,8.574-12.531,15.169-13.191c0,0-9.893-5.276-9.233-19.126Z" transform="translate(-864.107 -172.896)" fill="#ffb9b9"/>
      <path id="Path_46" data-name="Path 46" d="M863.3,426.827l-1.319,31s-23.743,62-14.51,76.505,31,40.891,31,40.891S891,569.286,891,565.988c0,0-12.531-31-23.083-38.253,0,0,.659-12.531,10.552-25.722l9.233,32.317,3.957,49.465s11.212,3.957,15.169,1.979c0,0,8.574-31.657,2.638-50.124l-1.319-50.784s17.148-25.062-4.617-54.741l-3.3-10.552S866.594,422.871,863.3,426.827Z" transform="translate(-836.107 -262.717)" fill="#2f2e41"/>
      <path id="Path_47" data-name="Path 47" d="M907.133,768.082s0-6.6-5.936-2.638-25.062,14.51-25.062,14.51-13.19,7.914,5.936,9.233,37.593-3.3,37.593-5.936-1.979-15.27-1.979-15.27S913.728,772.7,907.133,768.082Z" transform="translate(-848.946 -430.516)" fill="#2f2e41"/>
      <path id="Path_48" data-name="Path 48" d="M892.194,282.963l20.726-11.884s30.717.672,28.739,16.5c0,0-5.936,20.445-7.914,18.467l-3.957-3.957s-14.51,29.679-14.51,35.615a35.936,35.936,0,0,1-1.979,11.212l-35.614,5.276s3.957-22.424-1.979-26.381-7.914-14.51-1.979-23.743a76.646,76.646,0,0,0,5.864-11.138,19.775,19.775,0,0,1,10.953-10.574h0Z" transform="translate(-848.187 -190.411)" fill="#940d0d"/>
      <path id="Path_49" data-name="Path 49" d="M982.457,299.383s34.955,28.36,29.019,34.3-38.253,29.679-38.253,29.679-3.3,19.786-9.893,19.126,1.319-24.4,1.319-24.4l27.7-26.381-15.169-15.829Z" transform="translate(-892.285 -204.193)" fill="#ffb9b9"/>
      <ellipse id="Ellipse_16" data-name="Ellipse 16" cx="9.466" cy="9.466" rx="9.466" ry="9.466" transform="translate(37.025 5.048)" fill="#2f2e41"/>
      <path id="Path_50" data-name="Path 50" d="M894.026,123.318a9.466,9.466,0,0,1,8.519-9.418c-.311-.031-.626-.048-.946-.048a9.466,9.466,0,0,0,0,18.932c.32,0,.635-.017.947-.048A9.466,9.466,0,0,1,894.026,123.318Z" transform="translate(-858.895 -113.852)" fill="#2f2e41"/>
      <path id="Path_51" data-name="Path 51" d="M875.318,180.376s-.2-1.1-7.928,1.8-12.364,24.291-8.5,36.853c1.558,5.062.291,8.712-1.778,11.266-7.761,9.583-4.706,23.978,6.6,28.906q.479.209.977.413l4.832,2.9a22.1,22.1,0,0,1-3.077-18.471,53.15,53.15,0,0,0,.959-27.209c-.354-1.518-.755-3.083-1.212-4.68-3.865-13.528-1.985-11.966,11.543-25.494,0,0,7.73,5.8,14.494,8.7s12.562,5.8,7.73,15.461-16.427,18.36-8.7,30.921,8.7,7.73,7.73,12.562h0l-.966,4.831,5.8-5.8-3.865,7.73s12.562,0,16.427-9.663l1.933,1.933s7.73-13.528-6.764-26.09c0,0-4.831-2.9,1.933-12.562s1.569-30.438-7.127-34.3S875.318,180.376,875.318,180.376Z" transform="translate(-839.747 -145.408)" fill="#2f2e41"/>
    </g>
    <path id="Path_278" data-name="Path 278" d="M857.217,198a18.049,18.049,0,0,0-7.243,34.586,15.912,15.912,0,0,1,.314-4.134l2.323-9.839a6.89,6.89,0,0,1-.579-2.853c0-2.679,1.546-4.671,3.481-4.671a2.4,2.4,0,0,1,2.431,2.7c0,1.654-1.058,4.134-1.6,6.408a2.786,2.786,0,0,0,2.853,3.473c3.415,0,5.722-4.39,5.722-9.6,0-3.952-2.671-6.912-7.508-6.912a8.549,8.549,0,0,0-8.888,8.649,5.208,5.208,0,0,0,1.191,3.539.827.827,0,0,1,.256,1c-.091.331-.281,1.133-.372,1.455a.612.612,0,0,1-.9.446c-2.522-1.025-3.7-3.787-3.7-6.9,0-5.126,4.324-11.27,12.9-11.27,6.887,0,11.427,4.961,11.427,10.335,0,7.086-3.944,12.4-9.74,12.4a5.184,5.184,0,0,1-4.407-2.249s-1.05,4.134-1.273,4.961a14.881,14.881,0,0,1-1.819,3.87,18.049,18.049,0,1,0,5.126-35.4Z" transform="translate(33.532 -20.596)" fill="#be000f"/>
    <g id="undraw_online_ad_re_ol62" transform="translate(518.445 337.257)">
      <path id="Path_765" data-name="Path 765" d="M453.02,268.9H369.181v-1.728H331.166V268.9H246.982a5.671,5.671,0,0,0-5.672,5.671h0v114.8a5.672,5.672,0,0,0,5.671,5.672H453.02a5.672,5.672,0,0,0,5.672-5.672V274.57a5.671,5.671,0,0,0-5.671-5.671Z" transform="translate(-185.945 -244.334)" fill="#3f3d56"/>
      <rect id="Rectangle_125" data-name="Rectangle 125" width="202.174" height="114.047" transform="translate(62.969 34.587)" fill="#e6e6e6"/>
      <rect id="Rectangle_130" data-name="Rectangle 130" width="185.095" height="98.579" transform="translate(71.543 40.618)" fill="#fff"/>
      <ellipse id="Ellipse_120" data-name="Ellipse 120" cx="2.074" cy="2.074" rx="2.074" ry="2.074" transform="translate(161.809 27.33)" fill="#940d0d"/>
      <path id="Path_766" data-name="Path 766" d="M446.2,647.529H426.466v-1.422a.282.282,0,0,0-.282-.282h-6.765a.282.282,0,0,0-.282.282h0v1.422h-4.228v-1.422a.282.282,0,0,0-.282-.282h-6.765a.282.282,0,0,0-.282.282h0v1.422h-4.228v-1.422a.282.282,0,0,0-.282-.282h-6.765a.282.282,0,0,0-.282.282h0v1.422H391.8v-1.422a.282.282,0,0,0-.282-.282h-6.765a.282.282,0,0,0-.282.282h0v1.422h-4.228v-1.422a.282.282,0,0,0-.282-.282h-6.765a.282.282,0,0,0-.282.282h0v1.422h-4.228v-1.422a.282.282,0,0,0-.282-.282h-6.763a.282.282,0,0,0-.282.282h0v1.422h-4.229v-1.422a.282.282,0,0,0-.282-.282H303.853a.282.282,0,0,0-.282.282h0v1.422h-4.228v-1.422a.282.282,0,0,0-.282-.282H292.3a.282.282,0,0,0-.282.282h0v1.422h-4.228v-1.422a.282.282,0,0,0-.282-.282h-6.765a.282.282,0,0,0-.282.282h0v1.422h-4.228v-1.422a.282.282,0,0,0-.282-.282h-6.765a.282.282,0,0,0-.282.282h0v1.422h-4.227v-1.422a.282.282,0,0,0-.282-.282h-6.766a.282.282,0,0,0-.282.282h0v1.422h-4.228v-1.422a.282.282,0,0,0-.282-.282h-6.765a.282.282,0,0,0-.282.282h0v1.422H241.56v-1.422a.282.282,0,0,0-.282-.282h-6.766a.282.282,0,0,0-.282.282h0v1.422H221.265a6.765,6.765,0,0,0-6.765,6.765v3.059a6.765,6.765,0,0,0,6.765,6.765H446.2a6.765,6.765,0,0,0,6.765-6.765v-3.059a6.765,6.765,0,0,0-6.765-6.765Z" transform="translate(-167.774 -500.968)" fill="#3f3d56"/>
      <rect id="Rectangle_126" data-name="Rectangle 126" width="81.85" height="86.039" transform="translate(123.165 47.532)" fill="#e6e6e6"/>
      <rect id="Rectangle_128" data-name="Rectangle 128" width="37.023" height="0.07" transform="translate(0 163.149)" fill="#e6e6e6"/>
      <path id="Path_776" data-name="Path 776" d="M1002.423,619.794c4.633,4.971,4.872,12.277,4.872,12.277s-7.272-.753-11.9-5.724-4.872-12.278-4.872-12.278S997.789,614.823,1002.423,619.794Z" transform="translate(-983.091 -479.354)" fill="#940d0d"/>
      <path id="Path_777" data-name="Path 777" d="M1046.888,630.876c-4.971,4.633-12.278,4.872-12.278,4.872s.753-7.271,5.724-11.9,12.278-4.872,12.278-4.872S1051.86,626.244,1046.888,630.876Z" transform="translate(-1012.973 -482.676)" fill="#940d0d"/>
      <path id="Path_778" data-name="Path 778" d="M1018.118,676.621H999.834a1.869,1.869,0,0,1-1.682-1.052l-3.981-8.183a1.869,1.869,0,0,1,1.682-2.688H1022.1a1.869,1.869,0,0,1,1.682,2.688l-3.981,8.183a1.869,1.869,0,0,1-1.682,1.052Z" transform="translate(-985.438 -513.667)" fill="#e5e5e5"/>
      <ellipse id="Ellipse_127" data-name="Ellipse 127" cx="10.878" cy="10.878" rx="10.878" ry="10.878" transform="translate(163.088 50.133)" fill="#a0616a"/>
      <path id="Path_803" data-name="Path 803" d="M531.686,488.611l7.025-44.224a16.767,16.767,0,0,1,21.261-13.464h0a16.716,16.716,0,0,1,11.782,19.161l-7.347,39.494Z" transform="translate(-382.749 -354.861)" fill="#940d0d"/>
      <path id="Path_804" data-name="Path 804" d="M604.033,592.064a4.454,4.454,0,0,0,.773-6.785l7.262-14.062-8.178.873-5.642,13.221a4.479,4.479,0,0,0,5.785,6.755Z" transform="translate(-427.063 -450.402)" fill="#a0616a"/>
      <path id="Path_805" data-name="Path 805" d="M614.054,501.917a2,2,0,0,1-1.075-.51L610.2,498.84a2,2,0,0,1-.483-2.238l5.553-13.162-.788-26.007a6.421,6.421,0,0,1,12.723,1.736h0l1.347,16.348a20.539,20.539,0,0,1-3.958,13.905l-8.66,11.707a2,2,0,0,1-1.415.8A1.971,1.971,0,0,1,614.054,501.917Z" transform="translate(-435.53 -369.521)" fill="#940d0d"/>
      <path id="Path_806" data-name="Path 806" d="M414.8,356.071a4.454,4.454,0,0,0,5.946,3.358L430.86,371.6l2.385-7.871-9.974-10.35a4.479,4.479,0,0,0-8.475,2.693Z" transform="translate(-303.473 -300.987)" fill="#a0616a"/>
      <path id="Path_807" data-name="Path 807" d="M438.961,377.586a2,2,0,0,1,.888-.791l3.448-1.557a2,2,0,0,1,2.25.428l9.955,10.245,24.256,9.414a6.42,6.42,0,0,1-6.559,11.039h0l-15.58-5.134a20.539,20.539,0,0,1-11.262-9.067l-7.4-12.539a2,2,0,0,1-.184-1.614,1.973,1.973,0,0,1,.191-.424Z" transform="translate(-319.712 -317.458)" fill="#940d0d"/>
      <path id="Path_808" data-name="Path 808" d="M618.646,502.685l-.443,14.173-8.159,14.179,6.813-15.8Z" transform="translate(-435.856 -403.954)" opacity="0.1"/>
      <path id="Path_696" data-name="Path 696" d="M576.421,347.316c1.122,1.328,3.021,1.7,4.772,1.856a44.92,44.92,0,0,0,12.206-1c.248,2.4-.428,5,.988,6.976a32.392,32.392,0,0,0,1.151-7.342,7.032,7.032,0,0,0-.407-3.144,2.892,2.892,0,0,0-2.464-1.816,6.175,6.175,0,0,1,2.754-1.178l-3.442-1.729.884-.907-6.231-.381,1.8-1.147a39.134,39.134,0,0,0-8.2-.258,7.036,7.036,0,0,0-3.626,1.008,2.619,2.619,0,0,0-.984,3.278A4.76,4.76,0,0,0,572,344.413a7.684,7.684,0,0,0-.275,3.693,26.179,26.179,0,0,0,1.373,5.807" transform="translate(-409.822 -291.758)" fill="#2f2e41"/>
      <path id="Path_138" data-name="Path 138" d="M505.536,224.609l-99.122,22.884a1.886,1.886,0,0,1-2.259-1.412l-5.677-24.588a1.886,1.886,0,0,1,1.412-2.259l99.122-22.884a1.886,1.886,0,0,1,2.259,1.412l5.677,24.588A1.886,1.886,0,0,1,505.536,224.609Z" transform="translate(-292.434 -196.301)" fill="#fff"/>
      <path id="Path_138-2" data-name="Path 138" d="M505.536,224.609l-99.122,22.884a1.886,1.886,0,0,1-2.259-1.412l-5.677-24.588a1.886,1.886,0,0,1,1.412-2.259l99.122-22.884a1.886,1.886,0,0,1,2.259,1.412l5.677,24.588A1.886,1.886,0,0,1,505.536,224.609Zm-105.477-4.64a1.132,1.132,0,0,0-.847,1.356l5.677,24.588a1.131,1.131,0,0,0,1.356.847l99.122-22.884a1.131,1.131,0,0,0,.847-1.356l-5.677-24.588a1.131,1.131,0,0,0-1.356-.847Z" transform="translate(-292.434 -196.301)" fill="#e6e6e6"/>
      <path id="Path_139" data-name="Path 139" d="M508.131,240.913a1.279,1.279,0,0,0,.571,2.493h0l58.749-13.563a1.279,1.279,0,1,0-.575-2.492Z" transform="translate(-366.111 -217.322)" fill="#e6e6e6"/>
      <path id="Path_140" data-name="Path 140" d="M513.488,280.367a1.279,1.279,0,1,0,.571,2.493h0l25.28-5.836a1.279,1.279,0,1,0-.571-2.493h0Z" transform="translate(-369.741 -249.299)" fill="#e6e6e6"/>
      <g id="Group_45" data-name="Group 45" transform="translate(118.286 24.816)">
        <ellipse id="Ellipse_18" data-name="Ellipse 18" cx="7.674" cy="7.674" rx="7.674" ry="7.674" fill="#940d0d"/>
        <path id="Path_395" data-name="Path 395" d="M450.131,290.635a1.189,1.189,0,0,1-.75-.071l-.015-.007-3.088-1.4a1.2,1.2,0,0,1,.992-2.18l2,.911,2.807-6.168a1.2,1.2,0,0,1,1.584-.593h0l-.017.04.018-.04a1.2,1.2,0,0,1,.593,1.585l-3.3,7.255a1.2,1.2,0,0,1-.823.669Z" transform="translate(-442.673 -278.534)" fill="#fff"/>
      </g>
    </g>
    <path id="Path_99" data-name="Path 99" d="M590.457,160.249l-.137-.622H576.35v5.767h8.083c-.833,4.009-4.312,5.676-7.5,5.676a8.559,8.559,0,0,1-6.1-2.261,9,9,0,0,1-.11-12.486,8.385,8.385,0,0,1,6.124-2.27,7.726,7.726,0,0,1,5.181,1.886l4.284-4.257a14.481,14.481,0,0,0-9.6-3.662,14.335,14.335,0,0,0-14.646,14.537,14.647,14.647,0,0,0,3.973,10.069,15.2,15.2,0,0,0,10.985,4.431,13.511,13.511,0,0,0,9.841-4.128,14.509,14.509,0,0,0,3.781-10.069,16.486,16.486,0,0,0-.183-2.6Zm17.292-.613h-5.09v-5.08H599v5.08h-5.09V163.3H599v5.08h3.662V163.3h5.117Z" transform="translate(150.174 137.408)" fill="#dd4b39"/>
    <path id="Path_284" data-name="Path 284" d="M737.888,288H709.309a2.792,2.792,0,0,0-2.929,2.673v28.643a3.012,3.012,0,0,0,2.929,2.929h28.57a2.865,2.865,0,0,0,2.746-2.929V290.691A2.627,2.627,0,0,0,737.888,288Zm-20.871,28.57H712.11V301.31h4.907Zm-2.289-17.576h0a2.636,2.636,0,1,1,2.691-2.636,2.517,2.517,0,0,1-2.746,2.627Zm20.212,17.576h-4.925v-8.348c0-2-.714-3.36-2.49-3.36a2.673,2.673,0,0,0-2.508,1.831,3.218,3.218,0,0,0-.174,1.2v8.7h-4.906V301.31h4.906v2.124a4.971,4.971,0,0,1,4.431-2.481c3.213,0,5.648,2.124,5.648,6.7Z" transform="translate(-115.8 -92.543)" fill="#007bb6"/>
    <path id="Path_279" data-name="Path 279" d="M798.04,89.175a17.564,17.564,0,0,1-4.952,1.373,8.76,8.76,0,0,0,3.8-4.788,17.264,17.264,0,0,1-5.492,2.1,8.632,8.632,0,0,0-14.939,5.9,8.85,8.85,0,0,0,.22,1.977,24.487,24.487,0,0,1-17.8-9.035,8.66,8.66,0,0,0,2.691,11.534,8.358,8.358,0,0,1-3.927-1.071v.1a8.641,8.641,0,0,0,6.93,8.477,8.879,8.879,0,0,1-2.27.3,8.706,8.706,0,0,1-1.629-.156,8.641,8.641,0,0,0,8.074,6,17.274,17.274,0,0,1-10.728,3.662,17.045,17.045,0,0,1-2.06-.128,24.13,24.13,0,0,0,13.219,3.909c15.9,0,24.6-13.173,24.6-24.606V93.615a17.582,17.582,0,0,0,4.275-4.44Z" transform="translate(-111.278 157.129)" fill="#55acee"/>
    <path id="Path_280" data-name="Path 280" d="M481.679,65.12H451.2a1.9,1.9,0,0,0-1.895,1.895V97.479a1.9,1.9,0,0,0,1.895,1.895h15.214V85.817h-4.092v-5h4.092V77.158c0-4.431,3.067-6.838,7.021-6.838,1.895,0,3.927.146,4.394.211v4.577h-3.149c-2.142,0-2.554,1.025-2.554,2.517V80.81h5.117l-.668,5h-4.449V99.365h9.529a1.9,1.9,0,0,0,1.886-1.895V67.015a1.9,1.9,0,0,0-1.868-1.895Z" transform="translate(274.404 137.527)" fill="#3b5998"/>
    <g id="Group_5" data-name="Group 5" transform="translate(570.902 297.33)">
      <path id="Path_100" data-name="Path 100" d="M302.957,194.874a7.158,7.158,0,0,1,7.131,7.14v14.271a7.122,7.122,0,0,1-2.1,5.035,7.03,7.03,0,0,1-5.035,2.1h-14.28a7.158,7.158,0,0,1-7.131-7.131V202.015a7.158,7.158,0,0,1,7.131-7.14h14.28m0-2.856h-14.28a10.014,10.014,0,0,0-9.987,10v14.271a10.014,10.014,0,0,0,9.987,9.987h14.28a10.015,10.015,0,0,0,9.987-9.987V202.015A10.015,10.015,0,0,0,302.957,192Z" transform="translate(-278.69 -192)" fill="#e53c5f"/>
      <path id="Path_101" data-name="Path 101" d="M305.881,202.544a2.133,2.133,0,1,1,1.517-.625A2.142,2.142,0,0,1,305.881,202.544Zm-9.273,1.428a5.712,5.712,0,1,1-5.712,5.7,5.712,5.712,0,0,1,5.712-5.7m0-2.856a8.559,8.559,0,1,0,6.058,2.5A8.568,8.568,0,0,0,296.608,201.116Z" transform="translate(-279.481 -192.53)" fill="#e53c5f"/>
      <path id="Path_275" data-name="Path 275" d="M302.957,194.874a7.158,7.158,0,0,1,7.131,7.14v14.271a7.122,7.122,0,0,1-2.1,5.035,7.03,7.03,0,0,1-5.035,2.1h-14.28a7.158,7.158,0,0,1-7.131-7.131V202.015a7.158,7.158,0,0,1,7.131-7.14h14.28m0-2.856h-14.28a10.014,10.014,0,0,0-9.987,10v14.271a10.014,10.014,0,0,0,9.987,9.987h14.28a10.015,10.015,0,0,0,9.987-9.987V202.015A10.015,10.015,0,0,0,302.957,192Z" transform="translate(-278.69 -192)" fill="#e53c5f"/>
      <path id="Path_276" data-name="Path 276" d="M305.881,202.544a2.133,2.133,0,1,1,1.517-.625A2.142,2.142,0,0,1,305.881,202.544Zm-9.273,1.428a5.712,5.712,0,1,1-5.712,5.7,5.712,5.712,0,0,1,5.712-5.7m0-2.856a8.559,8.559,0,1,0,6.058,2.5A8.568,8.568,0,0,0,296.608,201.116Z" transform="translate(-279.481 -192.53)" fill="#e53c5f"/>
      <path id="Path_282" data-name="Path 282" d="M302.957,194.874a7.158,7.158,0,0,1,7.131,7.14v14.271a7.122,7.122,0,0,1-2.1,5.035,7.03,7.03,0,0,1-5.035,2.1h-14.28a7.158,7.158,0,0,1-7.131-7.131V202.015a7.158,7.158,0,0,1,7.131-7.14h14.28m0-2.856h-14.28a10.014,10.014,0,0,0-9.987,10v14.271a10.014,10.014,0,0,0,9.987,9.987h14.28a10.015,10.015,0,0,0,9.987-9.987V202.015A10.015,10.015,0,0,0,302.957,192Z" transform="translate(-278.69 -192)" fill="#e53c5f"/>
      <path id="Path_283" data-name="Path 283" d="M305.881,202.544a2.133,2.133,0,1,1,1.517-.625A2.142,2.142,0,0,1,305.881,202.544Zm-9.273,1.428a5.712,5.712,0,1,1-5.712,5.7,5.712,5.712,0,0,1,5.712-5.7m0-2.856a8.559,8.559,0,1,0,6.058,2.5A8.568,8.568,0,0,0,296.608,201.116Z" transform="translate(-279.481 -192.53)" fill="#e53c5f"/>
    </g>
  </g>
</svg>
