<svg xmlns="http://www.w3.org/2000/svg" xmlns:xlink="http://www.w3.org/1999/xlink" width="992" height="502" viewBox="0 0 992 502">
  <defs>
    <clipPath id="clip-Website_Development">
      <rect width="992" height="502"/>
    </clipPath>
  </defs>
  <g id="Website_Development" data-name="Website Development" clip-path="url(#clip-Website_Development)">
    <rect width="992" height="502" fill="#fff"/>
    <path id="Path_606" data-name="Path 606" d="M762.91,221.165H746.2a1.235,1.235,0,0,0,0,2.47h16.71a1.235,1.235,0,1,0,0-2.47Z" transform="translate(85.83 -176)" fill="#fff"/>
    <path id="Path_607" data-name="Path 607" d="M762.91,225.8H746.2a1.235,1.235,0,0,0,0,2.47h16.71a1.235,1.235,0,1,0,0-2.47Z" transform="translate(85.83 -176)" fill="#fff"/>
    <path id="Path_608" data-name="Path 608" d="M762.91,230.445H746.2a1.24,1.24,0,0,0,0,2.48h16.71a1.24,1.24,0,1,0,0-2.48Z" transform="translate(85.83 -176)" fill="#fff"/>
    <path id="Path_618" data-name="Path 618" d="M544.924,452.837h-6.847l-3.258-26.411h10.105Z" transform="translate(337.66 28.85)" fill="#ffb6b6"/>
    <path id="Path_619" data-name="Path 619" d="M842.368,681.135h-4.91l-.876-4.636-2.245,4.636H821.313a2.927,2.927,0,0,1-1.663-5.337l10.4-7.183v-4.686l10.939.653Z" transform="translate(43.83 -187.585)" fill="#2f2e41"/>
    <path id="Path_620" data-name="Path 620" d="M505.569,446.982l-6.447,2.308-11.97-23.766,9.515-3.406Z" transform="translate(337.66 28.85)" fill="#ffb6b6"/>
    <path id="Path_621" data-name="Path 621" d="M807.68,670.127l-4.241,2.474-3.093-3.563.4,5.135-11.249,6.562a2.928,2.928,0,0,1-4.126-3.771l5.364-11.445-2.362-4.048,9.778-4.948Z" transform="translate(43.83 -187.585)" fill="#2f2e41"/>
    <path id="Path_622" data-name="Path 622" d="M840.05,653.135h-.082l-1.455-47.462a12.411,12.411,0,0,0-.163-11.728l-.208-.377.54-2.5a15.953,15.953,0,0,0-.912-9.6l-1.358-44.274c4.851-31.437-17.887-56.054-17.887-56.054H782.143l-6.063,29.658L756.667,585a9.822,9.822,0,0,0-.952,8.949l27.569,54.542-.213.108a1.8,1.8,0,0,0-.734,2.369c.36,1.044,1.273,1.676,2.039,1.412l10.747-5.436a1.8,1.8,0,0,0,.734-2.369c-.36-1.044-1.273-1.676-2.039-1.412l-1.244.629-8.318-41-.294-8.366.606-9.491,17.887-40.631L813.067,596.8l15.638,56.862a1.994,1.994,0,0,0,1.345,3.472h10a2,2,0,0,0,0-4Z" transform="translate(43.83 -187.585)" fill="#2f2e41"/>
    <path id="Path_623" data-name="Path 623" d="M822.59,460.135l-.97,10.84s-.42,9-1.75,10.99-37.34,2.23-37.34,2.23-2.38-12.83-4.43-24.06Z" transform="translate(43.83 -187.585)" fill="#ffb6b6"/>
    <circle id="Ellipse_68" data-name="Ellipse 68" cx="18.508" cy="18.508" r="18.508" transform="translate(829.875 167.993)" fill="#ffb6b6"/>
    <path id="Path_624" data-name="Path 624" d="M814.05,396.135,799.2,397.883a3.031,3.031,0,0,0-2.607,2.363l-2.362,10.81L779.5,428.4s-5.288,9.915-3.3,21.152,2.854,19.586,2.854,19.586,39.5,14.811,40.824,12.828,1.751-10.99,1.751-10.99l5.288-58.828s-5.949-9.915-9.254-9.915C815.526,402.158,815.8,397.357,814.05,396.135Z" transform="translate(43.83 -187.585)" fill="#af0505"/>
    <path id="Path_625" data-name="Path 625" d="M513.661,217.71l-6.609,48.913-6.933.361Z" transform="translate(337.66 28.85)" opacity="0.2"/>
    <ellipse id="Ellipse_69" data-name="Ellipse 69" cx="3.772" cy="4.526" rx="3.772" ry="4.526" transform="translate(818.706 276.115)" fill="#af0505"/>
    <path id="Path_626" data-name="Path 626" d="M804.489,528.668a7.585,7.585,0,0,0-1-11.589l12.382-59.926-13.359,4.214-9.962,57.973a7.627,7.627,0,0,0,11.935,9.327Z" transform="translate(43.83 -187.585)" fill="#ffb6b6"/>
    <path id="Path_627" data-name="Path 627" d="M814.337,403.84s8.9-3.853,14.306,5.848-2.4,43.418-3.489,48.89-16.1,31.557-16.1,31.557l-15-3Z" transform="translate(43.83 -187.585)" fill="#af0505"/>
    <path id="Path_628" data-name="Path 628" d="M796.134,356.394c6.417-4.414,12.069-5.086,16.711-3.834a6.1,6.1,0,0,1,2.441-2.168c3.621-9.123,14.639-14.6,24.095-11.938,9.517,2.681,16.083,13.222,14.293,22.946-1.11,6.027-4.9,11.246-6.429,17.182-2.953,11.49,4.251,24.652,15.522,28.356-10.671,2.143-22.418-4.376-26.246-14.565-1.859-4.949-1.972-10.352-2.208-15.634s-.662-10.722-3.055-15.436a15.774,15.774,0,0,0-7.549-7.324,6.021,6.021,0,0,1-.879,5.421c2.5,3.135,3.865,6.525,3.865,8.556,5.2,9.5-2.236,17.664-11.738,22.862a19.467,19.467,0,0,1-12.438,2.168l-.4-1.7-.539,1.529-1.8,5.125q-3.111,1.505-6.169,3.3c.774-3.636,1.4-7.266,1.832-10.815.6-4.83-1.484-12.021-2.984-16.394a25.814,25.814,0,0,1-1.413-8.377v-.125l-1.461,4.694-5.32-2.269C785.259,362.279,784.269,355.835,796.134,356.394Z" transform="translate(43.83 -187.585)" fill="#2f2e41"/>
    <path id="Path_629" data-name="Path 629" d="M842.062,682.04a.857.857,0,0,1-.855.855H679.355a.855.855,0,0,1,0-1.71H841.207a.852.852,0,0,1,.855.855Z" transform="translate(90.938 -188.25)" fill="#ccc"/>
    <g id="Group_16" data-name="Group 16" transform="translate(0 -60.302)">
      <path id="Path_651" data-name="Path 651" d="M5073.748-444.044c-127.626-118.473-71.12-212.246,16.9-218.08s173.913,85.778,164.979,129.919S5201.375-325.571,5073.748-444.044Z" transform="matrix(-0.5, 0.866, -0.866, -0.5, 2696.344, -4463.66)" fill="#fedf03" opacity="0.2"/>
      <circle id="Ellipse_56" data-name="Ellipse 56" cx="8.512" cy="8.512" r="8.512" transform="translate(304.313 171.715)" fill="#af0505"/>
      <path id="Path_594" data-name="Path 594" d="M383.414,612.666a5.385,5.385,0,0,0,4.231,2.866c.455.045.325.743-.127.7a6.034,6.034,0,0,1-4.687-3.16.367.367,0,0,1,.09-.494.357.357,0,0,1,.494.09Z" transform="translate(5.83 -114.145)" fill="#fff"/>
      <path id="Path_604" data-name="Path 604" d="M636.519,578.468a5.385,5.385,0,0,0,4.921-1.376c.328-.318.777.232.451.548a6.035,6.035,0,0,1-5.441,1.534.367.367,0,0,1-.319-.388.357.357,0,0,1,.388-.319Z" transform="translate(-5.29 -151.133)" fill="#fff"/>
      <path id="Path_611" data-name="Path 611" d="M546.591,640.167c-6.359-23.916,7.762-47.226,24.263-63.363,8.794-8.6,18.587-16.076,28.137-23.8a300.506,300.506,0,0,0,26.135-23.537c15.921-16.3,29.808-34.918,39.005-55.851,8.746-19.906,12.88-41.591,10.832-63.311-1.942-20.6-9.326-40.863-22.908-56.668q-2.539-2.954-5.341-5.663c-1-.973-2.537.559-1.534,1.534,15.167,14.728,24,34.686,26.983,55.45,3.081,21.413-.094,43.243-8.1,63.262-8.53,21.326-22.094,40.356-37.823,56.962a279,279,0,0,1-25.233,23.394c-9.488,7.816-19.347,15.2-28.381,23.553-16.651,15.393-31.616,36.568-29.56,60.4a47.975,47.975,0,0,0,1.436,8.209,1.085,1.085,0,0,0,2.091-.577Z" transform="translate(-5.29 -151.133)" fill="#e6e6e6"/>
      <g id="Group_12" data-name="Group 12" transform="translate(-91.12 -35.133)">
        <path id="Path_584" data-name="Path 584" d="M591.65,282.415a95.262,95.262,0,0,0-13.95,27.64,168.649,168.649,0,0,0-6.2,26.5c-.66-.26-1.31-.54-1.95-.85a28.894,28.894,0,0,1,12.61-54.89,28.594,28.594,0,0,1,7.28.93C590.19,281.935,590.93,282.155,591.65,282.415Z" transform="translate(85.83 -116)" fill="#af0505"/>
        <circle id="Ellipse_61" data-name="Ellipse 61" cx="17.492" cy="17.492" r="17.492" transform="translate(562.896 450.46)" fill="#f2f2f2"/>
        <circle id="Ellipse_62" data-name="Ellipse 62" cx="6.507" cy="6.507" r="6.507" transform="translate(560.882 303.847)" fill="#af0505"/>
        <circle id="Ellipse_63" data-name="Ellipse 63" cx="6.507" cy="6.507" r="6.507" transform="translate(471.405 376.466)" fill="#f0f0f0"/>
        <path id="Path_605" data-name="Path 605" d="M832.293,216.435H296.827a2.873,2.873,0,0,0-3,2.711V235.1a2.874,2.874,0,0,0,3,2.721H832.293a2.874,2.874,0,0,0,3-2.721V219.146a2.873,2.873,0,0,0-3-2.711Z" transform="translate(85.83 -116)" fill="#af0505"/>
        <circle id="Ellipse_90" data-name="Ellipse 90" cx="3.822" cy="3.822" r="3.822" transform="translate(391.463 106.448)" fill="#fff"/>
        <circle id="Ellipse_91" data-name="Ellipse 91" cx="3.822" cy="3.822" r="3.822" transform="translate(405.97 106.448)" fill="#fff"/>
        <circle id="Ellipse_92" data-name="Ellipse 92" cx="3.822" cy="3.822" r="3.822" transform="translate(420.478 106.448)" fill="#fff"/>
        <path id="Path_155" data-name="Path 155" d="M311.8,354.463c-1.388,0-2.511,1.807-2.508,4.026s1.124,4.006,2.508,4.01H500.288c1.388,0,2.511-1.807,2.508-4.026s-1.124-4.006-2.508-4.01Z" transform="translate(85.83 -116)" fill="#e6e6e6"/>
        <path id="Path_156" data-name="Path 156" d="M311.8,377.746c-1.388,0-2.511,1.807-2.508,4.026s1.124,4.006,2.508,4.01H500.288c1.388,0,2.511-1.807,2.508-4.026s-1.124-4.006-2.508-4.01Z" transform="translate(85.83 -116)" fill="#e6e6e6"/>
        <path id="Path_157" data-name="Path 157" d="M311.8,400.746c-1.388,0-2.511,1.807-2.508,4.026s1.124,4.006,2.508,4.01H432.788c1.388,0,2.511-1.807,2.508-4.026s-1.124-4.006-2.508-4.01Z" transform="translate(85.83 -116)" fill="#e6e6e6"/>
        <path id="Path_612" data-name="Path 612" d="M613.18,504.015a1.085,1.085,0,0,1-1.87,1.1q-3.735-6.4-7.05-13.03c-1.49-3-2.92-6.04-4.26-9.11a227.7,227.7,0,0,1-18.76-108.54,213.8,213.8,0,0,1,4.39-30.23c.45-2.02.93-4.04,1.46-6.04.8-.13,1.58-.3,2.35-.5-4.7,17.04-6.59,35.01-6.65,52.59a225.723,225.723,0,0,0,7.61,58.91,221.6,221.6,0,0,0,22.78,54.85Z" transform="translate(85.83 -116)" fill="#e6e6e6"/>
        <path id="Path_613" data-name="Path 613" d="M755.62,445.215c-8.13,17.49-21.79,31.85-37.11,43.29-17.37,12.97-37.04,22.33-56.53,31.62-1.25.6-2.35-1.27-1.09-1.87,4.65-2.22,9.3-4.44,13.92-6.7,18.48-9.07,36.8-19.05,52.27-32.79,14.31-12.71,25.97-28.54,31.29-47.11,5.55-19.33,4.5-40.23-1.47-59.33a130.026,130.026,0,0,0-15.79-32.74q-3.36-5.085-7.11-9.89-2.73-3.495-5.64-6.85a186.9,186.9,0,0,0-20.62-20.25,118.357,118.357,0,0,0-25.3-16.7,72.23,72.23,0,0,0-30.01-7.26,53.9,53.9,0,0,0-28.01,7.4,63.353,63.353,0,0,0-15.44,12.92c-.29-.73-.61-1.45-.97-2.15,7.64-8.45,17.17-15.09,28.26-18.24,20.49-5.82,42.12,1.01,59.41,12.31a159.231,159.231,0,0,1,23.53,19.18c2.69,2.61,5.31,5.3,7.83,8.07q4.56,4.98,8.71,10.31s.02.01.02.02q1.4,1.785,2.74,3.62c11.69,15.9,20.42,34.15,23.9,53.66C765.97,405.685,764.21,426.725,755.62,445.215Z" transform="translate(85.83 -116)" fill="#e6e6e6"/>
        <path id="Path_614" data-name="Path 614" d="M741.88,424.255c-8.12,17.49-21.78,31.85-37.11,43.29-16.61,12.39-35.32,21.5-53.96,30.39-.85.41-1.71.81-2.56,1.22a1.074,1.074,0,0,1-.89.04,1.039,1.039,0,0,1-.21-1.91c.72-.35,1.45-.69,2.17-1.03,1.24-.6,2.47-1.19,3.71-1.78q4.035-1.92,8.05-3.89c18.47-9.06,36.8-19.05,52.26-32.79,14.32-12.71,25.98-28.54,31.3-47.11,5.54-19.33,4.49-40.22-1.48-59.32a124.727,124.727,0,0,0-9.16-21.67c-2.13-3.96-4.46-7.83-6.96-11.57a158.221,158.221,0,0,0-12.42-16.25,185.821,185.821,0,0,0-20.61-20.24,118.3,118.3,0,0,0-25.31-16.7,72.2,72.2,0,0,0-30-7.27,53.936,53.936,0,0,0-28.02,7.4,65.414,65.414,0,0,0-19.03,17.35,95.262,95.262,0,0,0-13.95,27.64,168.643,168.643,0,0,0-6.2,26.5,221.1,221.1,0,0,0-2.45,32.73,226.223,226.223,0,0,0,7.61,58.92,222.141,222.141,0,0,0,22.78,54.85.918.918,0,0,1,.07.14,1.086,1.086,0,0,1-1.94.95q-3.735-6.39-7.04-13.03a227.538,227.538,0,0,1-23.03-117.65q.66-8.91,2.05-17.76.975-6.27,2.35-12.47a125.027,125.027,0,0,1,10.05-29.32,83.612,83.612,0,0,1,7.49-12.17c8.29-11.21,19.53-20.29,33.1-24.14,20.49-5.83,42.11,1,59.41,12.3a160.277,160.277,0,0,1,23.53,19.18,176.339,176.339,0,0,1,19.29,22.02,145.929,145.929,0,0,1,10.98,17.33s.02.01.02.02c1.95,3.63,3.74,7.34,5.34,11.13a117.3,117.3,0,0,1,7.56,25.18C752.24,384.725,750.48,405.755,741.88,424.255Z" transform="translate(85.83 -116)" fill="#e6e6e6"/>
        <path id="Path_615" data-name="Path 615" d="M674.994,431.8a41.331,41.331,0,0,0,26.169-9.553,40.106,40.106,0,0,0,13.856-24.789,40.931,40.931,0,0,0-.8-16.418,1.085,1.085,0,0,0-2.091.577,39.006,39.006,0,0,1-2.945,27.135,38.573,38.573,0,0,1-34.187,20.88,1.085,1.085,0,0,0,0,2.169Z" transform="translate(85.83 -116)" fill="#e6e6e6"/>
        <path id="Path_616" data-name="Path 616" d="M593.552,555.071l-6.981-12.288a1.085,1.085,0,0,0-1.873,1.095l6.981,12.288a1.085,1.085,0,0,0,1.873-1.095Z" transform="translate(85.83 -116)" fill="#e6e6e6"/>
        <path id="Path_617" data-name="Path 617" d="M552.794,304.39c-2.089-1.475-4.374-3.012-6.931-2.951-6.187.149-9.522,9.218-15.7,8.9-3.941-.2-6.558-4.207-10.228-5.659-4.778-1.89-10.858,1.806-11.379,6.918l.614-.562a148.146,148.146,0,0,0,56.757,2.622Z" transform="translate(85.83 -116)" fill="#e6e6e6"/>
      </g>
      <g id="Group_13" data-name="Group 13" transform="translate(-7596.598 2181.782) rotate(-17)">
        <path id="Path_631" data-name="Path 631" d="M367.426,98.922c.771.8,1.53,1.631,2.257,2.459l-.623.546c-1.088-1.241-2.244-2.471-3.42-3.642l.585-.587Q366.831,98.3,367.426,98.922Zm-4.9-4.664-.543.625c-1.254-1.09-2.56-2.147-3.88-3.145l.5-.661C359.938,92.086,361.259,93.156,362.527,94.257Zm10.357,11.03c1.02,1.335,2,2.72,2.926,4.117l-.691.456c-.912-1.38-1.885-2.75-2.893-4.07ZM354.471,88.174l-.453.694c-1.388-.906-2.827-1.775-4.274-2.583l.4-.723C351.612,86.378,353.067,87.257,354.471,88.174Zm23.975,25.54c.825,1.459,1.61,2.967,2.333,4.481l-.747.357c-.715-1.5-1.491-2.987-2.307-4.43Zm-32.793-30.46L345.3,84c-1.5-.706-3.043-1.368-4.585-1.968l.3-.772C342.577,81.871,344.136,82.54,345.653,83.254ZM382.8,122.832c.618,1.564,1.188,3.167,1.7,4.765l-.79.251c-.5-1.58-1.065-3.165-1.676-4.711ZM336.254,79.6l-.247.791c-1.583-.493-3.2-.938-4.813-1.321l.192-.806C333.014,78.648,334.652,79.1,336.254,79.6Zm49.606,52.869c.4,1.633.742,3.3,1.026,4.95l-.816.14c-.28-1.633-.621-3.28-1.014-4.894ZM326.436,77.259l-.136.817c-1.636-.273-3.3-.493-4.951-.654l.08-.824C323.1,76.761,324.782,76.983,326.436,77.259Zm61.133,65.163c.17,1.668.285,3.364.341,5.042l-.828.028c-.056-1.659-.169-3.336-.338-4.985ZM316.387,76.28l-.024.828c-1.658-.048-3.339-.04-5,.025l-.032-.828C313.012,76.24,314.711,76.231,316.387,76.28Zm71.52,76.237c-.058,1.677-.175,3.373-.347,5.04l-.824-.085c.17-1.648.285-3.325.343-4.983ZM306.3,76.675l.088.823c-1.647.177-3.312.415-4.947.7l-.145-.815C302.946,77.094,304.63,76.854,306.3,76.675Zm80.576,85.884c-.285,1.653-.632,3.316-1.029,4.943l-.8-.2c.393-1.609.735-3.254,1.018-4.888ZM296.348,78.442l.2.8c-1.611.4-3.228.864-4.807,1.375l-.255-.788C293.083,79.315,294.719,78.848,296.348,78.442Zm88.13,93.921c-.508,1.6-1.078,3.2-1.694,4.754l-.77-.3c.609-1.54,1.173-3.121,1.675-4.7ZM286.732,81.555l.309.768c-1.541.619-3.08,1.3-4.574,2.024l-.361-.745C283.617,82.87,285.174,82.181,286.732,81.555Zm94.036,100.187c-.723,1.514-1.508,3.021-2.333,4.481l-.721-.408c.816-1.443,1.592-2.933,2.307-4.43Zm-103.13-95.78.412.719c-1.439.825-2.867,1.71-4.245,2.631l-.46-.688C274.738,87.691,276.182,86.8,277.638,85.961Zm98.16,104.57c-.924,1.4-1.909,2.784-2.927,4.116l-.658-.5c1.007-1.317,1.981-2.687,2.894-4.07ZM269.244,91.572l.506.655c-1.31,1.012-2.6,2.084-3.846,3.186l-.55-.619c1.255-1.115,2.564-2.2,3.889-3.222ZM369.668,198.553c-1.105,1.257-2.27,2.5-3.461,3.679l-.584-.588c1.178-1.17,2.33-2.394,3.423-3.638Zm-107.385-99.7c-1.165,1.183-2.3,2.419-3.382,3.675l-.628-.539c1.091-1.27,2.242-2.521,3.42-3.717Zm-6.505,7.572c-.993,1.331-1.951,2.711-2.848,4.1l-.7-.448c.907-1.407,1.876-2.8,2.88-4.15Zm-5.405,8.393c-.8,1.451-1.557,2.949-2.254,4.45l-.751-.348c.7-1.519,1.472-3.034,2.28-4.5Zm-4.2,9.047c-.592,1.549-1.138,3.138-1.622,4.721l-.792-.242c.489-1.6,1.041-3.207,1.64-4.774Zm-2.917,9.543c-.375,1.617-.7,3.266-.962,4.9l-.817-.132c.266-1.652.593-3.32.973-4.956Zm-1.588,9.855c-.152,1.651-.248,3.329-.287,4.987l-.828-.019c.039-1.677.137-3.374.29-5.043Zm-.234,9.982c.075,1.659.207,3.335.394,4.981l-.823.093c-.189-1.665-.323-3.36-.4-5.037Zm1.126,9.924c.3,1.634.66,3.277,1.07,4.882l-.8.205c-.414-1.624-.778-3.285-1.082-4.938Zm2.473,9.68c.52,1.577,1.1,3.155,1.73,4.691l-.767.313c-.634-1.553-1.223-3.149-1.75-4.744Zm3.779,9.251c.732,1.488,1.525,2.97,2.357,4.4l-.716.416c-.842-1.451-1.644-2.949-2.384-4.454Zm5.013,8.634c.929,1.372,1.918,2.73,2.94,4.038l-.653.51c-1.034-1.322-2.034-2.7-2.973-4.083Z" transform="translate(7792.345 460.751)" fill="#e6e6e6"/>
        <path id="Path_632" data-name="Path 632" d="M425.269,376.265a14.145,14.145,0,0,1-13.468-9.94A42.913,42.913,0,1,1,432.3,349.869a14.134,14.134,0,0,1-7.027,26.4Zm-12.994-10.9.108.384a13.4,13.4,0,1,0,19.227-15.438l-.352-.188.222-.331A42.193,42.193,0,1,0,411.9,365.512Z" transform="translate(7720.046 328.258)" fill="#3f3d56"/>
        <path id="Path_633" data-name="Path 633" d="M450.615,382.7H403.993a2.178,2.178,0,1,1,0-4.356h46.622a2.178,2.178,0,1,1,0,4.356Z" transform="translate(7689.171 267.466)" fill="#af0505"/>
        <path id="Path_634" data-name="Path 634" d="M450.615,401.193H403.993a2.178,2.178,0,1,1,0-4.356h46.622a2.178,2.178,0,1,1,0,4.356Z" transform="translate(7689.171 255.635)" fill="#af0505"/>
        <path id="Path_635" data-name="Path 635" d="M450.615,419.683H403.993a2.178,2.178,0,1,1,0-4.357h46.622a2.178,2.178,0,1,1,0,4.357Z" transform="translate(7689.171 243.805)" fill="#af0505"/>
        <path id="Path_650" data-name="Path 650" d="M455.875,521.6H444.093a1.626,1.626,0,0,1-1.278-.616,1.59,1.59,0,0,1-.311-1.352,31.923,31.923,0,0,0,0-14.161,1.59,1.59,0,0,1,.311-1.352,1.626,1.626,0,0,1,1.278-.616h11.782a1.618,1.618,0,0,1,1.606,1.394,52.175,52.175,0,0,1,0,15.309A1.618,1.618,0,0,1,455.875,521.6Z" transform="translate(7663.163 187.391)" fill="#ccc"/>
      </g>
      <g id="Group_14" data-name="Group 14" transform="translate(-8433.113 -1177.773)">
        <rect id="Rectangle_41" data-name="Rectangle 41" width="106.076" height="67.936" transform="translate(9038.046 1361.06)" fill="#e6e6e6"/>
        <rect id="Rectangle_42" data-name="Rectangle 42" width="100.01" height="55.396" transform="translate(9041.078 1369.581)" fill="#fff"/>
        <rect id="Rectangle_43" data-name="Rectangle 43" width="106.076" height="4.506" transform="translate(9038 1361)" fill="#af0505"/>
        <circle id="Ellipse_71" data-name="Ellipse 71" cx="0.835" cy="0.835" r="0.835" transform="translate(9040.515 1362.469)" fill="#fff"/>
        <circle id="Ellipse_72" data-name="Ellipse 72" cx="0.835" cy="0.835" r="0.835" transform="translate(9043.684 1362.469)" fill="#fff"/>
        <circle id="Ellipse_73" data-name="Ellipse 73" cx="0.835" cy="0.835" r="0.835" transform="translate(9046.854 1362.469)" fill="#fff"/>
        <rect id="Rectangle_44" data-name="Rectangle 44" width="37.445" height="4.039" transform="translate(9095.575 1381.607)" fill="#af0505"/>
        <rect id="Rectangle_45" data-name="Rectangle 45" width="37.445" height="2.019" transform="translate(9095.575 1392.82)" fill="#e6e6e6"/>
        <rect id="Rectangle_46" data-name="Rectangle 46" width="37.445" height="2.019" transform="translate(9095.575 1398.984)" fill="#e6e6e6"/>
        <rect id="Rectangle_47" data-name="Rectangle 47" width="37.445" height="2.019" transform="translate(9095.575 1405.225)" fill="#e6e6e6"/>
        <rect id="Rectangle_48" data-name="Rectangle 48" width="32.907" height="32.907" transform="translate(9047.817 1379.687)" fill="#af0505"/>
        <rect id="Rectangle_49" data-name="Rectangle 49" width="0.734" height="46.473" transform="translate(9047.572 1379.946) rotate(-45)" fill="#fff"/>
        <rect id="Rectangle_50" data-name="Rectangle 50" width="46.473" height="0.734" transform="translate(9047.572 1412.289) rotate(-45)" fill="#fff"/>
      </g>
    </g>
    <g id="Group_36" data-name="Group 36" transform="translate(2.699 -75.695)">
      <g id="Group_15" data-name="Group 15" transform="translate(-8485.344 -2802.764)">
        <path id="Path_693" data-name="Path 693" d="M1038.593,331.336h-1.839V280.965a29.153,29.153,0,0,0-29.153-29.153H900.88a29.153,29.153,0,0,0-29.154,29.154V557.3a29.153,29.153,0,0,0,29.154,29.154H1007.6A29.153,29.153,0,0,0,1036.75,557.3V367.191h1.839Z" transform="translate(7676.485 2687.272)" fill="#f2f2f2"/>
        <path id="Path_694" data-name="Path 694" d="M1032.909,285.35V561.287a21.773,21.773,0,0,1-21.772,21.776H903.9a21.771,21.771,0,0,1-21.768-21.772V285.35A21.77,21.77,0,0,1,903.9,263.582h13.012a10.342,10.342,0,0,0,9.578,14.247H987.63a10.342,10.342,0,0,0,9.578-14.247h13.93a21.771,21.771,0,0,1,21.771,21.769Z" transform="translate(7674.122 2684.6)" fill="#af0505"/>
        <rect id="Rectangle_66" data-name="Rectangle 66" width="31.944" height="9.466" transform="translate(8615.671 3130.123)" fill="#3f3d56"/>
        <rect id="Rectangle_67" data-name="Rectangle 67" width="109.181" height="4.057" transform="translate(8577.052 3056.421)" fill="#3f3d56"/>
        <rect id="Rectangle_68" data-name="Rectangle 68" width="109.181" height="4.057" transform="translate(8577.052 3069.268)" fill="#3f3d56"/>
        <rect id="Rectangle_69" data-name="Rectangle 69" width="109.181" height="4.057" transform="translate(8577.052 3082.115)" fill="#3f3d56"/>
        <rect id="Rectangle_70" data-name="Rectangle 70" width="109.181" height="4.057" transform="translate(8577.052 3094.962)" fill="#3f3d56"/>
        <rect id="Rectangle_71" data-name="Rectangle 71" width="109.181" height="4.057" transform="translate(8577.052 3107.809)" fill="#3f3d56"/>
        <rect id="Rectangle_72" data-name="Rectangle 72" width="18.933" height="18.933" transform="translate(8616.524 3002.545)" fill="#f2f2f2"/>
        <path id="Path_695" data-name="Path 695" d="M969.474,340.032v22.99h22.99v-22.99Zm21.992,21.992h-21v-21h21Z" transform="translate(7654.298 2667.247)" fill="#3f3d56"/>
        <circle id="Ellipse_84" data-name="Ellipse 84" cx="33.911" cy="33.911" r="33.911" transform="translate(8588.455 3190.899)" fill="#f2f2f2"/>
        <path id="Path_698" data-name="Path 698" d="M968.1,630.3a42.516,42.516,0,1,1,42.516-42.516A42.516,42.516,0,0,1,968.1,630.3Zm0-83.486a40.97,40.97,0,1,0,40.97,40.97A40.97,40.97,0,0,0,968.1,546.818Z" transform="translate(7664.26 2620.662)" fill="#3f3d56"/>
      </g>
    </g>
  </g>
</svg>
