<svg xmlns="http://www.w3.org/2000/svg" xmlns:xlink="http://www.w3.org/1999/xlink" width="495" height="334" viewBox="0 0 495 334">
  <defs>
    <clipPath id="clip-Artboard_2">
      <rect width="495" height="334"/>
    </clipPath>
  </defs>
  <g id="Artboard_2" data-name="Artboard – 2" clip-path="url(#clip-Artboard_2)">
    <rect width="495" height="334" fill="#fff"/>
    <path id="Path_484" data-name="Path 484" d="M5122.383-352.463c-199.533-175.866-81.75-253.436,55.867-262.1s168.633,65.585,154.667,131.109S5321.915-176.6,5122.383-352.463Z" transform="translate(-2880.17 4347.211) rotate(-48)" fill="#fedf03" opacity="0.2"/>
    <g id="Increase-profit" transform="translate(160 78.938)">
      <path id="Path_498" data-name="Path 498" d="M64.707,61.083a3.624,3.624,0,0,0-3.624,3.624v60.5a3.624,3.624,0,0,0,3.624,3.624h98.939a3.624,3.624,0,1,0,0-7.248H68.331v-13.23L85.2,91.5l5.981,5.981a3.624,3.624,0,0,0,5.126,0l23.925-23.925,18.356,18.356a3.624,3.624,0,0,0,5.126,0L165.426,70.2a3.629,3.629,0,1,0-5.138-5.126L141.136,84.225,122.78,65.87a3.624,3.624,0,0,0-5.126,0L93.729,89.795l-5.981-5.981a3.624,3.624,0,0,0-5.126,0L68.331,98.1v-33.4A3.624,3.624,0,0,0,64.707,61.083Z" transform="translate(-38.947 -38.947)" fill="#ff005d"/>
      <path id="Path_499" data-name="Path 499" d="M257.185,377.089a4.442,4.442,0,0,1-4.772-4,3.624,3.624,0,0,0-7.248,0,11.374,11.374,0,0,0,8.408,10.727v.5a3.624,3.624,0,1,0,7.248,0v-.5a11.374,11.374,0,0,0,8.408-10.727,11.664,11.664,0,0,0-12.021-11.244,4.059,4.059,0,1,1,4.772-4,3.624,3.624,0,0,0,7.248,0,11.374,11.374,0,0,0-8.408-10.728v-.5a3.624,3.624,0,1,0-7.248,0v.5a11.377,11.377,0,0,0-8.408,10.728,11.664,11.664,0,0,0,12.021,11.24,4.059,4.059,0,1,1,0,7.993Z" transform="translate(-156.312 -218.694)" fill="#ff005d"/>
      <path id="Path_500" data-name="Path 500" d="M181.932,97.127H150.474V73.57a3.624,3.624,0,1,0-7.248,0V97.127H111.745a3.624,3.624,0,0,0-3.624,3.624v6.523H7.248V7.248H143.226v33.7a3.624,3.624,0,1,0,7.248,0V3.624A3.624,3.624,0,0,0,146.839,0H3.624A3.624,3.624,0,0,0,0,3.624V110.9a3.624,3.624,0,0,0,3.624,3.624H79.369a38.9,38.9,0,0,0-16.2,23.194H41.556a3.624,3.624,0,0,0-3.624,3.624v40.59a3.624,3.624,0,0,0,3.624,3.624H181.932a3.624,3.624,0,0,0,3.624-3.624V100.751A3.624,3.624,0,0,0,181.932,97.127Zm-3.624,40.59H138.587a38.6,38.6,0,0,0-5.874-13.047h45.595Zm-38.7,7.248h38.7v13.047H137.99a38.657,38.657,0,0,0,1.661-11.235q0-.91-.044-1.812Zm38.7-40.59v13.047H126.181a38.85,38.85,0,0,0-10.814-6.61v-6.436Zm-77.435,10.872a31.53,31.53,0,1,1-31.53,31.53,31.53,31.53,0,0,1,31.53-31.53ZM45.18,144.966H62.135c-.029.6-.043,1.206-.043,1.812a38.657,38.657,0,0,0,1.664,11.235H45.18Zm0,33.342V165.261H66.789a39.065,39.065,0,0,0,11.533,13.047Zm78.241,0a39.065,39.065,0,0,0,11.533-13.047h43.353v13.047Z" transform="translate(0 0)" fill="#ff005d"/>
      <path id="Path_501" data-name="Path 501" d="M398.794,148a3.624,3.624,0,1,0,2.563,1.061A3.624,3.624,0,0,0,398.794,148Z" transform="translate(-251.955 -94.363)" fill="#ff005d"/>
    </g>
  </g>
</svg>
