<svg xmlns="http://www.w3.org/2000/svg" xmlns:xlink="http://www.w3.org/1999/xlink" width="1080" height="1080" viewBox="0 0 1080 1080">
  <defs>
    <clipPath id="clip-Audience_Persona_6">
      <rect width="1080" height="1080"/>
    </clipPath>
  </defs>
  <g id="Audience_Persona_6" data-name="Audience Persona – 6" clip-path="url(#clip-Audience_Persona_6)">
    <rect width="1080" height="1080" fill="#fff"/>
    <g id="Group_18" data-name="Group 18" transform="translate(24.344 59.619)">
      <path id="Path_699" data-name="Path 699" d="M243.125,632.8C-213.083,209.312,56.214,22.519,370.856,1.667S756.419,159.6,724.486,317.382,699.331,1056.293,243.125,632.8Z" transform="translate(0 274.011) rotate(-22)" fill="#fedf03" opacity="0.2"/>
    </g>
    <g id="undraw_digital_nomad_re_w8uy" transform="translate(281.062 175.59)">
      <path id="Path_1035" data-name="Path 1035" d="M282.661,301.387c8.8-6.022,20.135,7.25,13.971,15.512-6.231,8.352-19.853,5.985-24.543-2.544-5.985-10.881-.025-23.825,9.62-30.142,10.956-7.176,24.384-7.58,37.035-6.907,12.778.679,25.247,1.581,37.977-.251a127.394,127.394,0,0,0,31.329-8.786A133.1,133.1,0,0,0,440.674,228.4c6.493-8.238,12.561-17.5,16.278-27.359,2.863-7.6,4.219-17.586.163-25.021a12.738,12.738,0,0,0-19.365-3.89c-6.761,5.539-8.586,15.823-3.417,22.99,5.547,7.69,16.013,10.326,25.025,8.926,12.524-1.946,22.666-10.788,32.254-18.4l71.008-56.375c11.709-9.3,23.3-18.772,35.158-27.875,9.644-7.4,21.413-14.58,33.974-10.626,5.063,1.594,10.167,5.368,11.432,10.791a13.886,13.886,0,0,1-4.979,13.452,8.541,8.541,0,0,1-12.494-1.567c-2.647-3.692-2.865-8.956-1.34-13.128,4.075-11.149,19.026-12.316,29-11.409A81.481,81.481,0,0,1,686.7,99.883c21.086,12.247,36.679,32.169,45.826,54.566,10.134,24.815,13.257,52.275,12.843,78.914-.084,5.433-.46,11.443-3.519,16.128-3,4.588-8.221,5.977-12.908,2.909-1.526-1-3.489-2.946-3.091-5,.5-2.578,5.637-2.6,7.7-2.5,5.632.27,10.956,3.109,14.99,6.936,9.587,9.1,10.332,23.013,9.082,35.388-1.372,13.585-5.288,27.1-3.733,40.85,2.548,22.531,21.035,35.051,39.193,45.409,9.3,5.3,18.8,10.376,27.164,17.125a111.88,111.88,0,0,1,22.144,24.1,121.734,121.734,0,0,1,20.788,60.342,111.346,111.346,0,0,1-2.531,32.186c-2.389,10.318-6.152,23.324-16.065,28.867a13.3,13.3,0,0,1-15.159-1.36c-4.017-3.224-5.98-8.945-1.83-12.973,3.438-3.337,8.94-2.634,13.088-1.277,4.995,1.633,8.881,4.682,12.6,8.282,7.1,6.864,15.4,15.29,26.2,13.1,1.995-.405,1.15-3.457-.841-3.052-13.033,2.646-20.891-12.5-30.5-18.333-6.958-4.222-18.844-7.361-24.281.873-5.868,8.886,3.567,18.473,12.335,19.618,11.4,1.488,19.3-9.659,23.131-18.86,8.877-21.339,9.153-46.359,3.723-68.578A122.317,122.317,0,0,0,829.2,394.277c-8.416-8.021-18.063-14.17-28.128-19.894-10.16-5.778-20.749-11.321-29.442-19.251a44.145,44.145,0,0,1-14.936-34.04c.093-14.784,4.846-29.13,4.55-43.943-.246-12.281-4.419-24.274-15.1-31.188a24.42,24.42,0,0,0-14.973-4.179c-2.161.178-5.2.542-6.977,1.895-1.434,1.09-1.705,3.64-1.416,5.289.687,3.916,4.391,6.637,7.989,7.727a11.44,11.44,0,0,0,12.354-3.645c3.46-4,4.661-9.325,5.151-14.456.663-6.952.3-14.092-.01-21.056-1.245-28.3-6.837-57.273-21.543-81.849-12.5-20.891-31.942-38.407-55.253-46.157-10.985-3.652-24.015-5.84-35.35-2.519-9.752,2.857-17.224,10.883-15.614,21.513,1.363,9,10.687,15.222,18.9,9.543A16.378,16.378,0,0,0,642.03,93.38c-7.943-8.318-20.894-8.258-30.805-4.031-5.968,2.546-11.253,6.36-16.349,10.322-6.5,5.051-12.9,10.222-19.346,15.339l-77.635,61.637c-6.128,4.865-12.156,9.907-18.489,14.506-5.909,4.291-12.428,8.266-19.7,9.643-10.243,1.94-26.457-3.148-25.215-16.14.482-5.045,3.824-10.618,8.932-12.065,5.007-1.418,9.734,1.8,11.6,6.363,4.1,10.053-.716,21.552-5.509,30.377-11.868,21.851-30.589,39.646-52.524,51.225a127.7,127.7,0,0,1-34.933,12.4c-13.688,2.689-27.118,2.163-40.957,1.324-13.415-.814-27.5-.73-39.459,6.26-9.8,5.732-16.345,16.128-14.773,27.711,1.365,10.059,9.432,17.748,19.838,16.9,8.734-.713,17.508-8.171,14.41-17.644-2.566-7.844-12.47-14.03-20.046-8.849-1.671,1.143-.09,3.887,1.6,2.733Z" transform="translate(-266.629 -85.373)" fill="#3f3d56"/>
      <path id="Path_1036" data-name="Path 1036" d="M921.829,506.7H845.138a4.524,4.524,0,0,0-4.519,4.519v47.747a4.524,4.524,0,0,0,4.519,4.519h76.69a4.525,4.525,0,0,0,4.519-4.519V511.221A4.524,4.524,0,0,0,921.829,506.7Z" transform="translate(-235.001 -62.157)" fill="#f2f2f2"/>
      <path id="Path_1037" data-name="Path 1037" d="M921.829,506.7H845.138a4.524,4.524,0,0,0-4.519,4.519v47.747a4.524,4.524,0,0,0,4.519,4.519h76.69a4.525,4.525,0,0,0,4.519-4.519V511.221A4.524,4.524,0,0,0,921.829,506.7Zm1.483,34.3A18.578,18.578,0,0,1,905.047,559.5c-7.782.1,4.305.141-5.08.141-21.461,0-43.839-.205-52.188-.338a4.21,4.21,0,0,1-4.123-4.193V511.225a1.488,1.488,0,0,1,1.483-1.486h76.688a1.488,1.488,0,0,1,1.486,1.483Z" transform="translate(-235.001 -62.157)" fill="#e6e6e6"/>
      <path id="Path_1038" data-name="Path 1038" d="M912.294,480.644H853.864a2.511,2.511,0,0,0-2.361,1.665l-9.024,25.318a2.506,2.506,0,0,0,2.357,3.348l78.364.139h0a2.506,2.506,0,0,0,2.3-3.493l-.137.058.137-.058L914.6,482.163a2.5,2.5,0,0,0-2.3-1.519Z" transform="translate(-234.907 -63.593)" fill="#e6e6e6"/>
      <path id="Path_1039" data-name="Path 1039" d="M925.71,506.863a2.513,2.513,0,0,1-.2.988l-10.909,19.6a2.513,2.513,0,0,1-2.3,1.517H853.865A2.513,2.513,0,0,1,851.5,527.3l-9.022-19.456a2.5,2.5,0,0,1,1.52-3.2,2.465,2.465,0,0,1,.836-.147l9.573-.018,3.907-.007,51.411-.09,3.909-.007,9.566-.018h0a2.507,2.507,0,0,1,2.507,2.507Z" transform="translate(-234.907 -62.286)" fill="#e6e6e6"/>
      <path id="Path_1040" data-name="Path 1040" d="M850.462,540.647c1.159,0,17.07.972,17.07,2.131s-15.911,2.065-17.07,2.065a2.1,2.1,0,1,1,0-4.2Z" transform="translate(-234.574 -60.286)" fill="#e6e6e6"/>
      <path id="Path_1041" data-name="Path 1041" d="M908.025,466.046H858.758a4.986,4.986,0,0,0-4.98,4.98v60.048h57.886a2.474,2.474,0,0,0,1.341-.39V471.026a4.986,4.986,0,0,0-4.98-4.98Z" transform="translate(-234.276 -64.397)" fill="#f2f2f2"/>
      <path id="Path_1042" data-name="Path 1042" d="M889.016,469.873h-27a4.54,4.54,0,0,0-4.536,4.534v56.457h51.411V489.748A19.9,19.9,0,0,0,889.016,469.873Z" transform="translate(-234.072 -64.186)" fill="#fff"/>
      <path id="Path_1043" data-name="Path 1043" d="M899.733,522.926H865.84a1.1,1.1,0,1,0,0,2.209h33.894a1.1,1.1,0,1,0,0-2.209Z" transform="translate(-233.672 -61.263)" fill="#e4e4e4"/>
      <path id="Path_1044" data-name="Path 1044" d="M899.733,518.785H865.84a1.106,1.106,0,0,0,0,2.212h33.894a1.106,1.106,0,0,0,0-2.212Z" transform="translate(-233.672 -61.491)" fill="#e4e4e4"/>
      <path id="Path_1045" data-name="Path 1045" d="M880.532,514.646H865.84a1.1,1.1,0,0,0,0,2.209h14.692a1.1,1.1,0,0,0,0-2.209Z" transform="translate(-233.672 -61.719)" fill="#e4e4e4"/>
      <path id="Path_1046" data-name="Path 1046" d="M899.733,505.975H865.84a1.106,1.106,0,0,0,0,2.212h33.894a1.106,1.106,0,1,0,0-2.212Z" transform="translate(-233.672 -62.197)" fill="#e4e4e4"/>
      <path id="Path_1047" data-name="Path 1047" d="M899.733,501.836H865.84a1.1,1.1,0,1,0,0,2.209h33.894a1.1,1.1,0,1,0,0-2.209Z" transform="translate(-233.672 -62.425)" fill="#e4e4e4"/>
      <path id="Path_1048" data-name="Path 1048" d="M880.532,497.695H865.84a1.106,1.106,0,0,0,0,2.212h14.692a1.106,1.106,0,0,0,0-2.212Z" transform="translate(-233.672 -62.653)" fill="#e4e4e4"/>
      <path id="Path_1049" data-name="Path 1049" d="M899.733,489.025H865.84a1.106,1.106,0,1,0,0,2.212h33.894a1.106,1.106,0,1,0,0-2.212Z" transform="translate(-233.672 -63.131)" fill="#e4e4e4"/>
      <path id="Path_1050" data-name="Path 1050" d="M899.733,484.886H865.84a1.106,1.106,0,1,0,0,2.212h33.894a1.106,1.106,0,1,0,0-2.212Z" transform="translate(-233.672 -63.359)" fill="#e4e4e4"/>
      <path id="Path_1051" data-name="Path 1051" d="M880.532,480.745H865.84a1.106,1.106,0,1,0,0,2.212h14.692a1.106,1.106,0,1,0,0-2.212Z" transform="translate(-233.672 -63.587)" fill="#e4e4e4"/>
      <circle id="Ellipse_104" data-name="Ellipse 104" cx="32.706" cy="32.706" r="32.706" transform="translate(249.138 144.689)" fill="#ffb6b6"/>
      <path id="Path_1052" data-name="Path 1052" d="M572.912,237.151c-3.44-5.322-9.9-8.87-16.155-7.873a22.061,22.061,0,0,0-36.964-12.867,6.86,6.86,0,0,0-6.709-.671,14.145,14.145,0,0,0-5.45,4.375,31.746,31.746,0,0,0-4.442,32.3c-.765-2.781,2.022-5.4,4.837-6.021s5.769-.034,8.624-.44c3.659-.521,6.949-2.644,10.614-3.121,3.08-.4,6.178.388,9.182,1.18s6.094,1.6,9.178,1.232,7.058,11.324,7.005,19.558c-.01,1.56.311,3.564,1.836,3.895,1.878.408,2.966-2.184,4.754-2.89a3.307,3.307,0,0,1,4.056,2.157,5.392,5.392,0,0,1-1.029,4.828,15.933,15.933,0,0,1-3.863,3.351l.736.612c1.225,1.618,3.765,1.688,5.53.687a11.935,11.935,0,0,0,3.97-4.521c3.265-5.431,6.13-11.218,7.282-17.45S576.351,242.474,572.912,237.151Z" transform="translate(-253.734 -78.484)" fill="#2f2e41"/>
      <path id="Path_1053" data-name="Path 1053" d="M304.846,714.508l-17.662,0-8.4-68.13H304.85Z" transform="translate(15.362 35.617)" fill="#ffb6b6"/>
      <path id="Path_1054" data-name="Path 1054" d="M573.542,815.319l-54.317,0v-.687a21.142,21.142,0,0,1,21.14-21.141h0l9.922-7.527L568.8,793.49h4.742Z" transform="translate(-252.711 -46.769)" fill="#2f2e41"/>
      <path id="Path_1055" data-name="Path 1055" d="M336.948,684.182l-13.857,10.952L274.246,646.9,294.7,630.733Z" transform="translate(15.112 34.755)" fill="#ffb6b6"/>
      <path id="Path_1056" data-name="Path 1056" d="M614.082,780.992l-42.611,33.684-.426-.539a21.143,21.143,0,0,1,3.474-29.7h0l3.115-12.058,19.191-5.575,3.72-2.94Z" transform="translate(-250.106 -47.986)" fill="#2f2e41"/>
      <path id="Path_1057" data-name="Path 1057" d="M216.974,409.051,215.9,428.932l5.245,6.336-.6,19.885,5.089,13.016,3.579,41.409,50.124,172.779L324.5,667.869,275.176,506.808l59.343-1.482,2.008-90.817-10.516-20.33Z" transform="translate(11.897 21.72)" fill="#2f2e41"/>
      <path id="Path_1058" data-name="Path 1058" d="M326.085,486.9l5.707,13.691L309.724,693.379l-30.962,2.261-13.37-215.531Z" transform="translate(14.624 26.455)" fill="#2f2e41"/>
      <path id="Path_1059" data-name="Path 1059" d="M297.572,218.013,287.405,203.94l-32.828,1.316-.63,10.836L232.139,422.073l21.416-.48,26.585,6.207,51.133-17.9Z" transform="translate(12.792 11.238)" fill="#ff005d"/>
      <path id="Path_1060" data-name="Path 1060" d="M509.379,510.62H459.033L472.168,417.9l5.326-37.581s-3.77-26.859-5.6-40.892a7.944,7.944,0,0,1,.748-4.368,14.409,14.409,0,0,1,2.314-3.491c6.124-7.061,19.9-13.185,28.535-16.536,4.448-1.715,7.54-2.7,7.54-2.7l11.728-11.5C539.6,321.868,509.379,510.62,509.379,510.62Z" transform="translate(-256.027 -73.501)" fill="#3f3d56"/>
      <path id="Path_1061" data-name="Path 1061" d="M555.3,295.393l15.972,9.153s47.3,7.769,51.9,25.535l-17.412,52.56V493.1l-42.211,16.927S527.139,331.571,555.3,295.393Z" transform="translate(-251.312 -73.8)" fill="#3f3d56"/>
      <path id="Path_1062" data-name="Path 1062" d="M273.2,475.879l-7.8,90.39,13.287,105.2" transform="translate(14.624 26.222)" opacity="0.4"/>
      <path id="Path_1063" data-name="Path 1063" d="M361.092,401.766a10.959,10.959,0,0,1,16.28,4.166l38.7-4.376L406.9,419.6l-35.342,1.39a11.018,11.018,0,0,1-10.464-19.22Z" transform="translate(-261.68 -68.053)" fill="#ffb6b6"/>
      <path id="Path_1064" data-name="Path 1064" d="M254.93,241.42,266,248.036,203.982,335.41l-75.7,6.432-3.014-21.614,55.777-16.734,27.57-53.439Z" transform="translate(6.903 13.303)" fill="#3f3d56"/>
      <path id="Path_1065" data-name="Path 1065" d="M731.6,394.766a10.959,10.959,0,0,0-16.28,4.166l-38.7-4.376,9.172,18.04,35.342,1.39a11.018,11.018,0,0,0,10.464-19.22Z" transform="translate(-244.038 -68.438)" fill="#ffb6b6"/>
      <path id="Path_1066" data-name="Path 1066" d="M308.734,234.42l-11.073,6.615,62.022,87.374,75.7,6.432,3.013-21.614-55.776-16.734-27.57-53.439Z" transform="translate(16.402 12.917)" fill="#3f3d56"/>
      <path id="Path_1067" data-name="Path 1067" d="M435.141,301.774v-1.155H415.783V273.681h-1.152v26.938H392.445v-20.8q-.582.457-1.149.942V300.62H376.643c-.163.382-.32.767-.468,1.155H391.3V324.41H372.522c.018.388.044.77.077,1.155h18.7v18.058H377.289c.172.388.352.77.542,1.149H391.3v15.18h1.149V344.772h22.186v15.18h1.152v-15.18h19.358v-1.149H415.783a18.056,18.056,0,0,1,18.062-18.058h1.3V324.41H415.783V301.774Zm-20.51,41.849H392.445V325.565h22.186Zm0-19.213H392.445v-.453a22.184,22.184,0,0,1,22.184-22.183Z" transform="translate(-260.794 -74.997)" fill="#e6e6e6"/>
      <path id="Path_1068" data-name="Path 1068" d="M591.4,149.093a.617.617,0,0,1-.805-.334l-1.6-3.873a.616.616,0,1,1,1.139-.471l1.6,3.873A.617.617,0,0,1,591.4,149.093Z" transform="translate(-248.869 -82.141)" fill="#3f3d56"/>
      <path id="Path_1069" data-name="Path 1069" d="M624.177,122.47h0l-4.784-11.562a7.242,7.242,0,0,0-9.461-3.923h0l-24.5,10.137a7.242,7.242,0,0,0-3.922,9.461h0l26.249,63.43a7.242,7.242,0,0,0,9.461,3.923h0l24.5-10.137a7.242,7.242,0,0,0,3.922-9.461h0L627.583,130.7h0a.457.457,0,0,0,.247-.6l-3.056-7.386a.457.457,0,0,0-.6-.248Z" transform="translate(-249.309 -84.213)" fill="#3f3d56"/>
      <path id="Path_1070" data-name="Path 1070" d="M617.882,111.449l26.211,63.338a5.4,5.4,0,0,1-2.874,7.041.3.3,0,0,1-.052.026l-24.615,10.186a5.411,5.411,0,0,1-7.068-2.93l-26.211-63.338a5.408,5.408,0,0,1,2.932-7.064l2.985-1.235a2.57,2.57,0,0,0,3.555,2.362l14.034-5.808a2.5,2.5,0,0,0,.818-.549,2.563,2.563,0,0,0,.022-3.632l3.2-1.325a5.407,5.407,0,0,1,7.063,2.928Z" transform="translate(-249.204 -84.12)" fill="#ff005d"/>
      <path id="Path_1071" data-name="Path 1071" d="M588.813,142.83a.617.617,0,0,1-.805-.334l-1.6-3.873a.616.616,0,1,1,1.139-.471l1.6,3.873A.617.617,0,0,1,588.813,142.83Z" transform="translate(-249.011 -82.486)" fill="#3f3d56"/>
      <path id="Path_1072" data-name="Path 1072" d="M585.756,135.748a.617.617,0,0,1-.805-.334l-1.6-3.873a.616.616,0,0,1,1.139-.471l1.6,3.873A.617.617,0,0,1,585.756,135.748Z" transform="translate(-249.18 -82.876)" fill="#3f3d56"/>
      <path id="Path_1073" data-name="Path 1073" d="M594.182,115.633a.617.617,0,0,1,.334-.805l3.874-1.6a.616.616,0,0,1,.471,1.139l-3.873,1.6A.617.617,0,0,1,594.182,115.633Z" transform="translate(-248.583 -83.841)" fill="#fff"/>
      <circle id="Ellipse_105" data-name="Ellipse 105" cx="0.616" cy="0.616" r="0.616" transform="translate(351.591 28.441)" fill="#fff"/>
      <path id="Path_1074" data-name="Path 1074" d="M729.872,378.378c-.078,0-.155,0-.234,0a5.687,5.687,0,0,1-4.574-2.6,64.253,64.253,0,0,0-13.526-14.652c-3.174-2.537-6.492-4.9-9.7-7.178-8.276-5.884-16.069-11.426-20.4-19.084-9.432-16.7,1.676-39.956,17.545-50.386,17.8-11.7,41.212-13.533,63.86-13.774q3.531-.037,7.066-.037h0a673.682,673.682,0,0,1,121.665,11.125c13.345,2.462,27.315,5.478,38.541,12.8,11.159,7.277,17.942,18.736,17.28,29.194-.966,15.267-17.151,26.675-31.888,29.658-14.047,2.841-28.64.921-44.089-1.112-3.411-.448-6.937-.913-10.424-1.316-37.9-4.381-109.1,9.122-112.108,9.7l-2.988.572-11.6,14.922a5.565,5.565,0,0,1-4.435,2.178Z" transform="translate(-243.963 -75.163)" fill="#ff005d"/>
      <path id="Path_1075" data-name="Path 1075" d="M895.665,302.526H735.478a3.485,3.485,0,0,1,0-6.971H895.665a3.485,3.485,0,1,1,0,6.971Z" transform="translate(-240.987 -73.791)" fill="#fff"/>
      <path id="Path_1076" data-name="Path 1076" d="M895.665,322.8H735.478a3.485,3.485,0,0,1-.007-6.971H895.665a3.485,3.485,0,0,1,0,6.971Z" transform="translate(-240.987 -72.674)" fill="#fff"/>
      <path id="Path_1077" data-name="Path 1077" d="M754.145,343.078H735.478a3.485,3.485,0,0,1,0-6.971h18.667a3.485,3.485,0,0,1,0,6.971Z" transform="translate(-240.987 -71.557)" fill="#fff"/>
      <circle id="Ellipse_106" data-name="Ellipse 106" cx="16.942" cy="16.942" r="16.942" transform="translate(470.945 293.63)" fill="#fff"/>
      <path id="Path_1078" data-name="Path 1078" d="M729.933,397.769a17.148,17.148,0,1,1,17.148-17.148A17.149,17.149,0,0,1,729.933,397.769Z" transform="translate(-242.045 -70.049)" fill="#3f3d56"/>
      <path id="Path_1079" data-name="Path 1079" d="M728.1,386.87l-.108,0a2.216,2.216,0,0,1-1.642-.853l-2.831-3.64a2.216,2.216,0,0,1,.388-3.111l.1-.079a2.216,2.216,0,0,1,3.111.389,1.617,1.617,0,0,0,2.448.119l5.748-6.069a2.22,2.22,0,0,1,3.134-.085l.094.09a2.216,2.216,0,0,1,.085,3.134l-8.921,9.416A2.214,2.214,0,0,1,728.1,386.87Z" transform="translate(-241.479 -69.528)" fill="#fff"/>
      <path id="Path_1080" data-name="Path 1080" d="M429.767,176.123,419.4,113.792a4.829,4.829,0,0,1,3.967-5.55l47.074-7.828a4.829,4.829,0,0,1,5.55,3.967l10.365,62.331a4.829,4.829,0,0,1-3.967,5.55l-47.074,7.828a4.829,4.829,0,0,1-5.55-3.967Z" transform="translate(-258.215 -84.548)" fill="#3f3d56"/>
      <path id="Path_1081" data-name="Path 1081" d="M430.028,156.473,423.365,116.4a4.523,4.523,0,0,1,3.715-5.2l40.456-6.727a4.523,4.523,0,0,1,5.2,3.715l9.223,55.466a4.523,4.523,0,0,1-3.716,5.2l-25.062,4.167a20.146,20.146,0,0,1-23.152-16.549Z" transform="translate(-257.996 -84.324)" fill="#fff"/>
      <path id="Path_1082" data-name="Path 1082" d="M431.335,125.851a4.419,4.419,0,0,1,3.631-5.079l28.064-4.667a4.415,4.415,0,1,1,1.448,8.71l-28.064,4.667a4.419,4.419,0,0,1-5.079-3.631Z" transform="translate(-257.557 -83.683)" fill="#ff005d"/>
      <path id="Path_1083" data-name="Path 1083" d="M433.47,138.692a4.419,4.419,0,0,1,3.631-5.079l28.064-4.667a4.415,4.415,0,0,1,1.448,8.71l-28.064,4.667A4.419,4.419,0,0,1,433.47,138.692Z" transform="translate(-257.439 -82.975)" fill="#ff005d"/>
      <path id="Path_1084" data-name="Path 1084" d="M435.605,151.532a4.419,4.419,0,0,1,3.631-5.079l28.064-4.667a4.415,4.415,0,0,1,1.448,8.71l-28.064,4.667a4.419,4.419,0,0,1-5.079-3.631Z" transform="translate(-257.322 -82.268)" fill="#ff005d"/>
      <path id="Path_1085" data-name="Path 1085" d="M663.775,774.181l.746-16.776a54.184,54.184,0,0,1,25.272-6.4c-12.138,9.924-10.621,29.053-18.85,42.4a32.591,32.591,0,0,1-23.9,15.061l-10.157,6.219A54.612,54.612,0,0,1,648.4,770.431a52.752,52.752,0,0,1,9.695-9.008C660.525,767.838,663.775,774.181,663.775,774.181Z" transform="translate(-246.274 -48.695)" fill="#f2f2f2"/>
      <path id="Path_1086" data-name="Path 1086" d="M813.176,813.16a1.634,1.634,0,0,1-1.639,1.639H370.452a1.639,1.639,0,1,1,0-3.278H811.537a1.634,1.634,0,0,1,1.639,1.639Z" transform="translate(-260.999 -45.361)" fill="#ccc"/>
      <path id="Path_1087" data-name="Path 1087" d="M375.082,393.717c-7.823-.156-49.843-1.362-56.733-1.065-.39-1.365-13.452,15.375-13.77,15.479a1.908,1.908,0,0,0,.638,3.068c.768.467,68.51-.787,69.33-.623a1.884,1.884,0,0,0,1.682-1.1l.453-1.014c.047-1.735.615-10.6.105-12.118a1.876,1.876,0,0,0-1.7-2.631Z" transform="translate(-264.567 -68.446)" fill="#3f3d56"/>
      <path id="Path_1088" data-name="Path 1088" d="M376.682,407.634c-.4.955-.906,2.156-2.134,2.112l-68.615.77a1.893,1.893,0,0,1-1.651-2.778Z" transform="translate(-264.567 -67.616)" opacity="0.17"/>
      <path id="Path_1089" data-name="Path 1089" d="M319.955,398.163c-.739-1.277-19.083-92.045-20.614-92.8l-12.524-15.321L285.7,289.2c-1.557-.855-5.291-.277-4.954,2.1h0c2.942,14.107,21.868,94.451,22.282,106.977l2.278,15.958a1.965,1.965,0,0,0,2.426,1.614,3.78,3.78,0,0,0,3.036-2.194C310.937,413.089,320.813,398.489,319.955,398.163Z" transform="translate(-265.853 -74.162)" fill="#3f3d56"/>
      <path id="Path_1090" data-name="Path 1090" d="M286.813,290.036l23.954,123.617c-.8,2.028-4.55,3.448-5.423.788-.015,0-24.575-123.071-24.6-123.144C280.484,288.335,285.377,288.241,286.813,290.036Z" transform="translate(-265.852 -74.161)" opacity="0.17"/>
      <path id="Path_1091" data-name="Path 1091" d="M20.55,209.392,32.716,226.35,46.372,291.2l-6.349,5.537Z" transform="translate(1.133 11.538)" fill="#ff005d"/>
      <path id="Path_1092" data-name="Path 1092" d="M363.93,402.365l3.366.137a13.23,13.23,0,0,1,.485-2.912c.507-2.406.96-5.265-1.139-5.254-1.424-.137-1.91,1.667-2.163,3.63a27.774,27.774,0,0,1-.549,4.4Z" transform="translate(-261.268 -68.349)" fill="#2f2e41"/>
      <path id="Path_1093" data-name="Path 1093" d="M345.63,397.88l2.268.084,1.1.042c-.021-1.2.538-3.682-.823-4.294a1.687,1.687,0,0,0-.686-.137c-1.277-.074-1.657.9-1.773,2.015-.074.675-.042,1.393-.063,1.952C345.651,397.658,345.641,397.775,345.63,397.88Z" transform="translate(-262.276 -68.391)" fill="#2f2e41"/>
      <path id="Path_1094" data-name="Path 1094" d="M339.26,397.62l2.279.095,1.087.042c-.021-1.382.707-4.4-1.509-4.442-2.047-.116-1.783,2.49-1.836,3.967C339.281,397.4,339.271,397.513,339.26,397.62Z" transform="translate(-262.627 -68.405)" fill="#2f2e41"/>
      <path id="Path_1095" data-name="Path 1095" d="M332.89,397.37l2.268.084,1.1.042c-.021-1.372.707-4.389-1.509-4.431-2.047-.127-1.783,2.479-1.836,3.967C332.911,397.148,332.9,397.263,332.89,397.37Z" transform="translate(-262.978 -68.419)" fill="#2f2e41"/>
      <path id="Path_1096" data-name="Path 1096" d="M326.52,397.11l2.279.095,1.087.042c-.021-1.382.707-4.389-1.509-4.442-2.047-.116-1.783,2.49-1.836,3.967C326.541,396.887,326.531,397,326.52,397.11Z" transform="translate(-263.329 -68.433)" fill="#2f2e41"/>
      <path id="Path_1097" data-name="Path 1097" d="M320.15,396.86l2.268.084,1.1.042c-.021-1.266.591-3.914-1.034-4.368h-.011a1.543,1.543,0,0,0-.464-.063,1.588,1.588,0,0,0-.57.053h-.011c-1.414.369-1.213,2.585-1.256,3.914C320.171,396.638,320.161,396.755,320.15,396.86Z" transform="translate(-263.68 -68.447)" fill="#2f2e41"/>
      <path id="Path_1098" data-name="Path 1098" d="M357.5,396.18l3.366.137c0-.127,0-.264.011-.422a14.071,14.071,0,0,0,.042-2.416c-.116-.886-.5-1.583-1.562-1.6-1.087-.063-1.519.633-1.688,1.53a3.277,3.277,0,0,0-.084.464v.011C357.5,394.7,357.553,395.589,357.5,396.18Z" transform="translate(-261.622 -68.484)" fill="#2f2e41"/>
      <path id="Path_1099" data-name="Path 1099" d="M351.13,395.92l3.366.137a24.559,24.559,0,0,0,.063-2.722c-.095-.929-.464-1.688-1.572-1.709-1.118-.074-1.551.686-1.72,1.625C351.109,394.158,351.193,395.244,351.13,395.92Z" transform="translate(-261.973 -68.498)" fill="#2f2e41"/>
      <path id="Path_1100" data-name="Path 1100" d="M344.76,395.67l1,.042,2.363.095c-.011-.506.084-1.245.095-1.973a4.464,4.464,0,0,0-.021-.654c-.084-.981-.433-1.794-1.583-1.815-1.171-.063-1.583.749-1.73,1.741C344.739,393.991,344.823,395.016,344.76,395.67Z" transform="translate(-262.324 -68.512)" fill="#2f2e41"/>
      <path id="Path_1101" data-name="Path 1101" d="M357.56,401.92l3.366.127c-.011-1.372.707-4.389-1.509-4.431C357.2,397.477,357.687,400.538,357.56,401.92Z" transform="translate(-261.619 -68.168)" fill="#2f2e41"/>
      <path id="Path_1102" data-name="Path 1102" d="M351.19,401.66l3.366.137c-.011-1.382.707-4.4-1.509-4.442C350.831,397.228,351.317,400.288,351.19,401.66Z" transform="translate(-261.97 -68.182)" fill="#2f2e41"/>
      <path id="Path_1103" data-name="Path 1103" d="M344.82,401.41l3.366.127c-.011-.981.359-2.8-.243-3.767a1.392,1.392,0,0,0-1.266-.665,1.483,1.483,0,0,0-.981.243C344.62,398.055,344.926,400.292,344.82,401.41Z" transform="translate(-262.321 -68.196)" fill="#2f2e41"/>
      <path id="Path_1104" data-name="Path 1104" d="M338.45,401.149l3.366.137c-.011-.981.348-2.785-.232-3.767a1.4,1.4,0,0,0-1.277-.675,1.466,1.466,0,0,0-.981.243C338.25,397.816,338.556,400.042,338.45,401.149Z" transform="translate(-262.672 -68.211)" fill="#2f2e41"/>
      <path id="Path_1105" data-name="Path 1105" d="M332.08,400.9l3.366.127c-.011-.981.359-2.8-.243-3.767a1.392,1.392,0,0,0-1.266-.665,1.482,1.482,0,0,0-.981.243C331.88,397.545,332.186,399.782,332.08,400.9Z" transform="translate(-263.023 -68.224)" fill="#2f2e41"/>
      <path id="Path_1106" data-name="Path 1106" d="M325.71,400.64l3.366.137c-.011-.981.348-2.785-.232-3.767a1.385,1.385,0,0,0-1.277-.675,1.466,1.466,0,0,0-.981.243C325.51,397.306,325.815,399.532,325.71,400.64Z" transform="translate(-263.374 -68.239)" fill="#2f2e41"/>
      <path id="Path_1107" data-name="Path 1107" d="M319.34,400.39l3.366.127c-.011-.981.348-2.785-.243-3.767a1.38,1.38,0,0,0-1.266-.665,1.482,1.482,0,0,0-.981.243C319.14,397.046,319.446,399.271,319.34,400.39Z" transform="translate(-263.725 -68.253)" fill="#2f2e41"/>
    </g>
    <g id="Group_34" data-name="Group 34" transform="matrix(1, -0.017, 0.017, 1, 105.792, 564.941)">
      <path id="Path_1110" data-name="Path 1110" d="M44.314,88.629A44.314,44.314,0,1,1,88.629,44.314,44.314,44.314,0,0,1,44.314,88.629Zm0-86.518a42.2,42.2,0,1,0,42.2,42.2A42.2,42.2,0,0,0,44.314,2.11Z" transform="translate(0 0)" fill="#ccc"/>
      <path id="Path_1111" data-name="Path 1111" d="M44.314,88.629A44.314,44.314,0,1,1,88.629,44.314,44.314,44.314,0,0,1,44.314,88.629Zm0-86.518a42.2,42.2,0,1,0,42.2,42.2,42.2,42.2,0,0,0-42.2-42.2Z" transform="translate(170.927 41.149)" fill="#ccc"/>
      <path id="Path_1112" data-name="Path 1112" d="M44.314,88.629A44.314,44.314,0,1,1,88.629,44.314,44.314,44.314,0,0,1,44.314,88.629Zm0-86.518a42.2,42.2,0,1,0,42.2,42.2,42.2,42.2,0,0,0-42.2-42.2Z" transform="translate(91.794 181.478)" fill="#ccc"/>
      <path id="Path_1113" data-name="Path 1113" d="M47.48,7.386l5.276-1.055s-4.431,4.959-5.276,5.276h0a21.222,21.222,0,0,0,0,3.165C37.351,58.242,0,39.039,0,39.039c13.611.317,14.771-5.276,14.771-5.276-7.913-1.161-9.5-6.331-9.5-6.331A3.26,3.26,0,0,0,9.5,26.378C.95,24.162,2.11,15.827,2.11,15.827a10.974,10.974,0,0,0,5.17,2C6.331,16.671-1.688,7.069,3.165,2.11c0,0,5.909,10.551,21.419,11.5l1.055-.211a8.279,8.279,0,0,1-.211-2.321A11.079,11.079,0,0,1,36.507,0c7.386,0,8.968,4.22,8.968,4.22L50.75,1.055C50.645,1.055,50.117,6.331,47.48,7.386Z" transform="translate(193.084 65.942)" fill="#3f3d56"/>
      <path id="Path_1114" data-name="Path 1114" d="M43.109,0,4,.007a3.822,3.822,0,0,0-4,3.65L0,42.849a4.123,4.123,0,0,0,4,4.015l39.094,0a3.914,3.914,0,0,0,3.759-4.016l0-39.192A3.592,3.592,0,0,0,43.109,0ZM14.528,39.063H7.815l0-20.871h6.713ZM11.4,15.019h-.048a3.648,3.648,0,1,1,.048,0ZM39.061,39.061H32.348V27.65c0-2.734-.977-4.6-3.406-4.6A3.67,3.67,0,0,0,25.5,25.526a4.521,4.521,0,0,0-.232,1.648V39.062H18.556l0-20.871h6.713v2.9A6.8,6.8,0,0,1,31.32,17.7c4.406,0,7.74,2.9,7.74,9.166Z" transform="translate(112.698 201.519)" fill="#3f3d56"/>
      <path id="Path_1115" data-name="Path 1115" d="M57.94,28.964a28.969,28.969,0,1,0-33.5,28.619V37.341H17.088V28.964h7.357V22.581c0-7.259,4.326-11.272,10.942-11.272a44.522,44.522,0,0,1,6.486.566V19H38.218c-3.6,0-4.722,2.232-4.722,4.526v5.434H41.53l-1.283,8.376H33.5V57.585A28.977,28.977,0,0,0,57.941,28.964Z" transform="translate(15.343 15.524)" fill="#3f3d56" fill-rule="evenodd"/>
      <ellipse id="Ellipse_108" data-name="Ellipse 108" cx="17.668" cy="17.862" rx="17.668" ry="17.862" transform="translate(59.754 63.277)" fill="#3f3d56"/>
      <path id="Path_1127" data-name="Path 1127" d="M8.246,19.053h-3.6V5.346A12.379,12.379,0,0,1,0,8.1V4.8A10.38,10.38,0,0,0,3.06,3.035,6.7,6.7,0,0,0,5.326,0h2.92Z" transform="translate(72.71 71.613)" fill="#3f3d56"/>
      <ellipse id="Ellipse_109" data-name="Ellipse 109" cx="17.668" cy="17.862" rx="17.668" ry="17.862" transform="translate(59.754 63.277)" fill="#ff005d"/>
      <path id="Path_1128" data-name="Path 1128" d="M8.246,19.053h-3.6V5.346A12.379,12.379,0,0,1,0,8.1V4.8A10.38,10.38,0,0,0,3.06,3.035,6.7,6.7,0,0,0,5.326,0h2.92Z" transform="translate(72.71 71.613)" fill="#fff"/>
      <circle id="Ellipse_110" data-name="Ellipse 110" cx="17.862" cy="17.862" r="17.862" transform="translate(229.678 107.955)" fill="#3f3d56"/>
      <path id="Path_1129" data-name="Path 1129" d="M3.832,12.449A4.182,4.182,0,0,0,4.6,15.141a2.221,2.221,0,0,0,1.751.949,1.961,1.961,0,0,0,1.581-.777,4.053,4.053,0,0,0,.633-2.545A4.238,4.238,0,0,0,7.882,10.1a2.131,2.131,0,0,0-3.37-.039,3.623,3.623,0,0,0-.68,2.387Zm7.748-7.8-3.309.383a2.572,2.572,0,0,0-.633-1.578,1.8,1.8,0,0,0-1.325-.509A2.212,2.212,0,0,0,4.482,3.961,8.9,8.9,0,0,0,3.539,8.2a3.929,3.929,0,0,1,3.175-1.58A4.753,4.753,0,0,1,10.38,8.328a6.351,6.351,0,0,1,1.527,4.4A6.486,6.486,0,0,1,10.3,17.326,5.673,5.673,0,0,1,1.74,16.86Q0,14.666,0,9.664q0-5.13,1.812-7.395A5.748,5.748,0,0,1,6.52,0a4.86,4.86,0,0,1,3.363,1.19,5.672,5.672,0,0,1,1.7,3.455Z" transform="translate(241.587 116.288)" fill="#3f3d56"/>
      <circle id="Ellipse_111" data-name="Ellipse 111" cx="17.862" cy="17.862" r="17.862" transform="translate(229.678 107.955)" fill="#ff005d"/>
      <path id="Path_1130" data-name="Path 1130" d="M3.832,12.449A4.182,4.182,0,0,0,4.6,15.141a2.221,2.221,0,0,0,1.751.949,1.961,1.961,0,0,0,1.581-.777,4.053,4.053,0,0,0,.633-2.545A4.238,4.238,0,0,0,7.882,10.1a2.131,2.131,0,0,0-3.37-.039,3.623,3.623,0,0,0-.68,2.387Zm7.748-7.8-3.309.383a2.572,2.572,0,0,0-.633-1.578,1.8,1.8,0,0,0-1.325-.509A2.212,2.212,0,0,0,4.482,3.961,8.9,8.9,0,0,0,3.539,8.2a3.929,3.929,0,0,1,3.175-1.58A4.753,4.753,0,0,1,10.38,8.328a6.351,6.351,0,0,1,1.527,4.4A6.486,6.486,0,0,1,10.3,17.326,5.673,5.673,0,0,1,1.74,16.86Q0,14.666,0,9.664q0-5.13,1.812-7.395A5.748,5.748,0,0,1,6.52,0a4.86,4.86,0,0,1,3.363,1.19,5.672,5.672,0,0,1,1.7,3.455Z" transform="translate(241.587 116.288)" fill="#fff"/>
      <circle id="Ellipse_112" data-name="Ellipse 112" cx="17.862" cy="17.862" r="17.862" transform="translate(154.509 245.959)" fill="#3f3d56"/>
      <path id="Path_1131" data-name="Path 1131" d="M3.748,5.062a2.27,2.27,0,0,0,.587,1.665,2.085,2.085,0,0,0,1.562.6,2.113,2.113,0,0,0,1.581-.6,2.284,2.284,0,0,0,.593-1.672,2.215,2.215,0,0,0-.586-1.609,2.064,2.064,0,0,0-1.55-.6,2.119,2.119,0,0,0-1.593.61A2.222,2.222,0,0,0,3.748,5.062ZM3.427,13.05a3.343,3.343,0,0,0,.735,2.3A2.356,2.356,0,0,0,6,16.178a2.273,2.273,0,0,0,1.778-.8,3.355,3.355,0,0,0,.7-2.3,3.016,3.016,0,0,0-.715-2.1,2.334,2.334,0,0,0-1.816-.8,2.147,2.147,0,0,0-1.9.9,3.381,3.381,0,0,0-.623,1.959ZM3.032,8.661A4.07,4.07,0,0,1,1.074,7.052,4.284,4.284,0,0,1,.463,4.808,4.579,4.579,0,0,1,1.877,1.36a6.6,6.6,0,0,1,8.03,0,4.56,4.56,0,0,1,1.427,3.448,4.09,4.09,0,0,1-2.5,3.853,4.728,4.728,0,0,1,3.076,4.578,5.52,5.52,0,0,1-5.855,5.814,6.314,6.314,0,0,1-4.114-1.335A5.277,5.277,0,0,1,.005,13.392a5.463,5.463,0,0,1,.729-2.777,4.726,4.726,0,0,1,2.3-1.953Z" transform="translate(166.412 254.295)" fill="#3f3d56"/>
      <circle id="Ellipse_113" data-name="Ellipse 113" cx="17.862" cy="17.862" r="17.862" transform="translate(154.509 245.959)" fill="#ff005d"/>
      <path id="Path_1132" data-name="Path 1132" d="M3.748,5.062a2.27,2.27,0,0,0,.587,1.665,2.085,2.085,0,0,0,1.562.6,2.113,2.113,0,0,0,1.581-.6,2.284,2.284,0,0,0,.593-1.672,2.215,2.215,0,0,0-.586-1.609,2.064,2.064,0,0,0-1.55-.6,2.119,2.119,0,0,0-1.593.61A2.222,2.222,0,0,0,3.748,5.062ZM3.427,13.05a3.343,3.343,0,0,0,.735,2.3A2.356,2.356,0,0,0,6,16.178a2.273,2.273,0,0,0,1.778-.8,3.355,3.355,0,0,0,.7-2.3,3.016,3.016,0,0,0-.715-2.1,2.334,2.334,0,0,0-1.816-.8,2.147,2.147,0,0,0-1.9.9,3.381,3.381,0,0,0-.623,1.959ZM3.032,8.661A4.07,4.07,0,0,1,1.074,7.052,4.284,4.284,0,0,1,.463,4.808,4.579,4.579,0,0,1,1.877,1.36a6.6,6.6,0,0,1,8.03,0,4.56,4.56,0,0,1,1.427,3.448,4.09,4.09,0,0,1-2.5,3.853,4.728,4.728,0,0,1,3.076,4.578,5.52,5.52,0,0,1-5.855,5.814,6.314,6.314,0,0,1-4.114-1.335A5.277,5.277,0,0,1,.005,13.392a5.463,5.463,0,0,1,.729-2.777,4.726,4.726,0,0,1,2.3-1.953Z" transform="translate(166.412 254.295)" fill="#fff"/>
    </g>
    <g id="Group_35" data-name="Group 35" transform="translate(733.664 709.867)">
      <path id="Path_1108" data-name="Path 1108" d="M564.615,485.717a2.594,2.594,0,0,1,1.357,3.409l-3.523,8.184.4.2-2.4,5.554-.385-.213L547.44,532.172a4.5,4.5,0,0,1-5.362,2.549l-19.625-5.576a3.406,3.406,0,0,1-2.137-4.755L540.1,483.37a4.214,4.214,0,0,1,4.746-2.275l19.311,4.472h0A2.589,2.589,0,0,1,564.615,485.717Z" transform="translate(-519.978 -480.986)" fill="#3f3d56"/>
      <path id="Path_1109" data-name="Path 1109" d="M548.168,484.2l10.152,2.351a.853.853,0,0,0,.945-.429h0a.966.966,0,0,1,1.07-.486l2.138.5a2.047,2.047,0,0,1,1.419,2.8l-18.268,42.518a2.337,2.337,0,0,1-2.822,1.315l-19.487-5.88a1.8,1.8,0,0,1-1.109-2.5l19.308-40.758a2.912,2.912,0,0,1,3.289-1.59l2.254.522a1.458,1.458,0,0,0,1.112,1.639Z" transform="translate(-519.865 -480.932)" fill="#ff005d"/>
    </g>
  </g>
</svg>
